<svg width="55" height="56" viewBox="0 0 55 56" fill="none" xmlns="http://www.w3.org/2000/svg">
<g filter="url(#filter0_b_182_493)">
<path d="M0 10.791C0 5.26811 4.47715 0.790955 10 0.790955H45C50.5228 0.790955 55 5.26811 55 10.791V45.791C55 51.3138 50.5228 55.791 45 55.791H0V10.791Z" fill="white" fill-opacity="0.5"/>
</g>
<path d="M20 42.7944C20.0004 42.2636 20.2009 41.7546 20.5573 41.3795L30.2754 31.1385C30.5696 30.8286 30.8029 30.4607 30.9621 30.0558C31.1213 29.6509 31.2032 29.2168 31.2032 28.7785C31.2032 28.3402 31.1213 27.9062 30.9621 27.5013C30.8029 27.0963 30.5696 26.7284 30.2754 26.4185L20.57 16.1842C20.2239 15.8066 20.0324 15.3008 20.0367 14.7758C20.041 14.2508 20.2409 13.7486 20.5932 13.3774C20.9454 13.0062 21.422 12.7956 21.9202 12.791C22.4184 12.7865 22.8983 12.9883 23.2567 13.353L32.9621 23.5793C34.2671 24.9572 35 26.8244 35 28.7712C35 30.7179 34.2671 32.5852 32.9621 33.9631L23.244 44.204C22.9787 44.4838 22.6406 44.6746 22.2725 44.7521C21.9044 44.8297 21.5228 44.7906 21.1757 44.6398C20.8287 44.489 20.5318 44.2332 20.3226 43.9048C20.1133 43.5764 20.0011 43.19 20 42.7944Z" fill="black"/>
<defs>
<filter id="filter0_b_182_493" x="-10" y="-9.20905" width="75" height="75" filterUnits="userSpaceOnUse" color-interpolation-filters="sRGB">
<feFlood flood-opacity="0" result="BackgroundImageFix"/>
<feGaussianBlur in="BackgroundImageFix" stdDeviation="5"/>
<feComposite in2="SourceAlpha" operator="in" result="effect1_backgroundBlur_182_493"/>
<feBlend mode="normal" in="SourceGraphic" in2="effect1_backgroundBlur_182_493" result="shape"/>
</filter>
</defs>
</svg>
