<svg width="1280" height="825" viewBox="0 0 1280 825" fill="none" xmlns="http://www.w3.org/2000/svg">
<rect y="0.450195" width="1280" height="812.741" fill="#170F40"/>
<path d="M8.49815 508.691C14.4981 508.691 19.9315 509.825 24.7981 512.091C29.6648 514.358 33.5315 517.525 36.3981 521.591C39.3315 525.591 40.9315 530.158 41.1981 535.291H22.3981C21.8648 531.691 20.2981 528.891 17.6981 526.891C15.0981 524.891 11.6315 523.891 7.29814 523.891C3.16481 523.891 -0.0685203 524.658 -2.40186 526.191C-4.73519 527.658 -5.90185 529.658 -5.90185 532.191C-5.90185 534.191 -5.16852 535.825 -3.70185 537.091C-2.23519 538.358 -0.00185446 539.491 2.99815 540.491C6.06481 541.425 10.4981 542.491 16.2981 543.691C25.2981 545.558 31.7315 548.658 35.5981 552.991C39.5315 557.258 41.4981 562.625 41.4981 569.091C41.4981 574.158 40.0315 578.591 37.0981 582.391C34.2315 586.191 30.2981 589.091 25.2981 591.091C20.2981 593.158 14.7315 594.191 8.59815 594.191C1.93148 594.191 -4.06852 593.025 -9.40185 590.691C-14.6685 588.425 -18.8685 585.158 -22.0019 580.891C-25.0685 576.625 -26.7352 571.625 -27.0019 565.891H-8.30185C-7.76852 569.825 -5.90185 572.991 -2.70185 575.391C0.564812 577.725 4.76481 578.891 9.89815 578.891C13.6315 578.891 16.6981 578.058 19.0981 576.391C21.5648 574.725 22.7981 572.558 22.7981 569.891C22.7981 567.758 22.1315 565.991 20.7981 564.591C19.5315 563.191 17.4648 561.991 14.5981 560.991C11.7981 559.991 7.86481 559.025 2.79815 558.091C-6.33519 556.358 -13.1685 553.458 -17.7019 549.391C-22.2352 545.325 -24.5019 539.591 -24.5019 532.191C-24.5019 527.391 -23.0685 523.225 -20.2019 519.691C-17.2685 516.158 -13.3019 513.458 -8.30185 511.591C-3.30185 509.658 2.29815 508.691 8.49815 508.691ZM70.3888 510.691V592.191H52.1888V510.691H70.3888ZM157.206 510.691V592.191H139.006V559.091H103.006V592.191H84.806V510.691H103.006V542.991H139.006V510.691H157.206ZM171.622 510.691H232.222V526.491H189.822V543.091H228.722V558.891H189.822V576.391H233.122V592.191H171.622V510.691ZM244.353 510.691H262.553V556.091C262.553 562.625 264.253 567.891 267.653 571.891C271.119 575.825 275.786 577.791 281.653 577.791C287.519 577.791 292.153 575.825 295.553 571.891C299.02 567.891 300.753 562.625 300.753 556.091V510.691H318.953V556.091C318.953 563.691 317.386 570.391 314.253 576.191C311.186 581.925 306.82 586.358 301.153 589.491C295.553 592.625 289.053 594.191 281.653 594.191C274.253 594.191 267.719 592.625 262.053 589.491C256.453 586.358 252.086 581.925 248.953 576.191C245.886 570.391 244.353 563.691 244.353 556.091V510.691ZM332.365 510.691H347.565L388.265 559.691V509.691H406.465V591.191H391.265L350.565 542.191V592.191H332.365V510.691ZM460.841 508.591C467.774 508.591 474.074 509.791 479.741 512.191C485.474 514.591 490.241 517.858 494.041 521.991C497.908 526.125 500.641 530.758 502.241 535.891H482.241C480.441 532.758 477.674 530.225 473.941 528.291C470.274 526.291 466.041 525.291 461.241 525.291C456.374 525.291 451.974 526.425 448.041 528.691C444.108 530.891 441.008 533.991 438.741 537.991C436.541 541.925 435.441 546.391 435.441 551.391C435.441 556.391 436.541 560.925 438.741 564.991C441.008 568.991 444.108 572.125 448.041 574.391C451.974 576.658 456.374 577.791 461.241 577.791C465.308 577.791 469.008 577.058 472.341 575.591C475.674 574.125 478.374 572.191 480.441 569.791C482.574 567.325 483.974 564.725 484.641 561.991H459.741V546.591H504.041V551.391C504.041 559.525 502.141 566.858 498.341 573.391C494.608 579.858 489.441 584.925 482.841 588.591C476.308 592.325 468.974 594.191 460.841 594.191C452.574 594.191 445.108 592.325 438.441 588.591C431.841 584.925 426.641 579.858 422.841 573.391C419.108 566.858 417.241 559.525 417.241 551.391C417.241 543.258 419.108 535.958 422.841 529.491C426.641 522.958 431.841 517.858 438.441 514.191C445.108 510.458 452.574 508.591 460.841 508.591ZM582.911 594.191C574.645 594.191 567.178 592.325 560.511 588.591C553.911 584.925 548.711 579.858 544.911 573.391C541.178 566.858 539.311 559.525 539.311 551.391C539.311 543.258 541.178 535.958 544.911 529.491C548.711 522.958 553.911 517.858 560.511 514.191C567.178 510.458 574.645 508.591 582.911 508.591C590.178 508.591 596.678 509.925 602.411 512.591C608.211 515.258 612.911 518.925 616.511 523.591C620.111 528.258 622.478 533.491 623.611 539.291H605.211C604.211 535.291 601.711 531.958 597.711 529.291C593.778 526.625 588.978 525.291 583.311 525.291C578.445 525.291 574.045 526.425 570.111 528.691C566.178 530.891 563.078 533.991 560.811 537.991C558.611 541.925 557.511 546.391 557.511 551.391C557.511 556.325 558.611 560.791 560.811 564.791C563.078 568.791 566.178 571.925 570.111 574.191C574.045 576.391 578.445 577.491 583.311 577.491C587.045 577.491 590.545 576.758 593.811 575.291C597.145 573.825 599.878 571.925 602.011 569.591C604.211 567.258 605.545 564.858 606.011 562.391H624.411C623.545 567.925 621.245 573.125 617.511 577.991C613.778 582.858 608.878 586.758 602.811 589.691C596.811 592.691 590.178 594.191 582.911 594.191ZM653.104 510.691V592.191H634.904V510.691H653.104ZM734.121 526.791H707.621V592.191H689.421V526.791H662.921V510.691H734.121V526.791ZM787.958 566.591V592.191H769.758V566.591L739.258 510.691H760.058L779.658 549.191L799.158 510.691H818.458L787.958 566.591ZM921.621 526.791H895.121V592.191H876.921V526.791H850.421V510.691H921.621V526.791ZM968.077 594.191C959.744 594.191 952.21 592.325 945.477 588.591C938.81 584.925 933.577 579.858 929.777 573.391C925.977 566.858 924.077 559.525 924.077 551.391C924.077 543.258 925.977 535.958 929.777 529.491C933.577 522.958 938.81 517.858 945.477 514.191C952.21 510.458 959.744 508.591 968.077 508.591C976.41 508.591 983.91 510.458 990.577 514.191C997.31 517.858 1002.58 522.958 1006.38 529.491C1010.18 535.958 1012.08 543.258 1012.08 551.391C1012.08 559.525 1010.18 566.858 1006.38 573.391C1002.58 579.858 997.31 584.925 990.577 588.591C983.91 592.325 976.41 594.191 968.077 594.191ZM968.077 577.791C972.944 577.791 977.344 576.658 981.277 574.391C985.21 572.125 988.277 568.991 990.477 564.991C992.744 560.925 993.877 556.391 993.877 551.391C993.877 546.325 992.744 541.791 990.477 537.791C988.277 533.791 985.21 530.658 981.277 528.391C977.344 526.125 972.944 524.991 968.077 524.991C963.21 524.991 958.81 526.125 954.877 528.391C950.944 530.658 947.844 533.791 945.577 537.791C943.377 541.791 942.277 546.325 942.277 551.391C942.277 556.391 943.377 560.925 945.577 564.991C947.844 568.991 950.944 572.125 954.877 574.391C958.81 576.658 963.21 577.791 968.077 577.791ZM1021.89 510.691H1040.09V556.091C1040.09 562.625 1041.79 567.891 1045.19 571.891C1048.66 575.825 1053.33 577.791 1059.19 577.791C1065.06 577.791 1069.69 575.825 1073.09 571.891C1076.56 567.891 1078.29 562.625 1078.29 556.091V510.691H1096.49V556.091C1096.49 563.691 1094.93 570.391 1091.79 576.191C1088.73 581.925 1084.36 586.358 1078.69 589.491C1073.09 592.625 1066.59 594.191 1059.19 594.191C1051.79 594.191 1045.26 592.625 1039.59 589.491C1033.99 586.358 1029.63 581.925 1026.49 576.191C1023.43 570.391 1021.89 563.691 1021.89 556.091V510.691ZM1158.4 592.191L1142.6 566.491H1128.1V592.191H1109.9V510.691H1142.7C1149.5 510.691 1155.37 511.858 1160.3 514.191C1165.24 516.458 1169 519.691 1171.6 523.891C1174.2 528.091 1175.5 532.991 1175.5 538.591C1175.5 544.191 1174.2 549.091 1171.6 553.291C1169.07 557.425 1165.4 560.625 1160.6 562.891L1179.5 592.191H1158.4ZM1128.1 550.391H1141.9C1146.77 550.391 1150.54 549.391 1153.2 547.391C1155.94 545.325 1157.3 542.391 1157.3 538.591C1157.3 534.791 1155.94 531.891 1153.2 529.891C1150.54 527.825 1146.77 526.791 1141.9 526.791H1128.1V550.391ZM8.49815 623.691C14.4981 623.691 19.9315 624.825 24.7981 627.091C29.6648 629.358 33.5315 632.525 36.3981 636.591C39.3315 640.591 40.9315 645.158 41.1981 650.291H22.3981C21.8648 646.691 20.2981 643.891 17.6981 641.891C15.0981 639.891 11.6315 638.891 7.29814 638.891C3.16481 638.891 -0.0685203 639.658 -2.40186 641.191C-4.73519 642.658 -5.90185 644.658 -5.90185 647.191C-5.90185 649.191 -5.16852 650.825 -3.70185 652.091C-2.23519 653.358 -0.00185446 654.491 2.99815 655.491C6.06481 656.425 10.4981 657.491 16.2981 658.691C25.2981 660.558 31.7315 663.658 35.5981 667.991C39.5315 672.258 41.4981 677.625 41.4981 684.091C41.4981 689.158 40.0315 693.591 37.0981 697.391C34.2315 701.191 30.2981 704.091 25.2981 706.091C20.2981 708.158 14.7315 709.191 8.59815 709.191C1.93148 709.191 -4.06852 708.025 -9.40185 705.691C-14.6685 703.425 -18.8685 700.158 -22.0019 695.891C-25.0685 691.625 -26.7352 686.625 -27.0019 680.891H-8.30185C-7.76852 684.825 -5.90185 687.991 -2.70185 690.391C0.564812 692.725 4.76481 693.891 9.89815 693.891C13.6315 693.891 16.6981 693.058 19.0981 691.391C21.5648 689.725 22.7981 687.558 22.7981 684.891C22.7981 682.758 22.1315 680.991 20.7981 679.591C19.5315 678.191 17.4648 676.991 14.5981 675.991C11.7981 674.991 7.86481 674.025 2.79815 673.091C-6.33519 671.358 -13.1685 668.458 -17.7019 664.391C-22.2352 660.325 -24.5019 654.591 -24.5019 647.191C-24.5019 642.391 -23.0685 638.225 -20.2019 634.691C-17.2685 631.158 -13.3019 628.458 -8.30185 626.591C-3.30185 624.658 2.29815 623.691 8.49815 623.691ZM70.3888 625.691V707.191H52.1888V625.691H70.3888ZM157.206 625.691V707.191H139.006V674.091H103.006V707.191H84.806V625.691H103.006V657.991H139.006V625.691H157.206ZM171.622 625.691H232.222V641.491H189.822V658.091H228.722V673.891H189.822V691.391H233.122V707.191H171.622V625.691ZM244.353 625.691H262.553V671.091C262.553 677.625 264.253 682.891 267.653 686.891C271.119 690.825 275.786 692.791 281.653 692.791C287.519 692.791 292.153 690.825 295.553 686.891C299.02 682.891 300.753 677.625 300.753 671.091V625.691H318.953V671.091C318.953 678.691 317.386 685.391 314.253 691.191C311.186 696.925 306.82 701.358 301.153 704.491C295.553 707.625 289.053 709.191 281.653 709.191C274.253 709.191 267.719 707.625 262.053 704.491C256.453 701.358 252.086 696.925 248.953 691.191C245.886 685.391 244.353 678.691 244.353 671.091V625.691ZM332.365 625.691H347.565L388.265 674.691V624.691H406.465V706.191H391.265L350.565 657.191V707.191H332.365V625.691ZM460.841 623.591C467.774 623.591 474.074 624.791 479.741 627.191C485.474 629.591 490.241 632.858 494.041 636.991C497.908 641.125 500.641 645.758 502.241 650.891H482.241C480.441 647.758 477.674 645.225 473.941 643.291C470.274 641.291 466.041 640.291 461.241 640.291C456.374 640.291 451.974 641.425 448.041 643.691C444.108 645.891 441.008 648.991 438.741 652.991C436.541 656.925 435.441 661.391 435.441 666.391C435.441 671.391 436.541 675.925 438.741 679.991C441.008 683.991 444.108 687.125 448.041 689.391C451.974 691.658 456.374 692.791 461.241 692.791C465.308 692.791 469.008 692.058 472.341 690.591C475.674 689.125 478.374 687.191 480.441 684.791C482.574 682.325 483.974 679.725 484.641 676.991H459.741V661.591H504.041V666.391C504.041 674.525 502.141 681.858 498.341 688.391C494.608 694.858 489.441 699.925 482.841 703.591C476.308 707.325 468.974 709.191 460.841 709.191C452.574 709.191 445.108 707.325 438.441 703.591C431.841 699.925 426.641 694.858 422.841 688.391C419.108 681.858 417.241 674.525 417.241 666.391C417.241 658.258 419.108 650.958 422.841 644.491C426.641 637.958 431.841 632.858 438.441 629.191C445.108 625.458 452.574 623.591 460.841 623.591ZM582.911 709.191C574.645 709.191 567.178 707.325 560.511 703.591C553.911 699.925 548.711 694.858 544.911 688.391C541.178 681.858 539.311 674.525 539.311 666.391C539.311 658.258 541.178 650.958 544.911 644.491C548.711 637.958 553.911 632.858 560.511 629.191C567.178 625.458 574.645 623.591 582.911 623.591C590.178 623.591 596.678 624.925 602.411 627.591C608.211 630.258 612.911 633.925 616.511 638.591C620.111 643.258 622.478 648.491 623.611 654.291H605.211C604.211 650.291 601.711 646.958 597.711 644.291C593.778 641.625 588.978 640.291 583.311 640.291C578.445 640.291 574.045 641.425 570.111 643.691C566.178 645.891 563.078 648.991 560.811 652.991C558.611 656.925 557.511 661.391 557.511 666.391C557.511 671.325 558.611 675.791 560.811 679.791C563.078 683.791 566.178 686.925 570.111 689.191C574.045 691.391 578.445 692.491 583.311 692.491C587.045 692.491 590.545 691.758 593.811 690.291C597.145 688.825 599.878 686.925 602.011 684.591C604.211 682.258 605.545 679.858 606.011 677.391H624.411C623.545 682.925 621.245 688.125 617.511 692.991C613.778 697.858 608.878 701.758 602.811 704.691C596.811 707.691 590.178 709.191 582.911 709.191ZM653.104 625.691V707.191H634.904V625.691H653.104ZM734.121 641.791H707.621V707.191H689.421V641.791H662.921V625.691H734.121V641.791ZM787.958 681.591V707.191H769.758V681.591L739.258 625.691H760.058L779.658 664.191L799.158 625.691H818.458L787.958 681.591ZM921.621 641.791H895.121V707.191H876.921V641.791H850.421V625.691H921.621V641.791ZM968.077 709.191C959.744 709.191 952.21 707.325 945.477 703.591C938.81 699.925 933.577 694.858 929.777 688.391C925.977 681.858 924.077 674.525 924.077 666.391C924.077 658.258 925.977 650.958 929.777 644.491C933.577 637.958 938.81 632.858 945.477 629.191C952.21 625.458 959.744 623.591 968.077 623.591C976.41 623.591 983.91 625.458 990.577 629.191C997.31 632.858 1002.58 637.958 1006.38 644.491C1010.18 650.958 1012.08 658.258 1012.08 666.391C1012.08 674.525 1010.18 681.858 1006.38 688.391C1002.58 694.858 997.31 699.925 990.577 703.591C983.91 707.325 976.41 709.191 968.077 709.191ZM968.077 692.791C972.944 692.791 977.344 691.658 981.277 689.391C985.21 687.125 988.277 683.991 990.477 679.991C992.744 675.925 993.877 671.391 993.877 666.391C993.877 661.325 992.744 656.791 990.477 652.791C988.277 648.791 985.21 645.658 981.277 643.391C977.344 641.125 972.944 639.991 968.077 639.991C963.21 639.991 958.81 641.125 954.877 643.391C950.944 645.658 947.844 648.791 945.577 652.791C943.377 656.791 942.277 661.325 942.277 666.391C942.277 671.391 943.377 675.925 945.577 679.991C947.844 683.991 950.944 687.125 954.877 689.391C958.81 691.658 963.21 692.791 968.077 692.791ZM1021.89 625.691H1040.09V671.091C1040.09 677.625 1041.79 682.891 1045.19 686.891C1048.66 690.825 1053.33 692.791 1059.19 692.791C1065.06 692.791 1069.69 690.825 1073.09 686.891C1076.56 682.891 1078.29 677.625 1078.29 671.091V625.691H1096.49V671.091C1096.49 678.691 1094.93 685.391 1091.79 691.191C1088.73 696.925 1084.36 701.358 1078.69 704.491C1073.09 707.625 1066.59 709.191 1059.19 709.191C1051.79 709.191 1045.26 707.625 1039.59 704.491C1033.99 701.358 1029.63 696.925 1026.49 691.191C1023.43 685.391 1021.89 678.691 1021.89 671.091V625.691ZM1158.4 707.191L1142.6 681.491H1128.1V707.191H1109.9V625.691H1142.7C1149.5 625.691 1155.37 626.858 1160.3 629.191C1165.24 631.458 1169 634.691 1171.6 638.891C1174.2 643.091 1175.5 647.991 1175.5 653.591C1175.5 659.191 1174.2 664.091 1171.6 668.291C1169.07 672.425 1165.4 675.625 1160.6 677.891L1179.5 707.191H1158.4ZM1128.1 665.391H1141.9C1146.77 665.391 1150.54 664.391 1153.2 662.391C1155.94 660.325 1157.3 657.391 1157.3 653.591C1157.3 649.791 1155.94 646.891 1153.2 644.891C1150.54 642.825 1146.77 641.791 1141.9 641.791H1128.1V665.391ZM8.49815 738.691C14.4981 738.691 19.9315 739.825 24.7981 742.091C29.6648 744.358 33.5315 747.525 36.3981 751.591C39.3315 755.591 40.9315 760.158 41.1981 765.291H22.3981C21.8648 761.691 20.2981 758.891 17.6981 756.891C15.0981 754.891 11.6315 753.891 7.29814 753.891C3.16481 753.891 -0.0685203 754.658 -2.40186 756.191C-4.73519 757.658 -5.90185 759.658 -5.90185 762.191C-5.90185 764.191 -5.16852 765.825 -3.70185 767.091C-2.23519 768.358 -0.00185446 769.491 2.99815 770.491C6.06481 771.425 10.4981 772.491 16.2981 773.691C25.2981 775.558 31.7315 778.658 35.5981 782.991C39.5315 787.258 41.4981 792.625 41.4981 799.091C41.4981 804.158 40.0315 808.591 37.0981 812.391C34.2315 816.191 30.2981 819.091 25.2981 821.091C20.2981 823.158 14.7315 824.191 8.59815 824.191C1.93148 824.191 -4.06852 823.025 -9.40185 820.691C-14.6685 818.425 -18.8685 815.158 -22.0019 810.891C-25.0685 806.625 -26.7352 801.625 -27.0019 795.891H-8.30185C-7.76852 799.825 -5.90185 802.991 -2.70185 805.391C0.564812 807.725 4.76481 808.891 9.89815 808.891C13.6315 808.891 16.6981 808.058 19.0981 806.391C21.5648 804.725 22.7981 802.558 22.7981 799.891C22.7981 797.758 22.1315 795.991 20.7981 794.591C19.5315 793.191 17.4648 791.991 14.5981 790.991C11.7981 789.991 7.86481 789.025 2.79815 788.091C-6.33519 786.358 -13.1685 783.458 -17.7019 779.391C-22.2352 775.325 -24.5019 769.591 -24.5019 762.191C-24.5019 757.391 -23.0685 753.225 -20.2019 749.691C-17.2685 746.158 -13.3019 743.458 -8.30185 741.591C-3.30185 739.658 2.29815 738.691 8.49815 738.691ZM70.3888 740.691V822.191H52.1888V740.691H70.3888ZM157.206 740.691V822.191H139.006V789.091H103.006V822.191H84.806V740.691H103.006V772.991H139.006V740.691H157.206ZM171.622 740.691H232.222V756.491H189.822V773.091H228.722V788.891H189.822V806.391H233.122V822.191H171.622V740.691ZM244.353 740.691H262.553V786.091C262.553 792.625 264.253 797.891 267.653 801.891C271.119 805.825 275.786 807.791 281.653 807.791C287.519 807.791 292.153 805.825 295.553 801.891C299.02 797.891 300.753 792.625 300.753 786.091V740.691H318.953V786.091C318.953 793.691 317.386 800.391 314.253 806.191C311.186 811.925 306.82 816.358 301.153 819.491C295.553 822.625 289.053 824.191 281.653 824.191C274.253 824.191 267.719 822.625 262.053 819.491C256.453 816.358 252.086 811.925 248.953 806.191C245.886 800.391 244.353 793.691 244.353 786.091V740.691ZM332.365 740.691H347.565L388.265 789.691V739.691H406.465V821.191H391.265L350.565 772.191V822.191H332.365V740.691ZM460.841 738.591C467.774 738.591 474.074 739.791 479.741 742.191C485.474 744.591 490.241 747.858 494.041 751.991C497.908 756.125 500.641 760.758 502.241 765.891H482.241C480.441 762.758 477.674 760.225 473.941 758.291C470.274 756.291 466.041 755.291 461.241 755.291C456.374 755.291 451.974 756.425 448.041 758.691C444.108 760.891 441.008 763.991 438.741 767.991C436.541 771.925 435.441 776.391 435.441 781.391C435.441 786.391 436.541 790.925 438.741 794.991C441.008 798.991 444.108 802.125 448.041 804.391C451.974 806.658 456.374 807.791 461.241 807.791C465.308 807.791 469.008 807.058 472.341 805.591C475.674 804.125 478.374 802.191 480.441 799.791C482.574 797.325 483.974 794.725 484.641 791.991H459.741V776.591H504.041V781.391C504.041 789.525 502.141 796.858 498.341 803.391C494.608 809.858 489.441 814.925 482.841 818.591C476.308 822.325 468.974 824.191 460.841 824.191C452.574 824.191 445.108 822.325 438.441 818.591C431.841 814.925 426.641 809.858 422.841 803.391C419.108 796.858 417.241 789.525 417.241 781.391C417.241 773.258 419.108 765.958 422.841 759.491C426.641 752.958 431.841 747.858 438.441 744.191C445.108 740.458 452.574 738.591 460.841 738.591ZM582.911 824.191C574.645 824.191 567.178 822.325 560.511 818.591C553.911 814.925 548.711 809.858 544.911 803.391C541.178 796.858 539.311 789.525 539.311 781.391C539.311 773.258 541.178 765.958 544.911 759.491C548.711 752.958 553.911 747.858 560.511 744.191C567.178 740.458 574.645 738.591 582.911 738.591C590.178 738.591 596.678 739.925 602.411 742.591C608.211 745.258 612.911 748.925 616.511 753.591C620.111 758.258 622.478 763.491 623.611 769.291H605.211C604.211 765.291 601.711 761.958 597.711 759.291C593.778 756.625 588.978 755.291 583.311 755.291C578.445 755.291 574.045 756.425 570.111 758.691C566.178 760.891 563.078 763.991 560.811 767.991C558.611 771.925 557.511 776.391 557.511 781.391C557.511 786.325 558.611 790.791 560.811 794.791C563.078 798.791 566.178 801.925 570.111 804.191C574.045 806.391 578.445 807.491 583.311 807.491C587.045 807.491 590.545 806.758 593.811 805.291C597.145 803.825 599.878 801.925 602.011 799.591C604.211 797.258 605.545 794.858 606.011 792.391H624.411C623.545 797.925 621.245 803.125 617.511 807.991C613.778 812.858 608.878 816.758 602.811 819.691C596.811 822.691 590.178 824.191 582.911 824.191ZM653.104 740.691V822.191H634.904V740.691H653.104ZM734.121 756.791H707.621V822.191H689.421V756.791H662.921V740.691H734.121V756.791ZM787.958 796.591V822.191H769.758V796.591L739.258 740.691H760.058L779.658 779.191L799.158 740.691H818.458L787.958 796.591ZM921.621 756.791H895.121V822.191H876.921V756.791H850.421V740.691H921.621V756.791ZM968.077 824.191C959.744 824.191 952.21 822.325 945.477 818.591C938.81 814.925 933.577 809.858 929.777 803.391C925.977 796.858 924.077 789.525 924.077 781.391C924.077 773.258 925.977 765.958 929.777 759.491C933.577 752.958 938.81 747.858 945.477 744.191C952.21 740.458 959.744 738.591 968.077 738.591C976.41 738.591 983.91 740.458 990.577 744.191C997.31 747.858 1002.58 752.958 1006.38 759.491C1010.18 765.958 1012.08 773.258 1012.08 781.391C1012.08 789.525 1010.18 796.858 1006.38 803.391C1002.58 809.858 997.31 814.925 990.577 818.591C983.91 822.325 976.41 824.191 968.077 824.191ZM968.077 807.791C972.944 807.791 977.344 806.658 981.277 804.391C985.21 802.125 988.277 798.991 990.477 794.991C992.744 790.925 993.877 786.391 993.877 781.391C993.877 776.325 992.744 771.791 990.477 767.791C988.277 763.791 985.21 760.658 981.277 758.391C977.344 756.125 972.944 754.991 968.077 754.991C963.21 754.991 958.81 756.125 954.877 758.391C950.944 760.658 947.844 763.791 945.577 767.791C943.377 771.791 942.277 776.325 942.277 781.391C942.277 786.391 943.377 790.925 945.577 794.991C947.844 798.991 950.944 802.125 954.877 804.391C958.81 806.658 963.21 807.791 968.077 807.791ZM1021.89 740.691H1040.09V786.091C1040.09 792.625 1041.79 797.891 1045.19 801.891C1048.66 805.825 1053.33 807.791 1059.19 807.791C1065.06 807.791 1069.69 805.825 1073.09 801.891C1076.56 797.891 1078.29 792.625 1078.29 786.091V740.691H1096.49V786.091C1096.49 793.691 1094.93 800.391 1091.79 806.191C1088.73 811.925 1084.36 816.358 1078.69 819.491C1073.09 822.625 1066.59 824.191 1059.19 824.191C1051.79 824.191 1045.26 822.625 1039.59 819.491C1033.99 816.358 1029.63 811.925 1026.49 806.191C1023.43 800.391 1021.89 793.691 1021.89 786.091V740.691ZM1158.4 822.191L1142.6 796.491H1128.1V822.191H1109.9V740.691H1142.7C1149.5 740.691 1155.37 741.858 1160.3 744.191C1165.24 746.458 1169 749.691 1171.6 753.891C1174.2 758.091 1175.5 762.991 1175.5 768.591C1175.5 774.191 1174.2 779.091 1171.6 783.291C1169.07 787.425 1165.4 790.625 1160.6 792.891L1179.5 822.191H1158.4ZM1128.1 780.391H1141.9C1146.77 780.391 1150.54 779.391 1153.2 777.391C1155.94 775.325 1157.3 772.391 1157.3 768.591C1157.3 764.791 1155.94 761.891 1153.2 759.891C1150.54 757.825 1146.77 756.791 1141.9 756.791H1128.1V780.391Z" fill="white" fill-opacity="0.06"/>
</svg>
