<svg width="641" height="571" viewBox="0 0 641 571" fill="none" xmlns="http://www.w3.org/2000/svg">
<path d="M350.122 3.54685C350.122 3.54685 353.431 4.64804 358.53 2.16293C363.63 -0.322191 367.843 -0.396596 367.843 3.79983C367.843 7.99625 375.057 6.88018 377.445 10.4814C379.834 14.0826 379.543 21.8355 383.159 22.3861C386.774 22.9367 406.883 22.6689 411.983 26.5379C417.083 30.407 421.586 35.9575 424.604 35.6748C427.622 35.3921 437.224 34.0379 439.613 35.6748C442.001 37.3117 445.923 43.4129 449.216 41.7611C452.508 40.1093 454.622 37.3266 459.432 40.3772C464.241 43.4278 474.15 47.5796 478.96 45.3623C483.769 43.145 496.987 39.4099 496.68 45.9873C496.374 52.5647 503.895 42.5944 506.283 41.7611C508.672 40.9278 511.69 39.8266 514.094 44.2462C516.499 48.6659 521.599 46.0766 521.906 48.2046C522.212 50.3325 523.407 66.6718 521.906 70.273C521.906 70.273 529.41 74.1569 526.118 76.642C522.826 79.1271 520.711 117.624 520.711 117.624C520.711 117.624 518.904 119.559 524.924 119.841C530.944 120.124 533.929 124.827 530.927 128.145C527.926 131.463 526.118 134.514 529.426 136.999C532.735 139.484 532.089 142.818 532.106 146.687C532.122 150.556 531.525 155.824 537.835 158.324C544.145 160.824 543.839 165.526 542.338 167.46C540.837 169.395 538.739 172.163 540.837 177.148C542.935 182.133 544.145 198.74 546.55 200.139C548.955 201.538 548.358 207.059 555.556 210.392C562.754 213.725 565.465 215.928 566.966 222.297C568.467 228.666 573.873 229.216 578.376 228.115C582.879 227.014 603.311 232.55 603.311 232.55C603.311 232.55 624.356 231.999 637.945 293.085C651.534 354.172 607.362 349.484 603.117 355.749C598.873 362.014 606.523 364.365 593.773 367.49C581.023 370.615 563.189 375.317 563.189 375.317C563.189 375.317 553.038 373.472 553.038 367.044C553.038 360.615 552.376 358.77 545.065 361.225C537.754 363.68 514.498 363.681 514.498 363.681C514.498 363.681 504.201 368.279 497.875 365.823C491.548 363.368 489.563 353.874 482.591 356.329C475.619 358.785 462.32 379.916 462.32 379.916C462.32 379.916 460.319 389.112 456.672 386.344C453.024 383.576 452.024 384.305 448.037 386.865C444.051 389.425 441.065 392.788 437.079 390.942C433.093 389.097 427.767 396.463 427.767 396.463C427.767 396.463 426.104 398.606 418.794 394.618C411.483 390.63 409.82 388.487 398.862 394.618C387.903 400.749 385.241 403.204 386.564 408.71C387.887 414.216 395.198 427.088 392.213 428.621C389.227 430.154 386.564 437.207 378.591 442.713C370.619 448.219 365.293 455.585 365.293 442.713C365.293 442.713 345.361 440.868 335.048 431.686C335.048 431.686 335.048 428.323 329.738 430.764C324.429 433.204 318.78 431.076 318.78 431.076C318.78 431.076 314.132 428.323 309.145 433.829C304.158 439.335 301.172 436.895 301.172 436.895C301.172 436.895 303.174 440.57 299.51 440.57C295.847 440.57 297.848 447.832 292.538 449.871C287.228 451.91 282.564 445.779 273.93 455.288C265.295 464.797 267.619 489.603 262.971 490.213C258.323 490.823 242.701 471.523 237.391 477.654C232.081 483.785 186.876 544.752 177.241 544.454C167.606 544.157 138.362 544.142 122.417 525.451C106.471 506.761 89.1865 508.904 89.1865 508.904C89.1865 508.904 75.5652 513.189 69.5776 508.904C63.59 504.618 40.3337 476.418 47.3057 471.21C54.2778 466.002 80.8749 460.183 92.8339 452.207C104.793 444.231 91.5105 439.335 91.5105 439.335C91.5105 439.335 85.5229 435.05 88.5248 427.073C91.5266 419.097 91.5105 411.136 97.4981 413.591C103.486 416.047 103.147 407.46 103.147 407.46C103.147 407.46 101.145 404.097 115.445 405.615C129.744 407.133 126.403 396.419 126.403 396.419C126.403 396.419 166.605 339.127 194.187 310.63C221.768 282.133 221.768 283.056 225.432 285.809C229.096 288.561 232.081 290.094 236.39 292.237C240.7 294.38 245.025 296.835 245.364 293.457C245.703 290.079 235.39 287.029 235.729 281.508C236.068 275.987 231.081 284.261 226.417 280.288C221.752 276.314 233.389 258.844 240.377 251.181C247.365 243.517 252.013 237.088 257 240.451C261.987 243.815 270.298 248.413 271.622 242.594C272.945 236.776 259.324 237.073 263.649 229.112C267.974 221.151 276.27 217.773 277.932 207.356C279.595 196.94 280.595 194.187 283.581 190.198C286.567 186.21 275.608 173.651 278.933 168.443C282.257 163.234 292.554 158.338 292.554 158.338C292.554 158.338 298.865 148.532 304.19 149.142C309.516 149.752 310.84 154.35 318.151 149.142C325.462 143.934 330.771 136.27 328.125 127.074C325.478 117.877 329.448 117.267 328.464 108.071C327.479 98.8742 323.154 101.33 325.139 91.8355C327.124 82.3414 332.789 73.145 349.396 72.5349L354.35 71.3147V58.145C354.35 58.145 345.393 54.7819 347.733 46.5081C350.074 38.2343 351.058 34.2462 347.395 28.4278C343.731 22.6093 356.319 25.9724 354.35 17.6986C352.382 9.42483 341.778 4.87126 350.187 3.48733L350.122 3.54685Z" fill="#B6CCE7"/>
<circle cx="332.013" cy="110.44" r="11.2611" fill="#AFAFAF"/>
<circle cx="377.25" cy="132.962" r="11.2611" fill="#AFAFAF"/>
<circle cx="222.366" cy="300.988" r="11.2611" fill="#AFAFAF"/>
<path d="M377.375 132.602L331.098 110.262L223.589 300.658" stroke="#AFAFAF" stroke-width="3"/>
<circle cx="298.853" cy="274.367" r="11.2611" fill="#001AFF"/>
<circle cx="371.599" cy="261.187" r="11.2611" fill="#001AFF"/>
<circle cx="513.374" cy="296.889" r="11.2611" fill="#001AFF"/>
<path d="M371.279 262.162L514.164 296.923L299.894 276.333" stroke="#001AFF" stroke-width="3"/>
<circle cx="271.258" cy="278.466" r="10.7611" fill="#AFAFAF" stroke="#AFAFAF"/>
<circle cx="107.565" cy="432.124" r="10.7611" fill="#AFAFAF" stroke="#AFAFAF"/>
<path d="M271.326 278.9L109.407 430.662" stroke="#AFAFAF" stroke-width="3"/>
<circle cx="132.487" cy="497.995" r="44.96" stroke="#AFAFAF" stroke-width="3" stroke-dasharray="6 6"/>
<path d="M365.842 110.79V112.284H353.64V110.79H358.738V107.772H360.598V110.79H365.842ZM353.933 106.644C356.951 106.176 358.65 104.147 358.665 102.264V101.312H360.657V102.264C360.649 104.169 362.371 106.176 365.417 106.644L364.626 108.197C362.283 107.772 360.54 106.52 359.661 104.857C358.789 106.512 357.053 107.78 354.724 108.197L353.933 106.644ZM372.039 101.84V106.981H368.772V109.369C370.039 109.354 371.24 109.303 372.61 109.091L372.742 110.585C370.999 110.878 369.556 110.922 367.908 110.922H366.985V105.487H370.237V103.348H366.97V101.84H372.039ZM373.357 113.236V100.77H375.071V105.59H376.36V100.551H378.132V113.881H376.36V107.098H375.071V113.236H373.357ZM384.49 102.836C384.482 104.542 385.449 106.198 387.61 106.893L386.628 108.358C385.171 107.867 384.16 106.915 383.582 105.699C382.988 107.032 381.926 108.08 380.388 108.607L379.348 107.128C381.626 106.425 382.6 104.637 382.615 102.821V101.371H384.49V102.836ZM381.487 113.646V109.354H383.391V112.152H390.642V113.646H381.487ZM388.269 110.321V100.551H390.144V104.403H391.946V105.985H390.144V110.321H388.269Z" fill="#858585"/>
<path d="M547.406 293.964V295.443H542.25V296.293H545.927V299.706H538.5V300.512H546.278V301.918H536.669V298.388H544.081V297.699H536.654V296.293H540.375V295.443H535.248V293.964H547.406ZM536.757 293.261V289.057H545.868V293.261H536.757ZM538.588 291.825H544.008V290.507H538.588V291.825ZM558.876 288.69V292.074H560.575V293.627H558.876V297.055H557.001V288.69H558.876ZM548.183 295.062C549.113 295.062 550.189 295.055 551.317 295.026V294.103C549.838 293.832 548.864 292.895 548.871 291.62C548.864 290.111 550.248 289.071 552.226 289.071C554.181 289.071 555.573 290.111 555.58 291.62C555.573 292.873 554.621 293.803 553.192 294.088V294.953C554.24 294.894 555.28 294.813 556.254 294.682L556.415 295.971C553.676 296.454 550.629 296.498 548.373 296.498L548.183 295.062ZM549.823 299.633C549.823 298.102 551.566 297.216 554.379 297.216C557.191 297.216 558.92 298.102 558.92 299.633C558.92 301.105 557.191 302.013 554.379 302.006C551.566 302.013 549.823 301.105 549.823 299.633ZM550.614 291.62C550.6 292.382 551.244 292.821 552.226 292.821C553.185 292.821 553.822 292.382 553.822 291.62C553.822 290.873 553.178 290.463 552.226 290.463C551.244 290.463 550.6 290.873 550.614 291.62ZM551.669 299.633C551.654 300.255 552.614 300.585 554.379 300.585C556.107 300.585 557.067 300.255 557.074 299.633C557.067 298.959 556.107 298.637 554.379 298.622C552.614 298.637 551.654 298.959 551.669 299.633ZM572.792 290.36V291.854H561.703V290.36H566.317V288.808H568.163V290.36H572.792ZM561.176 300.644V299.149H566.317V297.619C564.047 297.414 562.67 296.483 562.685 295.019C562.67 293.4 564.42 292.433 567.24 292.44C570.009 292.433 571.789 293.4 571.781 295.019C571.789 296.483 570.397 297.414 568.163 297.611V299.149H573.378V300.644H561.176ZM564.604 295.019C564.596 295.81 565.512 296.168 567.24 296.161C568.932 296.168 569.862 295.81 569.862 295.019C569.862 294.257 568.932 293.898 567.24 293.891C565.512 293.898 564.596 294.257 564.604 295.019ZM581.215 289.716C581.208 291.291 582.819 293.026 585.873 293.407L585.141 294.916C582.812 294.579 581.105 293.502 580.233 292.06C579.354 293.495 577.655 294.579 575.355 294.916L574.608 293.407C577.641 293.026 579.245 291.291 579.252 289.716V289.071H581.215V289.716ZM574.14 297.45V295.927H586.298V297.45H581.112V302.006H579.267V297.45H574.14Z" fill="#2F2F2F"/>
<path d="M404.576 124.407C407.439 124.407 409.593 125.857 409.6 128.054C409.593 130.068 407.894 131.416 405.499 131.68V133.958H410.699V135.496H398.497V133.958H403.638V131.68C401.258 131.409 399.566 130.061 399.566 128.054C399.566 125.857 401.712 124.407 404.576 124.407ZM401.412 128.054C401.412 129.461 402.708 130.244 404.576 130.252C406.451 130.244 407.747 129.461 407.754 128.054C407.747 126.721 406.451 125.894 404.576 125.901C402.708 125.894 401.412 126.721 401.412 128.054ZM413.877 124.612V129.57C415.503 129.541 417.254 129.417 419.107 129.036L419.312 130.559C417.137 131.006 415.057 131.116 413.145 131.116H412.002V124.612H413.877ZM413.394 136.814V132.405H415.284V135.32H422.476V136.814H413.394ZM420.162 133.298V123.733H422.037V127.468H423.838V129.036H422.037V133.298H420.162ZM429.346 126.004C429.339 127.71 430.306 129.365 432.466 130.061L431.485 131.526C430.027 131.035 429.017 130.083 428.438 128.867C427.845 130.2 426.783 131.248 425.245 131.775L424.205 130.296C426.482 129.592 427.457 127.805 427.471 125.989V124.539H429.346V126.004ZM426.343 136.814V132.522H428.248V135.32H435.499V136.814H426.343ZM433.125 133.489V123.718H435V127.571H436.802V129.153H435V133.489H433.125ZM410.655 148.53V150.024H398.497V148.53H410.655ZM399.712 144.853C399.712 143.154 401.639 142.114 404.576 142.129C407.491 142.114 409.417 143.154 409.424 144.853C409.417 146.56 407.491 147.607 404.576 147.607C401.639 147.607 399.712 146.56 399.712 144.853ZM399.961 154.814V150.918H401.836V153.32H409.278V154.814H399.961ZM401.661 144.853C401.646 145.681 402.723 146.098 404.576 146.098C406.414 146.098 407.491 145.681 407.491 144.853C407.491 144.047 406.414 143.608 404.576 143.593C402.723 143.608 401.646 144.047 401.661 144.853ZM423.018 141.718V155.048H421.26V141.718H423.018ZM411.255 150.962C413.958 149.365 415.145 147.424 415.401 144.809H412.032V143.3H417.261C417.261 143.967 417.217 144.611 417.137 145.234H418.462V142.011H420.235V154.463H418.462V150.068H416.573V148.559H418.462V146.743H416.829C416.207 148.947 414.844 150.8 412.354 152.28L411.255 150.962ZM436.041 143.403V144.897H424.952V143.403H429.566V141.85H431.412V143.403H436.041ZM424.424 153.686V152.192H429.566V150.661C427.295 150.456 425.918 149.526 425.933 148.061C425.918 146.443 427.669 145.476 430.489 145.483C433.257 145.476 435.037 146.443 435.03 148.061C435.037 149.526 433.646 150.456 431.412 150.654V152.192H436.626V153.686H424.424ZM427.852 148.061C427.845 148.852 428.76 149.211 430.489 149.204C432.181 149.211 433.111 148.852 433.111 148.061C433.111 147.299 432.181 146.941 430.489 146.933C428.76 146.941 427.845 147.299 427.852 148.061ZM444.463 142.758C444.456 144.333 446.067 146.069 449.122 146.45L448.389 147.959C446.06 147.622 444.354 146.545 443.482 145.102C442.603 146.538 440.904 147.622 438.604 147.959L437.857 146.45C440.889 146.069 442.493 144.333 442.5 142.758V142.114H444.463V142.758ZM437.388 150.493V148.969H449.546V150.493H444.361V155.048H442.515V150.493H437.388ZM456.358 150.024C459.273 150.024 461.104 150.947 461.119 152.544C461.104 154.118 459.273 155.056 456.358 155.048C453.465 155.056 451.604 154.118 451.612 152.544C451.604 150.947 453.465 150.024 456.358 150.024ZM450.381 149.174V147.666H454.922V145.337H456.768V147.666H462.481V149.174H450.381ZM451.744 143.784V142.319H461.045V143.403C461.053 144.465 461.053 145.608 460.665 146.977L458.833 146.801C459.134 145.593 459.17 144.692 459.185 143.784H451.744ZM453.472 152.544C453.465 153.261 454.52 153.628 456.358 153.628C458.196 153.628 459.258 153.261 459.258 152.544C459.258 151.804 458.196 151.408 456.358 151.416C454.52 151.408 453.465 151.804 453.472 152.544ZM474.61 141.733V151.797H472.735V150.742H470.186V149.467H472.735V141.733H474.61ZM463.272 147.636C465.711 147.622 469.007 147.585 471.827 147.241L471.929 148.574C470.875 148.75 469.783 148.874 468.707 148.955V151.489H466.832V153.32H474.903V154.814H464.971V150.83H466.832V149.065C465.638 149.109 464.502 149.116 463.492 149.116L463.272 147.636ZM464.253 144.575C464.253 143.154 465.623 142.18 467.608 142.187C469.542 142.18 470.926 143.154 470.933 144.575C470.926 146.003 469.542 146.926 467.608 146.919C465.623 146.926 464.253 146.003 464.253 144.575ZM466.026 144.575C466.019 145.219 466.656 145.578 467.608 145.571C468.501 145.578 469.146 145.219 469.161 144.575C469.146 143.916 468.501 143.549 467.608 143.549C466.656 143.549 466.019 143.916 466.026 144.575Z" fill="#858585"/>
<path d="M157.949 297.823C160.879 297.816 162.791 298.834 162.798 300.504C162.791 301.976 161.274 302.936 158.872 303.134V304.108H164.028V305.587H151.87V304.108H156.997V303.134C154.595 302.928 153.086 301.976 153.086 300.504C153.086 298.834 154.998 297.816 157.949 297.823ZM153.218 307.99V306.525H162.549V310.89H160.688V307.99H153.218ZM155.034 300.504C155.02 301.273 156.082 301.705 157.949 301.705C159.788 301.705 160.864 301.273 160.864 300.504C160.864 299.691 159.788 299.296 157.949 299.288C156.082 299.296 155.02 299.691 155.034 300.504ZM175.571 298.336V299.537C175.564 300.782 175.564 302.137 175.227 304.005H176.992V305.514H171.792V310.905H169.917V305.514H164.834V304.005H173.33C173.674 302.291 173.704 300.98 173.711 299.83H166.226V298.336H175.571ZM183.804 305.865C186.719 305.865 188.55 306.788 188.564 308.385C188.55 309.96 186.719 310.897 183.804 310.89C180.911 310.897 179.05 309.96 179.058 308.385C179.05 306.788 180.911 305.865 183.804 305.865ZM177.827 305.016V303.507H182.368V301.178H184.214V303.507H189.927V305.016H177.827ZM179.189 299.625V298.16H188.491V299.244C188.499 300.306 188.499 301.449 188.11 302.819L186.279 302.643C186.58 301.434 186.616 300.533 186.631 299.625H179.189ZM180.918 308.385C180.911 309.103 181.965 309.469 183.804 309.469C185.642 309.469 186.704 309.103 186.704 308.385C186.704 307.645 185.642 307.25 183.804 307.257C181.965 307.25 180.911 307.645 180.918 308.385ZM202.056 297.574V307.638H200.181V306.583H197.632V305.309H200.181V297.574H202.056ZM190.718 303.478C193.157 303.463 196.453 303.427 199.272 303.082L199.375 304.415C198.32 304.591 197.229 304.716 196.152 304.796V307.33H194.277V309.161H202.349V310.656H192.417V306.671H194.277V304.906C193.083 304.95 191.948 304.957 190.938 304.957L190.718 303.478ZM191.699 300.416C191.699 298.995 193.069 298.021 195.054 298.029C196.987 298.021 198.372 298.995 198.379 300.416C198.372 301.844 196.987 302.767 195.054 302.76C193.069 302.767 191.699 301.844 191.699 300.416ZM193.472 300.416C193.464 301.061 194.102 301.42 195.054 301.412C195.947 301.42 196.592 301.061 196.606 300.416C196.592 299.757 195.947 299.391 195.054 299.391C194.102 299.391 193.464 299.757 193.472 300.416Z" fill="#858585"/>
<path d="M133.566 423.569C136.43 423.569 138.583 425.019 138.591 427.216C138.583 429.23 136.884 430.578 134.489 430.842V433.119H139.689V434.657H127.487V433.119H132.629V430.842C130.249 430.571 128.557 429.223 128.557 427.216C128.557 425.019 130.703 423.569 133.566 423.569ZM130.402 427.216C130.402 428.622 131.699 429.406 133.566 429.413C135.441 429.406 136.738 428.622 136.745 427.216C136.738 425.883 135.441 425.055 133.566 425.063C131.699 425.055 130.402 425.883 130.402 427.216ZM151.613 422.88V436.24H149.724V422.88H151.613ZM140.847 428.564C140.839 425.656 142.326 423.818 144.377 423.818C146.384 423.818 147.878 425.656 147.878 428.564C147.878 431.493 146.384 433.324 144.377 433.324C142.326 433.324 140.839 431.493 140.847 428.564ZM142.648 428.564C142.641 430.549 143.337 431.633 144.377 431.625C145.388 431.633 146.069 430.549 146.076 428.564C146.069 426.586 145.388 425.502 144.377 425.502C143.337 425.502 142.641 426.586 142.648 428.564ZM164.284 428.842V430.322H160.417V433.163H165.617V434.687H153.415V433.163H158.557V430.322H154.851V423.818H164.182V425.312H156.726V428.842H164.284ZM180.412 422.88V426.147H182.214V427.656H180.412V430.893H178.537V422.88H180.412ZM170.231 430.19V423.715H172.092V425.488H174.816V423.715H176.691V430.19H170.231ZM171.433 432.958V431.479H180.412V436.21H178.537V432.958H171.433ZM172.092 428.71H174.816V426.938H172.092V428.71ZM194.958 428.168V429.648H189.802V430.497H193.479V433.91H186.052V434.716H193.83V436.122H184.221V432.592H191.633V431.904H184.206V430.497H187.927V429.648H182.8V428.168H194.958ZM184.309 427.465V423.261H193.42V427.465H184.309ZM186.14 426.03H191.56V424.711H186.14V426.03ZM203.234 423.847V424.682C203.234 425.605 203.234 426.938 202.927 428.593L201.096 428.417C201.337 427.143 201.396 426.169 201.411 425.37H196.379V423.847H203.234ZM195.588 429.56C196.335 429.56 197.177 429.56 198.063 429.538V426.923H199.924V429.479C201.257 429.421 202.612 429.318 203.864 429.135L203.967 430.483C201.191 430.995 198.071 431.047 195.749 431.054L195.588 429.56ZM197.551 435.976V431.962H199.426V434.482H206.911V435.976H197.551ZM204.582 432.856V422.88H206.501V426.938H208.112V428.505H206.501V432.856H204.582Z" fill="#858585"/>
<path d="M82.9463 394.969C85.8101 394.969 87.9634 396.42 87.9707 398.617C87.9634 400.631 86.2642 401.979 83.8691 402.242V404.52H89.0693V406.058H76.8672V404.52H82.0088V402.242C79.6284 401.971 77.9365 400.624 77.9365 398.617C77.9365 396.42 80.0825 394.969 82.9463 394.969ZM79.7822 398.617C79.7822 400.023 81.0786 400.807 82.9463 400.814C84.8213 400.807 86.1177 400.023 86.125 398.617C86.1177 397.284 84.8213 396.456 82.9463 396.464C81.0786 396.456 79.7822 397.284 79.7822 398.617ZM100.993 394.281V407.64H99.1035V394.281H100.993ZM90.2266 399.965C90.2192 397.057 91.7061 395.219 93.7568 395.219C95.7637 395.219 97.2578 397.057 97.2578 399.965C97.2578 402.894 95.7637 404.725 93.7568 404.725C91.7061 404.725 90.2192 402.894 90.2266 399.965ZM92.0283 399.965C92.021 401.949 92.7168 403.033 93.7568 403.026C94.7676 403.033 95.4487 401.949 95.4561 399.965C95.4487 397.987 94.7676 396.903 93.7568 396.903C92.7168 396.903 92.021 397.987 92.0283 399.965ZM113.664 400.243V401.722H109.797V404.564H114.997V406.088H102.795V404.564H107.937V401.722H104.23V395.219H113.562V396.713H106.105V400.243H113.664Z" fill="#858585"/>
<path d="M194.469 484.909C194.461 487.356 195.575 489.809 197.838 490.769L196.739 492.263C195.216 491.574 194.161 490.241 193.553 488.594C192.953 490.395 191.861 491.845 190.235 492.585L189.107 491.032C191.437 490.051 192.572 487.495 192.579 484.909V482.917H194.469V484.909ZM198.556 495.251V481.892H200.445V495.251H198.556ZM212.911 481.892V487.312H214.654V488.865H212.911V495.222H211.021V481.892H212.911ZM202.086 491.457C203.06 491.457 204.195 491.457 205.382 491.428V490.285C203.968 490.007 203.045 489.106 203.053 487.868C203.045 486.382 204.393 485.364 206.334 485.364C208.238 485.364 209.601 486.382 209.615 487.868C209.601 489.106 208.663 490.014 207.257 490.285V491.362C208.312 491.303 209.374 491.216 210.362 491.076L210.479 492.439C207.645 492.966 204.583 492.988 202.335 492.981L202.086 491.457ZM202.35 484.836V483.371H205.382V481.965H207.257V483.371H210.26V484.836H202.35ZM204.825 487.868C204.818 488.572 205.418 488.952 206.334 488.952C207.22 488.952 207.813 488.572 207.813 487.868C207.813 487.18 207.22 486.792 206.334 486.784C205.418 486.792 204.818 487.18 204.825 487.868ZM226.827 483.576V485.071H215.738V483.576H220.353V482.024H222.198V483.576H226.827ZM215.211 493.86V492.365H220.353V490.835C218.082 490.63 216.705 489.699 216.72 488.235C216.705 486.616 218.456 485.649 221.275 485.656C224.044 485.649 225.824 486.616 225.816 488.235C225.824 489.699 224.432 490.63 222.198 490.827V492.365H227.413V493.86H215.211ZM218.639 488.235C218.631 489.026 219.547 489.385 221.275 489.377C222.967 489.385 223.897 489.026 223.897 488.235C223.897 487.473 222.967 487.114 221.275 487.107C219.547 487.114 218.631 487.473 218.639 488.235ZM199.947 499.892V504.272H201.646V505.81H199.947V510.292H198.072V499.892H199.947ZM189.137 507.553C190.096 507.553 191.209 507.546 192.374 507.509V506.74C190.924 506.535 190.023 505.817 190.03 504.77C190.023 503.451 191.319 502.682 193.297 502.69C195.26 502.682 196.556 503.451 196.563 504.77C196.556 505.81 195.663 506.528 194.234 506.74V507.421C195.326 507.355 196.424 507.253 197.457 507.099L197.589 508.388C194.784 508.93 191.627 508.967 189.327 508.989L189.137 507.553ZM189.488 502.309V500.976H192.374V499.848H194.234V500.976H197.12V502.309H189.488ZM191.012 512.988V509.604H192.887V511.493H200.401V512.988H191.012ZM191.817 504.77C191.81 505.268 192.345 505.553 193.297 505.546C194.234 505.553 194.769 505.268 194.776 504.77C194.769 504.206 194.234 503.935 193.297 503.935C192.345 503.935 191.81 504.206 191.817 504.77ZM213.482 499.906V507.582H211.622V506.279H208.619V504.784H211.622V503.51H208.758C207.923 505.619 206.026 507.077 203.097 507.875L202.364 506.396C205.426 505.597 206.935 504.125 207.198 502.294H203.082V500.8H209.234C209.234 501.232 209.205 501.65 209.139 502.045H211.622V499.906H213.482ZM204.488 510.439C204.481 508.791 206.305 507.751 209.044 507.743C211.747 507.751 213.578 508.791 213.585 510.439C213.578 512.109 211.747 513.163 209.044 513.163C206.305 513.163 204.481 512.109 204.488 510.439ZM206.349 510.439C206.349 511.266 207.352 511.684 209.044 511.684C210.699 511.684 211.703 511.266 211.71 510.439C211.703 509.618 210.699 509.194 209.044 509.208C207.352 509.194 206.349 509.618 206.349 510.439ZM227.398 506.484V507.963H222.374V510.263H220.528V507.963H215.196V506.484H227.398ZM216.632 512.988V509.106H218.492V511.493H226.051V512.988H216.632ZM216.72 505.385V500.478H225.831V505.385H216.72ZM218.551 503.935H224V501.928H218.551V503.935ZM238.839 499.892V505.312H240.582V506.865H238.839V513.222H236.949V499.892H238.839ZM228.014 509.457C228.988 509.457 230.123 509.457 231.31 509.428V508.285C229.896 508.007 228.973 507.106 228.98 505.868C228.973 504.382 230.321 503.364 232.262 503.364C234.166 503.364 235.528 504.382 235.543 505.868C235.528 507.106 234.591 508.014 233.185 508.285V509.362C234.239 509.303 235.301 509.216 236.29 509.076L236.407 510.439C233.573 510.966 230.511 510.988 228.263 510.981L228.014 509.457ZM228.277 502.836V501.371H231.31V499.965H233.185V501.371H236.188V502.836H228.277ZM230.753 505.868C230.746 506.572 231.346 506.952 232.262 506.952C233.148 506.952 233.741 506.572 233.741 505.868C233.741 505.18 233.148 504.792 232.262 504.784C231.346 504.792 230.746 505.18 230.753 505.868ZM252.594 499.892V509.867H250.821V499.892H252.594ZM240.978 506.718C242.794 505.846 243.526 504.103 243.526 502.529V500.785H245.343V502.529C245.335 504.067 246.002 505.597 247.716 506.381L246.676 507.817C245.606 507.319 244.889 506.476 244.449 505.458C243.98 506.623 243.182 507.59 242.003 508.139L240.978 506.718ZM243.556 512.988V508.696H245.431V511.493H252.931V512.988H243.556ZM246.5 504.462V502.939H248.126V500.097H249.898V509.472H248.126V504.462H246.5ZM265.353 499.892V513.251H263.507V506.103H261.163V504.594H263.507V499.892H265.353ZM254.718 510.234V501.005H260.943V502.514H256.578V504.726H260.46V506.191H256.578V508.71C258.431 508.696 259.911 508.63 261.559 508.373L261.749 509.867C259.801 510.16 258.058 510.226 255.772 510.234H254.718Z" fill="#858585"/>
<path d="M74.2227 538.917V552.247H72.3623V545.567H69.7109V544.044H72.3623V538.917H74.2227ZM62.8555 548.468C66.2246 546.805 67.6235 544.696 67.9019 541.773H63.4854V540.308H69.7842C69.7769 544.329 68.4731 547.625 63.8223 549.932L62.8555 548.468ZM88.1094 545.274V546.739H82.9385V547.896H86.6299V552.247H84.7695V549.39H77.2988V547.896H81.0928V546.739H75.9512V545.274H88.1094ZM77.5039 544.395V539.239H79.3496V540.455H84.6963V539.239H86.5566V544.395H77.5039ZM79.3496 542.93H84.6963V541.832H79.3496V542.93ZM100.15 538.917V546.534H98.29V542.755H95.7852V541.246H98.29V538.917H100.15ZM88.8125 544.908C91.0537 544.219 92.0132 542.55 92.0205 540.792V539.517H93.9102V540.909C93.9028 542.491 94.833 544.058 96.9424 544.688L95.9756 546.153C94.5254 545.677 93.522 544.754 92.9507 543.59C92.3647 544.864 91.3174 545.867 89.7793 546.373L88.8125 544.908ZM91.1855 552.1V547.12H100.15V552.1H91.1855ZM93.0605 550.606H98.3193V548.57H93.0605V550.606Z" fill="#858585"/>
<path d="M33.7834 474.143V477.556H31.1467V478.384C32.9412 478.376 33.7322 478.332 34.6331 478.113L34.8235 479.475C33.7102 479.768 32.802 479.79 30.1946 479.782H29.3157V476.296H31.9817V475.549H29.2864V474.143H33.7834ZM28.4807 472.942V467.287H34.8821V472.942H28.4807ZM30.3264 471.462H33.0364V468.752H30.3264V471.462ZM34.3547 475.622V474.143H38.6614V479.812H36.8157V475.622H34.3547ZM36.7864 473.586V466.599H38.6614V469.25H40.4631V470.788H38.6614V473.586H36.7864ZM53.2073 473.41V474.905H41.0491V473.41H53.2073ZM42.2649 469.734C42.2649 468.034 44.1912 466.994 47.1282 467.009C50.0432 466.994 51.9695 468.034 51.9768 469.734C51.9695 471.44 50.0432 472.488 47.1282 472.488C44.1912 472.488 42.2649 471.44 42.2649 469.734ZM42.5139 479.695V475.798H44.3889V478.2H51.8303V479.695H42.5139ZM44.2131 469.734C44.1985 470.561 45.2751 470.979 47.1282 470.979C48.9666 470.979 50.0432 470.561 50.0432 469.734C50.0432 468.928 48.9666 468.489 47.1282 468.474C45.2751 468.489 44.1985 468.928 44.2131 469.734ZM66.1711 471.887V473.366H61.0149V474.216H64.6917V477.629H57.2649V478.435H65.0432V479.841H55.4338V476.311H62.8459V475.622H55.4192V474.216H59.1399V473.366H54.0129V471.887H66.1711ZM55.5217 471.184V466.98H64.6331V471.184H55.5217ZM57.3528 469.748H62.7727V468.43H57.3528V469.748ZM26.4666 486.694C26.4592 488.312 27.4041 489.865 29.5134 490.517L28.5173 491.967C27.1038 491.498 26.115 490.59 25.5437 489.426C24.9651 490.766 23.9324 491.821 22.4089 492.333L21.3982 490.868C23.6248 490.129 24.5769 488.356 24.5916 486.518V485.302H26.4666V486.694ZM23.2439 495.351C23.2366 493.732 25.0017 492.773 27.8142 492.773C30.5754 492.773 32.304 493.732 32.3113 495.351C32.304 496.984 30.5754 497.936 27.8142 497.929C25.0017 497.936 23.2366 496.984 23.2439 495.351ZM25.1189 495.351C25.1042 496.105 26.0637 496.464 27.8142 496.464C29.5427 496.464 30.4656 496.105 30.4656 495.351C30.4656 494.626 29.5427 494.238 27.8142 494.238C26.0637 494.238 25.1042 494.626 25.1189 495.351ZM30.3044 492.509V484.599H32.1794V487.719H33.9812V489.272H32.1794V492.509H30.3044ZM39.4304 486.694C39.4231 488.312 40.3679 489.865 42.4773 490.517L41.4812 491.967C40.0676 491.498 39.0789 490.59 38.5076 489.426C37.929 490.766 36.8962 491.821 35.3728 492.333L34.3621 490.868C36.5886 490.129 37.5408 488.356 37.5554 486.518V485.302H39.4304V486.694ZM36.2078 495.351C36.2004 493.732 37.9656 492.773 40.7781 492.773C43.5393 492.773 45.2678 493.732 45.2751 495.351C45.2678 496.984 43.5393 497.936 40.7781 497.929C37.9656 497.936 36.2004 496.984 36.2078 495.351ZM38.0828 495.351C38.0681 496.105 39.0276 496.464 40.7781 496.464C42.5066 496.464 43.4294 496.105 43.4294 495.351C43.4294 494.626 42.5066 494.238 40.7781 494.238C39.0276 494.238 38.0681 494.626 38.0828 495.351ZM43.2683 492.509V484.599H45.1433V487.719H46.9451V489.272H45.1433V492.509H43.2683ZM58.4441 488.774V490.268H49.0398V485.199H50.9148V488.774H58.4441ZM47.531 493.315V491.791H59.7332V493.315H54.5037V497.929H52.6287V493.315H47.531ZM71.6716 484.599V497.958H69.8113V484.599H71.6716ZM61.198 487.221V485.712H67.5408V490.854H63.1462V493.3C65.1824 493.285 66.9036 493.183 68.8591 492.861L69.0203 494.369C66.8303 494.758 64.8455 494.838 62.4138 494.838H61.2126V489.374H65.6365V487.221H61.198Z" fill="#858585"/>
<path d="M280.207 300.102C280.207 303.5 278.72 305.873 275.256 307.353L274.303 305.99C276.816 304.965 278.017 303.522 278.288 301.581H274.948V300.102H280.207ZM275.973 310.795C278.823 310.414 280.302 308.876 280.309 307.426V307.016H282.155V307.426C282.148 308.876 283.627 310.414 286.476 310.795L285.759 312.245C283.613 311.93 282.045 310.985 281.225 309.696C280.397 310.985 278.844 311.93 276.706 312.245L275.973 310.795ZM281.086 306.415V299.223H282.844V302.211H284.045V298.988H285.817V307.66H284.045V303.734H282.844V306.415H281.086ZM298.019 299.472V300.263C298.012 301.061 298.012 302.123 297.785 303.441L295.939 303.295C296.093 302.343 296.137 301.588 296.152 300.937H288.718V299.472H298.019ZM287.355 305.434V303.983H291.896V302.021H293.742V303.983H299.455V305.434H287.355ZM288.703 307.748V306.269H298.019V309.828H290.578V310.766H298.385V312.201H288.718V308.568H296.174V307.748H288.703ZM265.661 319.347C265.661 320.79 266.408 322.21 268.18 322.892L267.184 324.312C266.042 323.88 265.258 323.089 264.782 322.108C264.299 323.258 263.464 324.217 262.219 324.737L261.208 323.302C263.09 322.474 263.844 320.833 263.844 319.347V317.779H265.661V319.347ZM263.683 327.813C263.676 326.253 265.47 325.316 268.298 325.323C271.11 325.316 272.912 326.253 272.927 327.813C272.912 329.359 271.11 330.311 268.298 330.304C265.47 330.311 263.676 329.359 263.683 327.813ZM265.558 327.813C265.544 328.531 266.547 328.897 268.298 328.897C270.033 328.897 271.037 328.531 271.037 327.813C271.037 327.088 270.033 326.715 268.298 326.715C266.547 326.715 265.544 327.088 265.558 327.813ZM268.224 324.723V317.223H269.968V320.24H271.081V316.988H272.853V325.133H271.081V321.749H269.968V324.723H268.224ZM280.251 318.365V319.845H276.603V321.852H279.987V323.287H276.603V325.689C278.105 325.675 279.203 325.624 280.5 325.44L280.632 326.964C279.094 327.206 277.782 327.257 275.754 327.257H274.816V318.365H280.251ZM281.218 329.688V317.164H282.975V322.145H284.133V316.974H285.92V330.304H284.133V323.639H282.975V329.688H281.218ZM293.332 325.279C296.247 325.279 298.078 326.202 298.093 327.799C298.078 329.374 296.247 330.311 293.332 330.304C290.439 330.311 288.578 329.374 288.586 327.799C288.578 326.202 290.439 325.279 293.332 325.279ZM287.355 324.43V322.921H291.896V320.592H293.742V322.921H299.455V324.43H287.355ZM288.718 319.039V317.574H298.019V318.658C298.027 319.72 298.027 320.863 297.638 322.232L295.807 322.057C296.108 320.848 296.144 319.947 296.159 319.039H288.718ZM290.446 327.799C290.439 328.517 291.493 328.883 293.332 328.883C295.17 328.883 296.232 328.517 296.232 327.799C296.232 327.059 295.17 326.664 293.332 326.671C291.493 326.664 290.439 327.059 290.446 327.799ZM311.584 316.988V327.052H309.709V325.997H307.16V324.723H309.709V316.988H311.584ZM300.246 322.892C302.685 322.877 305.981 322.84 308.801 322.496L308.903 323.829C307.848 324.005 306.757 324.129 305.68 324.21V326.744H303.805V328.575H311.877V330.069H301.945V326.085H303.805V324.32C302.612 324.364 301.476 324.371 300.466 324.371L300.246 322.892ZM301.227 319.83C301.227 318.409 302.597 317.435 304.582 317.442C306.515 317.435 307.9 318.409 307.907 319.83C307.9 321.258 306.515 322.181 304.582 322.174C302.597 322.181 301.227 321.258 301.227 319.83ZM303 319.83C302.992 320.475 303.63 320.833 304.582 320.826C305.475 320.833 306.12 320.475 306.135 319.83C306.12 319.171 305.475 318.805 304.582 318.805C303.63 318.805 302.992 319.171 303 319.83Z" fill="#2F2F2F"/>
<path d="M354.656 208.444V209.279C354.656 210.202 354.656 211.535 354.348 213.19L352.517 213.015C352.759 211.74 352.817 210.766 352.832 209.968H347.8V208.444H354.656ZM347.009 214.157C347.756 214.157 348.598 214.157 349.485 214.135V211.521H351.345V214.077C352.678 214.018 354.033 213.916 355.285 213.732L355.388 215.08C352.612 215.593 349.492 215.644 347.17 215.651L347.009 214.157ZM348.972 220.573V216.56H350.847V219.079H358.332V220.573H348.972ZM356.003 217.453V207.478H357.922V211.535H359.533V213.103H357.922V217.453H356.003ZM372.278 213.601V215.095H360.178V213.601H364.719V211.11H366.565V213.601H372.278ZM361.408 217.731V216.237H370.725V220.808H368.85V217.731H361.408ZM361.54 209.602V208.137H370.842V209.089C370.835 210.078 370.835 211.315 370.52 212.912L368.645 212.736C368.916 211.447 368.967 210.466 368.974 209.602H361.54ZM378.283 211.11C378.276 213.264 379.389 215.571 381.623 216.501L380.613 217.966C379.045 217.299 377.961 215.974 377.361 214.362C376.76 216.113 375.654 217.578 374.079 218.303L373.01 216.823C375.222 215.834 376.365 213.366 376.365 211.11V210.29H373.537V208.767H381.067V210.29H378.283V211.11ZM382.385 220.808V207.478H384.275V220.808H382.385ZM324.839 237.621C322.641 237.614 321.294 236.317 321.294 234.647C321.294 233.41 322.077 232.663 323.235 231.864C322.678 231.154 322.217 230.37 322.217 229.433C322.217 227.895 323.366 226.715 325.102 226.708C326.802 226.715 327.849 227.858 327.842 229.198C327.849 230.202 327.329 231.007 326.435 231.645L325.813 232.099L327.585 234.135C327.864 233.615 328.032 232.992 328.032 232.304H329.834C329.841 233.739 329.468 234.853 328.882 235.629L330.478 237.46H328.208L327.556 236.728C326.78 237.35 325.769 237.614 324.839 237.621ZM323.403 234.53C323.403 235.292 324.004 235.871 324.941 235.863C325.432 235.863 325.93 235.709 326.384 235.424L324.355 233.161L324.282 233.212C323.681 233.644 323.403 234.12 323.403 234.53ZM324.077 229.462C324.084 229.901 324.363 230.348 324.765 230.861L325.322 230.487C325.857 230.15 326.106 229.777 326.098 229.315C326.106 228.905 325.74 228.458 325.117 228.466C324.494 228.466 324.084 228.92 324.077 229.462ZM342.109 225.492V235.233H340.249V232.069H337.202C336.557 232.75 335.635 233.168 334.594 233.168C332.573 233.168 331.035 231.703 331.05 229.726C331.035 227.719 332.573 226.261 334.594 226.254C335.627 226.261 336.55 226.671 337.195 227.353H340.249V225.492H342.109ZM332.822 229.726C332.815 230.839 333.554 231.513 334.594 231.513C335.576 231.513 336.33 230.839 336.338 229.726C336.33 228.598 335.576 227.924 334.594 227.924C333.554 227.924 332.815 228.598 332.822 229.726ZM333.261 238.573V234.252H335.136V237.079H342.431V238.573H333.261ZM338 228.847C338.073 229.125 338.11 229.418 338.11 229.726C338.11 230.019 338.073 230.304 338.008 230.575H340.249V228.847H338ZM354.795 225.917V226.649C354.795 227.499 354.795 228.751 354.385 230.282L352.583 230.077C352.861 228.949 352.942 228.107 352.964 227.411H349.99V225.917H354.795ZM343.867 232.362V230.854H349.228V228.935H351.074V230.854H355.967V232.362H343.867ZM344.819 237.357C347.236 237.13 348.591 236.215 348.899 235.277H345.346V233.856H348.965V232.743H350.854V233.856H354.472V235.277H350.92C351.213 236.215 352.561 237.13 355.029 237.357L354.399 238.749C352.253 238.529 350.715 237.775 349.909 236.728C349.111 237.775 347.573 238.529 345.434 238.749L344.819 237.357ZM344.834 227.411V225.917H348.994V226.605C348.994 227.455 348.994 228.737 348.291 230.312L346.474 230.033C346.95 228.891 347.097 228.07 347.141 227.411H344.834ZM365.649 226.957V228.422H362.441V230.546H365.122V231.967H362.441V234.362C363.869 234.34 364.917 234.267 366.162 234.062L366.323 235.57C364.792 235.849 363.518 235.863 361.562 235.863H360.669V226.957H365.649ZM365.752 231.835V230.341H367.246V225.712H368.989V238.207H367.246V231.835H365.752ZM370.014 238.808V225.478H371.816V238.808H370.014ZM380.049 226.737V235.556H373.647V226.737H380.049ZM375.493 234.076H378.188V228.202H375.493V234.076ZM381.865 238.808V225.478H383.74V230.502H385.703V232.055H383.74V238.808H381.865ZM393.789 226.708V228.202H392.602V234.018C393.144 233.974 393.672 233.922 394.184 233.856L394.287 235.204C391.555 235.68 388.508 235.731 386.216 235.746L386.01 234.223C386.487 234.223 386.999 234.223 387.534 234.215V228.202H386.347V226.708H393.789ZM389.336 234.186C389.819 234.171 390.31 234.149 390.801 234.127V228.202H389.336V234.186ZM394.829 238.808V225.478H396.704V230.546H398.667V232.069H396.704V238.808H394.829ZM410.063 226.649V228.202C410.056 230.143 410.056 231.989 409.448 234.882L407.588 234.706C407.851 233.6 408.005 232.619 408.1 231.718L400.366 232.099L400.132 230.604L408.196 230.312C408.225 229.579 408.232 228.891 408.232 228.202V228.144H400.542V226.649H410.063ZM399.15 237.211V235.688H411.308V237.211H399.15Z" fill="#2F2F2F"/>
</svg>
