<svg width="641" height="571" viewBox="0 0 641 571" fill="none" xmlns="http://www.w3.org/2000/svg">
<path d="M350.04 3.54685C350.04 3.54685 353.348 4.64804 358.448 2.16293C363.548 -0.322191 367.761 -0.396596 367.761 3.79983C367.761 7.99625 374.975 6.88018 377.363 10.4814C379.752 14.0826 379.461 21.8355 383.077 22.3861C386.692 22.9367 406.801 22.6689 411.901 26.5379C417.001 30.407 421.504 35.9575 424.522 35.6748C427.54 35.3921 437.142 34.0379 439.531 35.6748C441.919 37.3117 445.841 43.4129 449.134 41.7611C452.426 40.1093 454.54 37.3266 459.35 40.3772C464.159 43.4278 474.068 47.5796 478.878 45.3623C483.687 43.145 496.905 39.4099 496.598 45.9873C496.292 52.5647 503.812 42.5944 506.201 41.7611C508.59 40.9278 511.608 39.8266 514.012 44.2462C516.417 48.6659 521.517 46.0766 521.824 48.2046C522.13 50.3325 523.325 66.6718 521.824 70.273C521.824 70.273 529.328 74.1569 526.036 76.642C522.744 79.1271 520.629 117.624 520.629 117.624C520.629 117.624 518.822 119.559 524.842 119.841C530.862 120.124 533.847 124.827 530.845 128.145C527.843 131.463 526.036 134.514 529.344 136.999C532.653 139.484 532.007 142.818 532.024 146.687C532.04 150.556 531.442 155.824 537.753 158.324C544.063 160.824 543.757 165.526 542.256 167.46C540.755 169.395 538.657 172.163 540.755 177.148C542.853 182.133 544.063 198.74 546.468 200.139C548.873 201.538 548.276 207.059 555.474 210.392C562.672 213.725 565.383 215.928 566.884 222.297C568.385 228.666 573.791 229.216 578.294 228.115C582.797 227.014 603.229 232.55 603.229 232.55C603.229 232.55 624.274 231.999 637.863 293.085C651.452 354.172 607.28 349.484 603.035 355.749C598.791 362.014 606.44 364.365 593.691 367.49C580.941 370.615 563.107 375.317 563.107 375.317C563.107 375.317 552.956 373.472 552.956 367.044C552.956 360.615 552.294 358.77 544.983 361.225C537.672 363.68 514.416 363.681 514.416 363.681C514.416 363.681 504.119 368.279 497.793 365.823C491.466 363.368 489.481 353.874 482.509 356.329C475.537 358.785 462.238 379.916 462.238 379.916C462.238 379.916 460.237 389.112 456.59 386.344C452.942 383.576 451.942 384.305 447.955 386.865C443.969 389.425 440.983 392.788 436.997 390.942C433.011 389.097 427.685 396.463 427.685 396.463C427.685 396.463 426.022 398.606 418.712 394.618C411.401 390.63 409.738 388.487 398.78 394.618C387.821 400.749 385.159 403.204 386.482 408.71C387.805 414.216 395.116 427.088 392.131 428.621C389.145 430.154 386.482 437.207 378.509 442.713C370.537 448.219 365.211 455.585 365.211 442.713C365.211 442.713 345.279 440.868 334.966 431.686C334.966 431.686 334.966 428.323 329.656 430.764C324.347 433.204 318.698 431.076 318.698 431.076C318.698 431.076 314.05 428.323 309.063 433.829C304.076 439.335 301.09 436.895 301.09 436.895C301.09 436.895 303.092 440.57 299.428 440.57C295.765 440.57 297.766 447.832 292.456 449.871C287.146 451.91 282.482 445.779 273.848 455.288C265.213 464.797 267.537 489.603 262.889 490.213C258.241 490.823 242.619 471.523 237.309 477.654C231.999 483.785 186.794 544.752 177.159 544.454C167.524 544.157 138.28 544.142 122.335 525.451C106.389 506.761 89.1045 508.904 89.1045 508.904C89.1045 508.904 75.4831 513.189 69.4956 508.904C63.508 504.618 40.2517 476.418 47.2237 471.21C54.1958 466.002 80.7929 460.183 92.7519 452.207C104.711 444.231 91.4285 439.335 91.4285 439.335C91.4285 439.335 85.4409 435.05 88.4428 427.073C91.4446 419.097 91.4285 411.136 97.416 413.591C103.404 416.047 103.065 407.46 103.065 407.46C103.065 407.46 101.063 404.097 115.363 405.615C129.662 407.133 126.321 396.419 126.321 396.419C126.321 396.419 166.523 339.127 194.105 310.63C221.686 282.133 221.686 283.056 225.35 285.809C229.014 288.561 231.999 290.094 236.308 292.237C240.617 294.38 244.943 296.835 245.282 293.457C245.621 290.079 235.308 287.029 235.647 281.508C235.986 275.987 230.999 284.261 226.334 280.288C221.67 276.314 233.307 258.844 240.295 251.181C247.283 243.517 251.931 237.088 256.918 240.451C261.905 243.815 270.216 248.413 271.54 242.594C272.863 236.776 259.242 237.073 263.567 229.112C267.892 221.151 276.188 217.773 277.85 207.356C279.513 196.94 280.513 194.187 283.499 190.198C286.485 186.21 275.526 173.651 278.851 168.443C282.175 163.234 292.472 158.338 292.472 158.338C292.472 158.338 298.783 148.532 304.108 149.142C309.434 149.752 310.758 154.35 318.069 149.142C325.38 143.934 330.689 136.27 328.043 127.074C325.396 117.877 329.366 117.267 328.381 108.071C327.397 98.8742 323.072 101.33 325.057 91.8355C327.042 82.3414 332.707 73.145 349.314 72.5349L354.268 71.3147V58.145C354.268 58.145 345.311 54.7819 347.651 46.5081C349.992 38.2343 350.976 34.2462 347.312 28.4278C343.649 22.6093 356.237 25.9724 354.268 17.6986C352.299 9.42483 341.696 4.87126 350.105 3.48733L350.04 3.54685Z" fill="#B6CCE7"/>
<circle cx="331.931" cy="110.44" r="10.7611" fill="#AFAFAF" stroke="#AFAFAF"/>
<circle cx="377.168" cy="132.962" r="10.7611" fill="#AFAFAF" stroke="#AFAFAF"/>
<circle cx="222.285" cy="300.988" r="10.7611" fill="#AFAFAF" stroke="#AFAFAF"/>
<path d="M377.293 132.602L331.017 110.262L223.507 300.658" stroke="#AFAFAF" stroke-width="3"/>
<circle cx="298.772" cy="274.367" r="11.2611" fill="#AFAFAF"/>
<circle cx="371.518" cy="261.187" r="11.2611" fill="#AFAFAF"/>
<circle cx="513.293" cy="296.889" r="11.2611" fill="#AFAFAF"/>
<path d="M371.197 262.162L514.083 296.923L299.812 276.333" stroke="#AFAFAF" stroke-width="3"/>
<circle cx="271.176" cy="278.466" r="10.7611" fill="#AFAFAF" stroke="#AFAFAF"/>
<circle cx="107.483" cy="432.124" r="10.7611" fill="#AFAFAF" stroke="#AFAFAF"/>
<path d="M271.244 278.9L109.325 430.662" stroke="#AFAFAF" stroke-width="3"/>
<circle cx="132.405" cy="497.995" r="44.96" stroke="#FF6D2E" stroke-width="3" stroke-dasharray="6 6"/>
<path d="M365.761 110.79V112.284H353.559V110.79H358.656V107.772H360.517V110.79H365.761ZM353.852 106.644C356.869 106.176 358.568 104.147 358.583 102.264V101.312H360.575V102.264C360.568 104.169 362.289 106.176 365.336 106.644L364.545 108.197C362.201 107.772 360.458 106.52 359.579 104.857C358.708 106.512 356.972 107.78 354.643 108.197L353.852 106.644ZM371.957 101.84V106.981H368.69V109.369C369.958 109.354 371.159 109.303 372.528 109.091L372.66 110.585C370.917 110.878 369.474 110.922 367.826 110.922H366.903V105.487H370.155V103.348H366.889V101.84H371.957ZM373.275 113.236V100.77H374.989V105.59H376.278V100.551H378.051V113.881H376.278V107.098H374.989V113.236H373.275ZM384.408 102.836C384.401 104.542 385.368 106.198 387.528 106.893L386.547 108.358C385.089 107.867 384.079 106.915 383.5 105.699C382.907 107.032 381.845 108.08 380.307 108.607L379.267 107.128C381.544 106.425 382.519 104.637 382.533 102.821V101.371H384.408V102.836ZM381.405 113.646V109.354H383.31V112.152H390.561V113.646H381.405ZM388.188 110.321V100.551H390.062V104.403H391.864V105.985H390.062V110.321H388.188Z" fill="#858585"/>
<path d="M547.324 293.964V295.443H542.168V296.293H545.845V299.706H538.418V300.512H546.196V301.918H536.587V298.388H543.999V297.699H536.572V296.293H540.293V295.443H535.166V293.964H547.324ZM536.675 293.261V289.057H545.786V293.261H536.675ZM538.506 291.825H543.926V290.507H538.506V291.825ZM558.794 288.69V292.074H560.493V293.627H558.794V297.055H556.919V288.69H558.794ZM548.101 295.062C549.031 295.062 550.107 295.055 551.235 295.026V294.103C549.756 293.832 548.782 292.895 548.789 291.62C548.782 290.111 550.166 289.071 552.144 289.071C554.099 289.071 555.491 290.111 555.498 291.62C555.491 292.873 554.539 293.803 553.11 294.088V294.953C554.158 294.894 555.198 294.813 556.172 294.682L556.333 295.971C553.594 296.454 550.547 296.498 548.291 296.498L548.101 295.062ZM549.741 299.633C549.741 298.102 551.484 297.216 554.297 297.216C557.109 297.216 558.838 298.102 558.838 299.633C558.838 301.105 557.109 302.013 554.297 302.006C551.484 302.013 549.741 301.105 549.741 299.633ZM550.532 291.62C550.518 292.382 551.162 292.821 552.144 292.821C553.103 292.821 553.74 292.382 553.74 291.62C553.74 290.873 553.096 290.463 552.144 290.463C551.162 290.463 550.518 290.873 550.532 291.62ZM551.587 299.633C551.572 300.255 552.532 300.585 554.297 300.585C556.025 300.585 556.985 300.255 556.992 299.633C556.985 298.959 556.025 298.637 554.297 298.622C552.532 298.637 551.572 298.959 551.587 299.633ZM572.71 290.36V291.854H561.621V290.36H566.235V288.808H568.081V290.36H572.71ZM561.094 300.644V299.149H566.235V297.619C563.965 297.414 562.588 296.483 562.603 295.019C562.588 293.4 564.338 292.433 567.158 292.44C569.927 292.433 571.707 293.4 571.699 295.019C571.707 296.483 570.315 297.414 568.081 297.611V299.149H573.296V300.644H561.094ZM564.521 295.019C564.514 295.81 565.43 296.168 567.158 296.161C568.85 296.168 569.78 295.81 569.78 295.019C569.78 294.257 568.85 293.898 567.158 293.891C565.43 293.898 564.514 294.257 564.521 295.019ZM581.133 289.716C581.125 291.291 582.737 293.026 585.791 293.407L585.059 294.916C582.729 294.579 581.023 293.502 580.151 292.06C579.272 293.495 577.573 294.579 575.273 294.916L574.526 293.407C577.559 293.026 579.163 291.291 579.17 289.716V289.071H581.133V289.716ZM574.058 297.45V295.927H586.216V297.45H581.03V302.006H579.185V297.45H574.058Z" fill="#858585"/>
<path d="M404.494 124.407C407.358 124.407 409.511 125.857 409.519 128.054C409.511 130.068 407.812 131.416 405.417 131.68V133.958H410.617V135.496H398.415V133.958H403.557V131.68C401.176 131.409 399.484 130.061 399.484 128.054C399.484 125.857 401.63 124.407 404.494 124.407ZM401.33 128.054C401.33 129.461 402.626 130.244 404.494 130.252C406.369 130.244 407.666 129.461 407.673 128.054C407.666 126.721 406.369 125.894 404.494 125.901C402.626 125.894 401.33 126.721 401.33 128.054ZM413.796 124.612V129.57C415.422 129.541 417.172 129.417 419.025 129.036L419.23 130.559C417.055 131.006 414.975 131.116 413.063 131.116H411.921V124.612H413.796ZM413.312 136.814V132.405H415.202V135.32H422.395V136.814H413.312ZM420.08 133.298V123.733H421.955V127.468H423.757V129.036H421.955V133.298H420.08ZM429.265 126.004C429.257 127.71 430.224 129.365 432.385 130.061L431.403 131.526C429.946 131.035 428.935 130.083 428.356 128.867C427.763 130.2 426.701 131.248 425.163 131.775L424.123 130.296C426.401 129.592 427.375 127.805 427.39 125.989V124.539H429.265V126.004ZM426.262 136.814V132.522H428.166V135.32H435.417V136.814H426.262ZM433.044 133.489V123.718H434.919V127.571H436.721V129.153H434.919V133.489H433.044ZM410.573 148.53V150.024H398.415V148.53H410.573ZM399.631 144.853C399.631 143.154 401.557 142.114 404.494 142.129C407.409 142.114 409.335 143.154 409.343 144.853C409.335 146.56 407.409 147.607 404.494 147.607C401.557 147.607 399.631 146.56 399.631 144.853ZM399.88 154.814V150.918H401.755V153.32H409.196V154.814H399.88ZM401.579 144.853C401.564 145.681 402.641 146.098 404.494 146.098C406.333 146.098 407.409 145.681 407.409 144.853C407.409 144.047 406.333 143.608 404.494 143.593C402.641 143.608 401.564 144.047 401.579 144.853ZM422.937 141.718V155.048H421.179V141.718H422.937ZM411.174 150.962C413.876 149.365 415.063 147.424 415.319 144.809H411.95V143.3H417.18C417.18 143.967 417.136 144.611 417.055 145.234H418.381V142.011H420.153V154.463H418.381V150.068H416.491V148.559H418.381V146.743H416.748C416.125 148.947 414.763 150.8 412.272 152.28L411.174 150.962ZM435.959 143.403V144.897H424.87V143.403H429.484V141.85H431.33V143.403H435.959ZM424.343 153.686V152.192H429.484V150.661C427.214 150.456 425.837 149.526 425.852 148.061C425.837 146.443 427.587 145.476 430.407 145.483C433.176 145.476 434.956 146.443 434.948 148.061C434.956 149.526 433.564 150.456 431.33 150.654V152.192H436.545V153.686H424.343ZM427.771 148.061C427.763 148.852 428.679 149.211 430.407 149.204C432.099 149.211 433.029 148.852 433.029 148.061C433.029 147.299 432.099 146.941 430.407 146.933C428.679 146.941 427.763 147.299 427.771 148.061ZM444.382 142.758C444.375 144.333 445.986 146.069 449.04 146.45L448.308 147.959C445.979 147.622 444.272 146.545 443.4 145.102C442.521 146.538 440.822 147.622 438.522 147.959L437.775 146.45C440.808 146.069 442.412 144.333 442.419 142.758V142.114H444.382V142.758ZM437.307 150.493V148.969H449.465V150.493H444.279V155.048H442.434V150.493H437.307ZM456.276 150.024C459.191 150.024 461.022 150.947 461.037 152.544C461.022 154.118 459.191 155.056 456.276 155.048C453.383 155.056 451.523 154.118 451.53 152.544C451.523 150.947 453.383 150.024 456.276 150.024ZM450.3 149.174V147.666H454.841V145.337H456.687V147.666H462.399V149.174H450.3ZM451.662 143.784V142.319H460.964V143.403C460.971 144.465 460.971 145.608 460.583 146.977L458.752 146.801C459.052 145.593 459.089 144.692 459.104 143.784H451.662ZM453.391 152.544C453.383 153.261 454.438 153.628 456.276 153.628C458.115 153.628 459.177 153.261 459.177 152.544C459.177 151.804 458.115 151.408 456.276 151.416C454.438 151.408 453.383 151.804 453.391 152.544ZM474.528 141.733V151.797H472.653V150.742H470.104V149.467H472.653V141.733H474.528ZM463.19 147.636C465.629 147.622 468.925 147.585 471.745 147.241L471.848 148.574C470.793 148.75 469.702 148.874 468.625 148.955V151.489H466.75V153.32H474.821V154.814H464.89V150.83H466.75V149.065C465.556 149.109 464.421 149.116 463.41 149.116L463.19 147.636ZM464.172 144.575C464.172 143.154 465.542 142.18 467.526 142.187C469.46 142.18 470.844 143.154 470.852 144.575C470.844 146.003 469.46 146.926 467.526 146.919C465.542 146.926 464.172 146.003 464.172 144.575ZM465.944 144.575C465.937 145.219 466.574 145.578 467.526 145.571C468.42 145.578 469.064 145.219 469.079 144.575C469.064 143.916 468.42 143.549 467.526 143.549C466.574 143.549 465.937 143.916 465.944 144.575Z" fill="#858585"/>
<path d="M157.867 297.823C160.797 297.816 162.708 298.834 162.716 300.504C162.708 301.976 161.192 302.936 158.79 303.134V304.108H163.946V305.587H151.788V304.108H156.915V303.134C154.513 302.928 153.004 301.976 153.004 300.504C153.004 298.834 154.916 297.816 157.867 297.823ZM153.136 307.99V306.525H162.467V310.89H160.606V307.99H153.136ZM154.952 300.504C154.938 301.273 156 301.705 157.867 301.705C159.706 301.705 160.782 301.273 160.782 300.504C160.782 299.691 159.706 299.296 157.867 299.288C156 299.296 154.938 299.691 154.952 300.504ZM175.489 298.336V299.537C175.482 300.782 175.482 302.137 175.145 304.005H176.91V305.514H171.71V310.905H169.835V305.514H164.752V304.005H173.248C173.592 302.291 173.622 300.98 173.629 299.83H166.144V298.336H175.489ZM183.722 305.865C186.637 305.865 188.468 306.788 188.482 308.385C188.468 309.96 186.637 310.897 183.722 310.89C180.829 310.897 178.968 309.96 178.976 308.385C178.968 306.788 180.829 305.865 183.722 305.865ZM177.745 305.016V303.507H182.286V301.178H184.132V303.507H189.845V305.016H177.745ZM179.107 299.625V298.16H188.409V299.244C188.417 300.306 188.417 301.449 188.028 302.819L186.197 302.643C186.498 301.434 186.534 300.533 186.549 299.625H179.107ZM180.836 308.385C180.829 309.103 181.883 309.469 183.722 309.469C185.56 309.469 186.622 309.103 186.622 308.385C186.622 307.645 185.56 307.25 183.722 307.257C181.883 307.25 180.829 307.645 180.836 308.385ZM201.974 297.574V307.638H200.099V306.583H197.55V305.309H200.099V297.574H201.974ZM190.636 303.478C193.075 303.463 196.371 303.427 199.19 303.082L199.293 304.415C198.238 304.591 197.147 304.716 196.07 304.796V307.33H194.195V309.161H202.267V310.656H192.335V306.671H194.195V304.906C193.001 304.95 191.866 304.957 190.855 304.957L190.636 303.478ZM191.617 300.416C191.617 298.995 192.987 298.021 194.972 298.029C196.905 298.021 198.29 298.995 198.297 300.416C198.29 301.844 196.905 302.767 194.972 302.76C192.987 302.767 191.617 301.844 191.617 300.416ZM193.39 300.416C193.382 301.061 194.02 301.42 194.972 301.412C195.865 301.42 196.51 301.061 196.524 300.416C196.51 299.757 195.865 299.391 194.972 299.391C194.02 299.391 193.382 299.757 193.39 300.416Z" fill="#858585"/>
<path d="M133.484 423.569C136.348 423.569 138.501 425.019 138.509 427.216C138.501 429.23 136.802 430.578 134.407 430.842V433.119H139.607V434.657H127.405V433.119H132.547V430.842C130.167 430.571 128.475 429.223 128.475 427.216C128.475 425.019 130.621 423.569 133.484 423.569ZM130.32 427.216C130.32 428.622 131.617 429.406 133.484 429.413C135.359 429.406 136.656 428.622 136.663 427.216C136.656 425.883 135.359 425.055 133.484 425.063C131.617 425.055 130.32 425.883 130.32 427.216ZM151.531 422.88V436.24H149.642V422.88H151.531ZM140.765 428.564C140.757 425.656 142.244 423.818 144.295 423.818C146.302 423.818 147.796 425.656 147.796 428.564C147.796 431.493 146.302 433.324 144.295 433.324C142.244 433.324 140.757 431.493 140.765 428.564ZM142.566 428.564C142.559 430.549 143.255 431.633 144.295 431.625C145.306 431.633 145.987 430.549 145.994 428.564C145.987 426.586 145.306 425.502 144.295 425.502C143.255 425.502 142.559 426.586 142.566 428.564ZM164.202 428.842V430.322H160.335V433.163H165.535V434.687H153.333V433.163H158.475V430.322H154.769V423.818H164.1V425.312H156.644V428.842H164.202ZM180.33 422.88V426.147H182.132V427.656H180.33V430.893H178.455V422.88H180.33ZM170.149 430.19V423.715H172.01V425.488H174.734V423.715H176.609V430.19H170.149ZM171.351 432.958V431.479H180.33V436.21H178.455V432.958H171.351ZM172.01 428.71H174.734V426.938H172.01V428.71ZM194.876 428.168V429.648H189.72V430.497H193.396V433.91H185.97V434.716H193.748V436.122H184.139V432.592H191.551V431.904H184.124V430.497H187.845V429.648H182.718V428.168H194.876ZM184.227 427.465V423.261H193.338V427.465H184.227ZM186.058 426.03H191.478V424.711H186.058V426.03ZM203.152 423.847V424.682C203.152 425.605 203.152 426.938 202.845 428.593L201.014 428.417C201.255 427.143 201.314 426.169 201.329 425.37H196.297V423.847H203.152ZM195.506 429.56C196.253 429.56 197.095 429.56 197.981 429.538V426.923H199.842V429.479C201.175 429.421 202.53 429.318 203.782 429.135L203.885 430.483C201.109 430.995 197.989 431.047 195.667 431.054L195.506 429.56ZM197.469 435.976V431.962H199.344V434.482H206.829V435.976H197.469ZM204.5 432.856V422.88H206.419V426.938H208.03V428.505H206.419V432.856H204.5Z" fill="#2F2F2F"/>
<path d="M82.8643 394.969C85.728 394.969 87.8813 396.42 87.8887 398.617C87.8813 400.631 86.1821 401.979 83.7871 402.242V404.52H88.9873V406.058H76.7852V404.52H81.9268V402.242C79.5464 401.971 77.8545 400.624 77.8545 398.617C77.8545 396.42 80.0005 394.969 82.8643 394.969ZM79.7002 398.617C79.7002 400.023 80.9966 400.807 82.8643 400.814C84.7393 400.807 86.0356 400.023 86.043 398.617C86.0356 397.284 84.7393 396.456 82.8643 396.464C80.9966 396.456 79.7002 397.284 79.7002 398.617ZM100.911 394.281V407.64H99.0215V394.281H100.911ZM90.1445 399.965C90.1372 397.057 91.624 395.219 93.6748 395.219C95.6816 395.219 97.1758 397.057 97.1758 399.965C97.1758 402.894 95.6816 404.725 93.6748 404.725C91.624 404.725 90.1372 402.894 90.1445 399.965ZM91.9463 399.965C91.939 401.949 92.6348 403.033 93.6748 403.026C94.6855 403.033 95.3667 401.949 95.374 399.965C95.3667 397.987 94.6855 396.903 93.6748 396.903C92.6348 396.903 91.939 397.987 91.9463 399.965ZM113.582 400.243V401.722H109.715V404.564H114.915V406.088H102.713V404.564H107.854V401.722H104.148V395.219H113.479V396.713H106.023V400.243H113.582Z" fill="#858585"/>
<path d="M194.387 484.909C194.379 487.356 195.493 489.809 197.756 490.769L196.657 492.263C195.134 491.574 194.079 490.241 193.471 488.594C192.871 490.395 191.779 491.845 190.153 492.585L189.025 491.032C191.354 490.051 192.49 487.495 192.497 484.909V482.917H194.387V484.909ZM198.474 495.251V481.892H200.363V495.251H198.474ZM212.829 481.892V487.312H214.572V488.865H212.829V495.222H210.939V481.892H212.829ZM202.004 491.457C202.978 491.457 204.113 491.457 205.3 491.428V490.285C203.886 490.007 202.963 489.106 202.971 487.868C202.963 486.382 204.311 485.364 206.252 485.364C208.156 485.364 209.519 486.382 209.533 487.868C209.519 489.106 208.581 490.014 207.175 490.285V491.362C208.229 491.303 209.292 491.216 210.28 491.076L210.397 492.439C207.563 492.966 204.501 492.988 202.253 492.981L202.004 491.457ZM202.268 484.836V483.371H205.3V481.965H207.175V483.371H210.178V484.836H202.268ZM204.743 487.868C204.736 488.572 205.336 488.952 206.252 488.952C207.138 488.952 207.731 488.572 207.731 487.868C207.731 487.18 207.138 486.792 206.252 486.784C205.336 486.792 204.736 487.18 204.743 487.868ZM226.745 483.576V485.071H215.656V483.576H220.271V482.024H222.116V483.576H226.745ZM215.129 493.86V492.365H220.271V490.835C218 490.63 216.623 489.699 216.638 488.235C216.623 486.616 218.374 485.649 221.193 485.656C223.962 485.649 225.742 486.616 225.734 488.235C225.742 489.699 224.35 490.63 222.116 490.827V492.365H227.331V493.86H215.129ZM218.557 488.235C218.549 489.026 219.465 489.385 221.193 489.377C222.885 489.385 223.815 489.026 223.815 488.235C223.815 487.473 222.885 487.114 221.193 487.107C219.465 487.114 218.549 487.473 218.557 488.235ZM199.865 499.892V504.272H201.564V505.81H199.865V510.292H197.99V499.892H199.865ZM189.055 507.553C190.014 507.553 191.127 507.546 192.292 507.509V506.74C190.842 506.535 189.941 505.817 189.948 504.77C189.941 503.451 191.237 502.682 193.215 502.69C195.178 502.682 196.474 503.451 196.481 504.77C196.474 505.81 195.581 506.528 194.152 506.74V507.421C195.244 507.355 196.342 507.253 197.375 507.099L197.507 508.388C194.702 508.93 191.545 508.967 189.245 508.989L189.055 507.553ZM189.406 502.309V500.976H192.292V499.848H194.152V500.976H197.038V502.309H189.406ZM190.93 512.988V509.604H192.805V511.493H200.319V512.988H190.93ZM191.735 504.77C191.728 505.268 192.263 505.553 193.215 505.546C194.152 505.553 194.687 505.268 194.694 504.77C194.687 504.206 194.152 503.935 193.215 503.935C192.263 503.935 191.728 504.206 191.735 504.77ZM213.4 499.906V507.582H211.54V506.279H208.537V504.784H211.54V503.51H208.676C207.841 505.619 205.944 507.077 203.015 507.875L202.282 506.396C205.344 505.597 206.853 504.125 207.116 502.294H203V500.8H209.152C209.152 501.232 209.123 501.65 209.057 502.045H211.54V499.906H213.4ZM204.406 510.439C204.399 508.791 206.223 507.751 208.962 507.743C211.665 507.751 213.496 508.791 213.503 510.439C213.496 512.109 211.665 513.163 208.962 513.163C206.223 513.163 204.399 512.109 204.406 510.439ZM206.267 510.439C206.267 511.266 207.27 511.684 208.962 511.684C210.617 511.684 211.621 511.266 211.628 510.439C211.621 509.618 210.617 509.194 208.962 509.208C207.27 509.194 206.267 509.618 206.267 510.439ZM227.316 506.484V507.963H222.292V510.263H220.446V507.963H215.114V506.484H227.316ZM216.55 512.988V509.106H218.41V511.493H225.969V512.988H216.55ZM216.638 505.385V500.478H225.749V505.385H216.638ZM218.469 503.935H223.918V501.928H218.469V503.935ZM238.757 499.892V505.312H240.5V506.865H238.757V513.222H236.867V499.892H238.757ZM227.932 509.457C228.906 509.457 230.041 509.457 231.228 509.428V508.285C229.814 508.007 228.891 507.106 228.898 505.868C228.891 504.382 230.239 503.364 232.18 503.364C234.084 503.364 235.446 504.382 235.461 505.868C235.446 507.106 234.509 508.014 233.103 508.285V509.362C234.157 509.303 235.219 509.216 236.208 509.076L236.325 510.439C233.491 510.966 230.429 510.988 228.181 510.981L227.932 509.457ZM228.195 502.836V501.371H231.228V499.965H233.103V501.371H236.105V502.836H228.195ZM230.671 505.868C230.664 506.572 231.264 506.952 232.18 506.952C233.066 506.952 233.659 506.572 233.659 505.868C233.659 505.18 233.066 504.792 232.18 504.784C231.264 504.792 230.664 505.18 230.671 505.868ZM252.512 499.892V509.867H250.739V499.892H252.512ZM240.896 506.718C242.712 505.846 243.444 504.103 243.444 502.529V500.785H245.261V502.529C245.253 504.067 245.92 505.597 247.634 506.381L246.594 507.817C245.524 507.319 244.807 506.476 244.367 505.458C243.898 506.623 243.1 507.59 241.921 508.139L240.896 506.718ZM243.474 512.988V508.696H245.349V511.493H252.849V512.988H243.474ZM246.418 504.462V502.939H248.044V500.097H249.816V509.472H248.044V504.462H246.418ZM265.271 499.892V513.251H263.425V506.103H261.081V504.594H263.425V499.892H265.271ZM254.636 510.234V501.005H260.861V502.514H256.496V504.726H260.378V506.191H256.496V508.71C258.349 508.696 259.829 508.63 261.477 508.373L261.667 509.867C259.719 510.16 257.976 510.226 255.69 510.234H254.636Z" fill="#2F2F2F"/>
<path d="M74.1406 538.917V552.247H72.2803V545.567H69.6289V544.044H72.2803V538.917H74.1406ZM62.7734 548.468C66.1426 546.805 67.5415 544.696 67.8198 541.773H63.4033V540.308H69.7021C69.6948 544.329 68.3911 547.625 63.7402 549.932L62.7734 548.468ZM88.0273 545.274V546.739H82.8564V547.896H86.5479V552.247H84.6875V549.39H77.2168V547.896H81.0107V546.739H75.8691V545.274H88.0273ZM77.4219 544.395V539.239H79.2676V540.455H84.6143V539.239H86.4746V544.395H77.4219ZM79.2676 542.93H84.6143V541.832H79.2676V542.93ZM100.068 538.917V546.534H98.208V542.755H95.7031V541.246H98.208V538.917H100.068ZM88.7305 544.908C90.9717 544.219 91.9312 542.55 91.9385 540.792V539.517H93.8281V540.909C93.8208 542.491 94.751 544.058 96.8604 544.688L95.8936 546.153C94.4434 545.677 93.4399 544.754 92.8687 543.59C92.2827 544.864 91.2354 545.867 89.6973 546.373L88.7305 544.908ZM91.1035 552.1V547.12H100.068V552.1H91.1035ZM92.9785 550.606H98.2373V548.57H92.9785V550.606Z" fill="#2F2F2F"/>
<path d="M33.7014 474.143V477.556H31.0647V478.384C32.8591 478.376 33.6501 478.332 34.551 478.113L34.7415 479.475C33.6282 479.768 32.72 479.79 30.1125 479.782H29.2336V476.296H31.8997V475.549H29.2043V474.143H33.7014ZM28.3987 472.942V467.287H34.8V472.942H28.3987ZM30.2444 471.462H32.9543V468.752H30.2444V471.462ZM34.2727 475.622V474.143H38.5793V479.812H36.7336V475.622H34.2727ZM36.7043 473.586V466.599H38.5793V469.25H40.3811V470.788H38.5793V473.586H36.7043ZM53.1252 473.41V474.905H40.967V473.41H53.1252ZM42.1829 469.734C42.1829 468.034 44.1091 466.994 47.0461 467.009C49.9612 466.994 51.8875 468.034 51.8948 469.734C51.8875 471.44 49.9612 472.488 47.0461 472.488C44.1091 472.488 42.1829 471.44 42.1829 469.734ZM42.4319 479.695V475.798H44.3069V478.2H51.7483V479.695H42.4319ZM44.1311 469.734C44.1165 470.561 45.1931 470.979 47.0461 470.979C48.8845 470.979 49.9612 470.561 49.9612 469.734C49.9612 468.928 48.8845 468.489 47.0461 468.474C45.1931 468.489 44.1165 468.928 44.1311 469.734ZM66.0891 471.887V473.366H60.9329V474.216H64.6096V477.629H57.1829V478.435H64.9612V479.841H55.3518V476.311H62.7639V475.622H55.3372V474.216H59.0579V473.366H53.9309V471.887H66.0891ZM55.4397 471.184V466.98H64.551V471.184H55.4397ZM57.2708 469.748H62.6907V468.43H57.2708V469.748ZM26.3845 486.694C26.3772 488.312 27.322 489.865 29.4314 490.517L28.4353 491.967C27.0217 491.498 26.033 490.59 25.4617 489.426C24.8831 490.766 23.8503 491.821 22.3269 492.333L21.3162 490.868C23.5427 490.129 24.4949 488.356 24.5095 486.518V485.302H26.3845V486.694ZM23.1619 495.351C23.1545 493.732 24.9197 492.773 27.7322 492.773C30.4934 492.773 32.2219 493.732 32.2292 495.351C32.2219 496.984 30.4934 497.936 27.7322 497.929C24.9197 497.936 23.1545 496.984 23.1619 495.351ZM25.0369 495.351C25.0222 496.105 25.9817 496.464 27.7322 496.464C29.4607 496.464 30.3835 496.105 30.3835 495.351C30.3835 494.626 29.4607 494.238 27.7322 494.238C25.9817 494.238 25.0222 494.626 25.0369 495.351ZM30.2224 492.509V484.599H32.0974V487.719H33.8992V489.272H32.0974V492.509H30.2224ZM39.3484 486.694C39.3411 488.312 40.2859 489.865 42.3953 490.517L41.3992 491.967C39.9856 491.498 38.9968 490.59 38.4255 489.426C37.8469 490.766 36.8142 491.821 35.2908 492.333L34.28 490.868C36.5066 490.129 37.4587 488.356 37.4734 486.518V485.302H39.3484V486.694ZM36.1257 495.351C36.1184 493.732 37.8835 492.773 40.696 492.773C43.4573 492.773 45.1858 493.732 45.1931 495.351C45.1858 496.984 43.4573 497.936 40.696 497.929C37.8835 497.936 36.1184 496.984 36.1257 495.351ZM38.0007 495.351C37.9861 496.105 38.9456 496.464 40.696 496.464C42.4246 496.464 43.3474 496.105 43.3474 495.351C43.3474 494.626 42.4246 494.238 40.696 494.238C38.9456 494.238 37.9861 494.626 38.0007 495.351ZM43.1863 492.509V484.599H45.0613V487.719H46.863V489.272H45.0613V492.509H43.1863ZM58.3621 488.774V490.268H48.9578V485.199H50.8328V488.774H58.3621ZM47.449 493.315V491.791H59.6511V493.315H54.4216V497.929H52.5466V493.315H47.449ZM71.5896 484.599V497.958H69.7292V484.599H71.5896ZM61.116 487.221V485.712H67.4587V490.854H63.0642V493.3C65.1003 493.285 66.8215 493.183 68.7771 492.861L68.9382 494.369C66.7483 494.758 64.7634 494.838 62.3318 494.838H61.1306V489.374H65.5544V487.221H61.116Z" fill="#2F2F2F"/>
<path d="M280.125 300.102C280.125 303.5 278.638 305.873 275.174 307.353L274.222 305.99C276.734 304.965 277.935 303.522 278.206 301.581H274.866V300.102H280.125ZM275.892 310.795C278.741 310.414 280.22 308.876 280.228 307.426V307.016H282.073V307.426C282.066 308.876 283.546 310.414 286.395 310.795L285.677 312.245C283.531 311.93 281.964 310.985 281.143 309.696C280.316 310.985 278.763 311.93 276.624 312.245L275.892 310.795ZM281.004 306.415V299.223H282.762V302.211H283.963V298.988H285.736V307.66H283.963V303.734H282.762V306.415H281.004ZM297.938 299.472V300.263C297.93 301.061 297.93 302.123 297.703 303.441L295.858 303.295C296.011 302.343 296.055 301.588 296.07 300.937H288.636V299.472H297.938ZM287.274 305.434V303.983H291.815V302.021H293.66V303.983H299.373V305.434H287.274ZM288.621 307.748V306.269H297.938V309.828H290.496V310.766H298.304V312.201H288.636V308.568H296.092V307.748H288.621ZM265.579 319.347C265.579 320.79 266.326 322.21 268.099 322.892L267.103 324.312C265.96 323.88 265.177 323.089 264.7 322.108C264.217 323.258 263.382 324.217 262.137 324.737L261.126 323.302C263.009 322.474 263.763 320.833 263.763 319.347V317.779H265.579V319.347ZM263.602 327.813C263.594 326.253 265.389 325.316 268.216 325.323C271.029 325.316 272.83 326.253 272.845 327.813C272.83 329.359 271.029 330.311 268.216 330.304C265.389 330.311 263.594 329.359 263.602 327.813ZM265.477 327.813C265.462 328.531 266.466 328.897 268.216 328.897C269.952 328.897 270.955 328.531 270.955 327.813C270.955 327.088 269.952 326.715 268.216 326.715C266.466 326.715 265.462 327.088 265.477 327.813ZM268.143 324.723V317.223H269.886V320.24H270.999V316.988H272.772V325.133H270.999V321.749H269.886V324.723H268.143ZM280.169 318.365V319.845H276.522V321.852H279.906V323.287H276.522V325.689C278.023 325.675 279.122 325.624 280.418 325.44L280.55 326.964C279.012 327.206 277.701 327.257 275.672 327.257H274.735V318.365H280.169ZM281.136 329.688V317.164H282.894V322.145H284.051V316.974H285.838V330.304H284.051V323.639H282.894V329.688H281.136ZM293.25 325.279C296.165 325.279 297.996 326.202 298.011 327.799C297.996 329.374 296.165 330.311 293.25 330.304C290.357 330.311 288.497 329.374 288.504 327.799C288.497 326.202 290.357 325.279 293.25 325.279ZM287.274 324.43V322.921H291.815V320.592H293.66V322.921H299.373V324.43H287.274ZM288.636 319.039V317.574H297.938V318.658C297.945 319.72 297.945 320.863 297.557 322.232L295.726 322.057C296.026 320.848 296.063 319.947 296.077 319.039H288.636ZM290.365 327.799C290.357 328.517 291.412 328.883 293.25 328.883C295.089 328.883 296.151 328.517 296.151 327.799C296.151 327.059 295.089 326.664 293.25 326.671C291.412 326.664 290.357 327.059 290.365 327.799ZM311.502 316.988V327.052H309.627V325.997H307.078V324.723H309.627V316.988H311.502ZM300.164 322.892C302.603 322.877 305.899 322.84 308.719 322.496L308.822 323.829C307.767 324.005 306.676 324.129 305.599 324.21V326.744H303.724V328.575H311.795V330.069H301.864V326.085H303.724V324.32C302.53 324.364 301.395 324.371 300.384 324.371L300.164 322.892ZM301.146 319.83C301.146 318.409 302.515 317.435 304.5 317.442C306.434 317.435 307.818 318.409 307.825 319.83C307.818 321.258 306.434 322.181 304.5 322.174C302.515 322.181 301.146 321.258 301.146 319.83ZM302.918 319.83C302.911 320.475 303.548 320.833 304.5 320.826C305.394 320.833 306.038 320.475 306.053 319.83C306.038 319.171 305.394 318.805 304.5 318.805C303.548 318.805 302.911 319.171 302.918 319.83Z" fill="#858585"/>
<path d="M354.574 208.444V209.279C354.574 210.202 354.574 211.535 354.266 213.19L352.435 213.015C352.677 211.74 352.736 210.766 352.75 209.968H347.719V208.444H354.574ZM346.927 214.157C347.675 214.157 348.517 214.157 349.403 214.135V211.521H351.263V214.077C352.596 214.018 353.951 213.916 355.204 213.732L355.306 215.08C352.531 215.593 349.41 215.644 347.089 215.651L346.927 214.157ZM348.89 220.573V216.56H350.765V219.079H358.251V220.573H348.89ZM355.922 217.453V207.478H357.841V211.535H359.452V213.103H357.841V217.453H355.922ZM372.196 213.601V215.095H360.096V213.601H364.637V211.11H366.483V213.601H372.196ZM361.327 217.731V216.237H370.643V220.808H368.768V217.731H361.327ZM361.459 209.602V208.137H370.76V209.089C370.753 210.078 370.753 211.315 370.438 212.912L368.563 212.736C368.834 211.447 368.885 210.466 368.893 209.602H361.459ZM378.202 211.11C378.195 213.264 379.308 215.571 381.542 216.501L380.531 217.966C378.964 217.299 377.88 215.974 377.279 214.362C376.678 216.113 375.573 217.578 373.998 218.303L372.928 216.823C375.14 215.834 376.283 213.366 376.283 211.11V210.29H373.456V208.767H380.985V210.29H378.202V211.11ZM382.303 220.808V207.478H384.193V220.808H382.303ZM324.757 237.621C322.56 237.614 321.212 236.317 321.212 234.647C321.212 233.41 321.996 232.663 323.153 231.864C322.596 231.154 322.135 230.37 322.135 229.433C322.135 227.895 323.285 226.715 325.021 226.708C326.72 226.715 327.767 227.858 327.76 229.198C327.767 230.202 327.247 231.007 326.354 231.645L325.731 232.099L327.504 234.135C327.782 233.615 327.95 232.992 327.95 232.304H329.752C329.76 233.739 329.386 234.853 328.8 235.629L330.397 237.46H328.126L327.474 236.728C326.698 237.35 325.687 237.614 324.757 237.621ZM323.322 234.53C323.322 235.292 323.922 235.871 324.86 235.863C325.35 235.863 325.848 235.709 326.302 235.424L324.274 233.161L324.2 233.212C323.6 233.644 323.322 234.12 323.322 234.53ZM323.995 229.462C324.003 229.901 324.281 230.348 324.684 230.861L325.24 230.487C325.775 230.15 326.024 229.777 326.017 229.315C326.024 228.905 325.658 228.458 325.035 228.466C324.413 228.466 324.003 228.92 323.995 229.462ZM342.028 225.492V235.233H340.167V232.069H337.12C336.476 232.75 335.553 233.168 334.513 233.168C332.491 233.168 330.953 231.703 330.968 229.726C330.953 227.719 332.491 226.261 334.513 226.254C335.546 226.261 336.469 226.671 337.113 227.353H340.167V225.492H342.028ZM332.74 229.726C332.733 230.839 333.473 231.513 334.513 231.513C335.494 231.513 336.249 230.839 336.256 229.726C336.249 228.598 335.494 227.924 334.513 227.924C333.473 227.924 332.733 228.598 332.74 229.726ZM333.18 238.573V234.252H335.055V237.079H342.35V238.573H333.18ZM337.919 228.847C337.992 229.125 338.029 229.418 338.029 229.726C338.029 230.019 337.992 230.304 337.926 230.575H340.167V228.847H337.919ZM354.713 225.917V226.649C354.713 227.499 354.713 228.751 354.303 230.282L352.501 230.077C352.78 228.949 352.86 228.107 352.882 227.411H349.908V225.917H354.713ZM343.785 232.362V230.854H349.147V228.935H350.992V230.854H355.885V232.362H343.785ZM344.738 237.357C347.155 237.13 348.51 236.215 348.817 235.277H345.265V233.856H348.883V232.743H350.773V233.856H354.391V235.277H350.839C351.132 236.215 352.479 237.13 354.948 237.357L354.318 238.749C352.172 238.529 350.634 237.775 349.828 236.728C349.03 237.775 347.491 238.529 345.353 238.749L344.738 237.357ZM344.752 227.411V225.917H348.912V226.605C348.912 227.455 348.912 228.737 348.209 230.312L346.393 230.033C346.869 228.891 347.015 228.07 347.059 227.411H344.752ZM365.568 226.957V228.422H362.36V230.546H365.04V231.967H362.36V234.362C363.788 234.34 364.835 234.267 366.08 234.062L366.241 235.57C364.711 235.849 363.436 235.863 361.481 235.863H360.587V226.957H365.568ZM365.67 231.835V230.341H367.164V225.712H368.907V238.207H367.164V231.835H365.67ZM369.933 238.808V225.478H371.735V238.808H369.933ZM379.967 226.737V235.556H373.566V226.737H379.967ZM375.411 234.076H378.107V228.202H375.411V234.076ZM381.783 238.808V225.478H383.658V230.502H385.621V232.055H383.658V238.808H381.783ZM393.707 226.708V228.202H392.521V234.018C393.063 233.974 393.59 233.922 394.103 233.856L394.205 235.204C391.473 235.68 388.427 235.731 386.134 235.746L385.929 234.223C386.405 234.223 386.918 234.223 387.452 234.215V228.202H386.266V226.708H393.707ZM389.254 234.186C389.738 234.171 390.228 234.149 390.719 234.127V228.202H389.254V234.186ZM394.747 238.808V225.478H396.622V230.546H398.585V232.069H396.622V238.808H394.747ZM409.982 226.649V228.202C409.974 230.143 409.974 231.989 409.366 234.882L407.506 234.706C407.77 233.6 407.924 232.619 408.019 231.718L400.284 232.099L400.05 230.604L408.114 230.312C408.143 229.579 408.151 228.891 408.151 228.202V228.144H400.46V226.649H409.982ZM399.069 237.211V235.688H411.227V237.211H399.069Z" fill="#858585"/>
</svg>
