<svg width="146" height="46" viewBox="0 0 146 46" fill="none" xmlns="http://www.w3.org/2000/svg">
<ellipse cx="25.9869" cy="22.9956" rx="25.1665" ry="22.8359" fill="#29CA78"/>
<ellipse cx="57.5456" cy="22.9956" rx="25.1665" ry="22.8359" fill="#29CA78"/>
<ellipse cx="89.1044" cy="22.9956" rx="25.1665" ry="22.8359" fill="#29CA78"/>
<ellipse cx="120.663" cy="22.9956" rx="25.1665" ry="22.8359" fill="#29CA78"/>
<path d="M27.9587 15.9956H29.4467V29.6596H27.9587V15.9956ZM24.7267 19.1636V16.0756H26.1827V29.4196H24.7267V25.7076H22.5507C22.1187 27.9796 21.1427 29.0196 19.6387 29.0196C17.5747 29.0196 16.4867 27.0836 16.4867 22.6676C16.4867 18.2516 17.5747 16.3156 19.6387 16.3156C21.0467 16.3156 21.9907 17.2116 22.4387 19.1636H24.7267ZM19.6387 27.5796C20.7747 27.5796 21.2867 26.0276 21.2867 22.6676C21.2867 19.3076 20.7747 17.7556 19.6387 17.7556C18.5027 17.7556 17.9747 19.3076 17.9747 22.6676C17.9747 26.0276 18.5027 27.5796 19.6387 27.5796ZM22.7267 24.2516H24.7267V20.6196H22.6787C22.7427 21.2276 22.7747 21.9156 22.7747 22.6676C22.7747 23.2436 22.7587 23.7716 22.7267 24.2516ZM45.9893 18.9396H44.0693V20.9236H45.9893V22.2996H44.0693V24.1556H42.4853V15.9956H44.0693V17.5636H45.9893V18.9396ZM35.9573 23.7236C33.3653 23.7236 31.7173 22.1076 31.7173 19.9316C31.7173 17.7556 33.3653 16.1396 35.9573 16.1396C38.5333 16.1396 40.1813 17.7556 40.1813 19.9316C40.1813 22.1076 38.5333 23.7236 35.9573 23.7236ZM35.9573 17.4676C34.3893 17.4676 33.3013 18.4116 33.3013 19.9316C33.3013 21.4516 34.3893 22.3956 35.9573 22.3956C37.5093 22.3956 38.5973 21.4516 38.5973 19.9316C38.5973 18.4116 37.5093 17.4676 35.9573 17.4676ZM32.6773 26.2836V24.9076H44.0693V29.6596H42.4693V26.2836H32.6773ZM52.6279 15.9636V18.1556H56.2599V19.5636H47.3959V18.1556H51.0119V15.9636H52.6279ZM61.3799 21.5316V23.0516H59.4599V29.6596H57.8759V15.9956H59.4599V21.5316H61.3799ZM51.8279 20.6516C54.0519 20.6516 55.6199 22.3156 55.6199 24.8276C55.6199 27.3396 54.0519 29.0036 51.8279 29.0036C49.6039 29.0036 48.0199 27.3396 48.0199 24.8276C48.0199 22.3156 49.6039 20.6516 51.8279 20.6516ZM51.8279 27.6276C53.0919 27.6276 54.0839 26.5716 54.0839 24.8276C54.0839 23.0836 53.0919 22.0276 51.8279 22.0276C50.5479 22.0276 49.5559 23.0836 49.5559 24.8276C49.5559 26.5716 50.5479 27.6276 51.8279 27.6276ZM73.7465 15.9956H75.3465V29.6596H73.7465V23.0676H71.1225V21.5316H73.7465V15.9956ZM64.7705 27.3876H68.4345C69.7305 27.3876 71.1385 27.1316 71.9705 26.7476V28.1876C71.1385 28.6036 69.6825 28.8436 68.3545 28.8436H63.2025V21.8836H68.6265V17.9476H63.1705V16.4916H70.1945V23.3396H64.7705V27.3876ZM96.6455 21.5316V23.0516H94.7255V29.6596H93.1415V15.9956H94.7255V21.5316H96.6455ZM82.8535 17.9476V16.4916H90.2935V19.7876C90.2935 25.2276 87.4935 28.8116 82.8535 28.8116V27.3076C86.5655 27.2916 88.6775 24.3956 88.6775 19.8196V17.9476H82.8535ZM108.916 29.6596V15.9956H110.5V29.6596H108.916ZM98.3882 28.8116V27.3076C102.116 27.2916 104.356 24.3956 104.356 19.8196V17.9476H98.3882V16.4916H105.972V19.7876C105.972 25.2596 103.06 28.8116 98.3882 28.8116Z" fill="white"/>
<path d="M133.133 23.4906C133.407 23.2172 133.407 22.774 133.133 22.5006L128.679 18.0459C128.405 17.7725 127.962 17.7725 127.689 18.0459C127.415 18.3192 127.415 18.7624 127.689 19.0358L131.648 22.9956L127.689 26.9554C127.415 27.2288 127.415 27.672 127.689 27.9454C127.962 28.2187 128.405 28.2187 128.679 27.9454L133.133 23.4906ZM116.463 23.6956L132.638 23.6956L132.638 22.2956L116.463 22.2956L116.463 23.6956Z" fill="white"/>
</svg>
