<svg width="641" height="571" viewBox="0 0 641 571" fill="none" xmlns="http://www.w3.org/2000/svg">
<path d="M349.93 3.71189C349.93 3.71189 353.239 4.81308 358.339 2.32796C363.438 -0.157152 367.651 -0.231557 367.651 3.96487C367.651 8.16129 374.865 7.04522 377.253 10.6464C379.642 14.2476 379.352 22.0006 382.967 22.5512C386.582 23.1018 406.691 22.8339 411.791 26.7029C416.891 30.572 421.394 36.1226 424.412 35.8398C427.43 35.5571 437.032 34.2029 439.421 35.8398C441.81 37.4767 445.731 43.5779 449.024 41.9261C452.316 40.2744 454.43 37.4916 459.24 40.5422C464.049 43.5928 473.958 47.7446 478.768 45.5273C483.577 43.3101 496.795 39.575 496.488 46.1523C496.182 52.7297 503.703 42.7595 506.091 41.9261C508.48 41.0928 511.498 39.9916 513.902 44.4113C516.307 48.8309 521.407 46.2416 521.714 48.3696C522.02 50.4976 523.215 66.8368 521.714 70.438C521.714 70.438 529.218 74.322 525.926 76.8071C522.634 79.2922 520.52 117.789 520.52 117.789C520.52 117.789 518.712 119.724 524.732 120.006C530.752 120.289 533.737 124.992 530.735 128.31C527.734 131.628 525.926 134.679 529.235 137.164C532.543 139.649 531.898 142.983 531.914 146.852C531.93 150.721 531.333 155.989 537.643 158.489C543.953 160.989 543.647 165.691 542.146 167.625C540.645 169.56 538.547 172.328 540.645 177.313C542.743 182.298 543.953 198.905 546.358 200.304C548.763 201.703 548.166 207.224 555.364 210.557C562.562 213.89 565.273 216.093 566.774 222.462C568.275 228.831 573.681 229.381 578.184 228.28C582.687 227.179 603.119 232.715 603.119 232.715C603.119 232.715 624.164 232.164 637.753 293.25C651.342 354.337 607.17 349.649 602.925 355.914C598.681 362.179 606.331 364.53 593.581 367.655C580.831 370.78 562.997 375.482 562.997 375.482C562.997 375.482 552.846 373.637 552.846 367.209C552.846 360.78 552.184 358.935 544.873 361.39C537.562 363.846 514.306 363.846 514.306 363.846C514.306 363.846 504.009 368.444 497.683 365.988C491.356 363.533 489.371 354.039 482.399 356.494C475.427 358.95 462.129 380.081 462.129 380.081C462.129 380.081 460.127 389.277 456.48 386.509C452.832 383.741 451.832 384.471 447.846 387.03C443.859 389.59 440.874 392.953 436.887 391.107C432.901 389.262 427.575 396.628 427.575 396.628C427.575 396.628 425.913 398.771 418.602 394.783C411.291 390.795 409.628 388.652 398.67 394.783C387.712 400.914 385.049 403.369 386.372 408.875C387.695 414.381 395.006 427.253 392.021 428.786C389.035 430.319 386.372 437.372 378.399 442.878C370.427 448.384 365.101 455.75 365.101 442.878C365.101 442.878 345.169 441.033 334.856 431.851C334.856 431.851 334.856 428.488 329.547 430.929C324.237 433.369 318.588 431.241 318.588 431.241C318.588 431.241 313.94 428.488 308.953 433.994C303.966 439.5 300.981 437.06 300.981 437.06C300.981 437.06 302.982 440.735 299.318 440.735C295.655 440.735 297.656 447.997 292.346 450.036C287.036 452.075 282.372 445.944 273.738 455.453C265.103 464.962 267.428 489.768 262.779 490.378C258.131 490.988 242.509 471.688 237.199 477.819C231.889 483.95 186.684 544.917 177.049 544.619C167.414 544.322 138.17 544.307 122.225 525.616C106.279 506.926 88.9946 509.069 88.9946 509.069C88.9946 509.069 75.3733 513.354 69.3857 509.069C63.3981 504.783 40.1418 476.584 47.1139 471.375C54.0859 466.167 80.683 460.348 92.642 452.372C104.601 444.396 91.3186 439.5 91.3186 439.5C91.3186 439.5 85.331 435.215 88.3329 427.238C91.3347 419.262 91.3186 411.301 97.3062 413.756C103.294 416.212 102.955 407.625 102.955 407.625C102.955 407.625 100.954 404.262 115.253 405.78C129.552 407.298 126.211 396.584 126.211 396.584C126.211 396.584 166.413 339.292 193.995 310.795C221.577 282.298 221.577 283.221 225.24 285.974C228.904 288.727 231.889 290.259 236.199 292.402C240.508 294.545 244.833 297 245.172 293.622C245.511 290.244 235.198 287.194 235.537 281.673C235.876 276.152 230.889 284.426 226.225 280.453C221.56 276.48 233.197 259.009 240.185 251.346C247.173 243.682 251.821 237.253 256.808 240.616C261.795 243.98 270.107 248.578 271.43 242.759C272.753 236.941 259.132 237.238 263.457 229.277C267.783 221.316 276.078 217.938 277.74 207.521C279.403 197.105 280.403 194.352 283.389 190.364C286.375 186.375 275.416 173.816 278.741 168.608C282.066 163.399 292.362 158.503 292.362 158.503C292.362 158.503 298.673 148.697 303.999 149.307C309.324 149.917 310.648 154.515 317.959 149.307C325.27 144.099 330.579 136.435 327.933 127.239C325.286 118.042 329.256 117.432 328.272 108.236C327.287 99.0392 322.962 101.495 324.947 92.0005C326.932 82.5065 332.597 73.31 349.204 72.6999L354.159 71.4797V58.3101C354.159 58.3101 345.201 54.947 347.542 46.6732C349.882 38.3994 350.866 34.4113 347.203 28.5928C343.539 22.7744 356.128 26.1375 354.159 17.8637C352.19 9.58987 341.586 5.0363 349.995 3.65237L349.93 3.71189Z" fill="#B6CCE7"/>
<circle cx="331.821" cy="110.605" r="11.2611" fill="#AFAFAF"/>
<circle cx="377.058" cy="133.127" r="11.2611" fill="#AFAFAF"/>
<circle cx="222.175" cy="301.153" r="11.2611" fill="#AFAFAF"/>
<path d="M377.183 132.767L330.907 110.427L223.397 300.823" stroke="#AFAFAF" stroke-width="3"/>
<circle cx="298.662" cy="274.532" r="11.2611" fill="#AFAFAF"/>
<circle cx="371.408" cy="261.352" r="11.2611" fill="#AFAFAF"/>
<circle cx="513.183" cy="297.054" r="11.2611" fill="#AFAFAF"/>
<path d="M371.087 262.327L513.973 297.088L299.703 276.498" stroke="#AFAFAF" stroke-width="3"/>
<circle cx="271.066" cy="278.631" r="10.7611" fill="#00B15C" stroke="#00B15C"/>
<circle cx="107.373" cy="432.289" r="10.7611" fill="#00B15C" stroke="#00B15C"/>
<path d="M271.134 279.065L109.215 430.827" stroke="#00B15C" stroke-width="3"/>
<circle cx="132.295" cy="498.16" r="44.96" stroke="#AFAFAF" stroke-width="3" stroke-dasharray="6 6"/>
<path d="M365.651 110.955V112.449H353.449V110.955H358.546V107.937H360.407V110.955H365.651ZM353.742 106.809C356.759 106.341 358.458 104.312 358.473 102.429V101.477H360.465V102.429C360.458 104.334 362.179 106.341 365.226 106.809L364.435 108.362C362.091 107.937 360.348 106.685 359.469 105.022C358.598 106.677 356.862 107.945 354.533 108.362L353.742 106.809ZM371.847 102.005V107.146H368.581V109.534C369.848 109.519 371.049 109.468 372.418 109.256L372.55 110.75C370.807 111.043 369.364 111.087 367.716 111.087H366.793V105.652H370.045V103.513H366.779V102.005H371.847ZM373.166 113.401V100.935H374.879V105.755H376.168V100.716H377.941V114.046H376.168V107.263H374.879V113.401H373.166ZM384.298 103.001C384.291 104.707 385.258 106.363 387.418 107.058L386.437 108.523C384.979 108.032 383.969 107.08 383.39 105.865C382.797 107.198 381.735 108.245 380.197 108.772L379.157 107.293C381.435 106.59 382.409 104.802 382.423 102.986V101.536H384.298V103.001ZM381.295 113.811V109.519H383.2V112.317H390.451V113.811H381.295ZM388.078 110.486V100.716H389.953V104.568H391.754V106.15H389.953V110.486H388.078Z" fill="#858585"/>
<path d="M547.214 294.129V295.608H542.058V296.458H545.735V299.871H538.308V300.677H546.086V302.083H536.477V298.553H543.889V297.864H536.462V296.458H540.183V295.608H535.056V294.129H547.214ZM536.565 293.426V289.222H545.676V293.426H536.565ZM538.396 291.99H543.816V290.672H538.396V291.99ZM558.684 288.855V292.239H560.383V293.792H558.684V297.22H556.809V288.855H558.684ZM547.991 295.228C548.921 295.228 549.998 295.22 551.125 295.191V294.268C549.646 293.997 548.672 293.06 548.679 291.785C548.672 290.276 550.056 289.236 552.034 289.236C553.989 289.236 555.381 290.276 555.388 291.785C555.381 293.038 554.429 293.968 553 294.253V295.118C554.048 295.059 555.088 294.979 556.062 294.847L556.223 296.136C553.484 296.619 550.437 296.663 548.181 296.663L547.991 295.228ZM549.631 299.798C549.631 298.267 551.375 297.381 554.187 297.381C557 297.381 558.728 298.267 558.728 299.798C558.728 301.27 557 302.178 554.187 302.171C551.375 302.178 549.631 301.27 549.631 299.798ZM550.422 291.785C550.408 292.547 551.052 292.986 552.034 292.986C552.993 292.986 553.63 292.547 553.63 291.785C553.63 291.038 552.986 290.628 552.034 290.628C551.052 290.628 550.408 291.038 550.422 291.785ZM551.477 299.798C551.462 300.42 552.422 300.75 554.187 300.75C555.916 300.75 556.875 300.42 556.882 299.798C556.875 299.124 555.916 298.802 554.187 298.787C552.422 298.802 551.462 299.124 551.477 299.798ZM572.6 290.525V292.02H561.511V290.525H566.125V288.973H567.971V290.525H572.6ZM560.984 300.809V299.314H566.125V297.784C563.855 297.579 562.478 296.648 562.493 295.184C562.478 293.565 564.229 292.598 567.048 292.605C569.817 292.598 571.597 293.565 571.589 295.184C571.597 296.648 570.205 297.579 567.971 297.776V299.314H573.186V300.809H560.984ZM564.412 295.184C564.404 295.975 565.32 296.333 567.048 296.326C568.74 296.333 569.67 295.975 569.67 295.184C569.67 294.422 568.74 294.063 567.048 294.056C565.32 294.063 564.404 294.422 564.412 295.184ZM581.023 289.881C581.016 291.456 582.627 293.191 585.681 293.572L584.949 295.081C582.62 294.744 580.913 293.667 580.042 292.225C579.163 293.66 577.463 294.744 575.164 295.081L574.417 293.572C577.449 293.191 579.053 291.456 579.06 289.881V289.236H581.023V289.881ZM573.948 297.615V296.092H586.106V297.615H580.92V302.171H579.075V297.615H573.948Z" fill="#858585"/>
<path d="M404.384 124.572C407.248 124.572 409.401 126.022 409.409 128.219C409.401 130.234 407.702 131.581 405.307 131.845V134.123H410.507V135.661H398.305V134.123H403.447V131.845C401.066 131.574 399.375 130.226 399.375 128.219C399.375 126.022 401.521 124.572 404.384 124.572ZM401.22 128.219C401.22 129.626 402.517 130.409 404.384 130.417C406.259 130.409 407.556 129.626 407.563 128.219C407.556 126.886 406.259 126.059 404.384 126.066C402.517 126.059 401.22 126.886 401.22 128.219ZM413.686 124.777V129.735C415.312 129.706 417.062 129.582 418.916 129.201L419.121 130.724C416.945 131.171 414.865 131.281 412.954 131.281H411.811V124.777H413.686ZM413.203 136.979V132.57H415.092V135.485H422.285V136.979H413.203ZM419.97 133.464V123.898H421.845V127.633H423.647V129.201H421.845V133.464H419.97ZM429.155 126.169C429.147 127.875 430.114 129.53 432.275 130.226L431.293 131.691C429.836 131.2 428.825 130.248 428.247 129.032C427.653 130.365 426.591 131.413 425.053 131.94L424.013 130.461C426.291 129.757 427.265 127.97 427.28 126.154V124.704H429.155V126.169ZM426.152 136.979V132.687H428.056V135.485H435.307V136.979H426.152ZM432.934 133.654V123.883H434.809V127.736H436.611V129.318H434.809V133.654H432.934ZM410.463 148.695V150.189H398.305V148.695H410.463ZM399.521 145.018C399.521 143.319 401.447 142.279 404.384 142.294C407.299 142.279 409.226 143.319 409.233 145.018C409.226 146.725 407.299 147.772 404.384 147.772C401.447 147.772 399.521 146.725 399.521 145.018ZM399.77 154.979V151.083H401.645V153.485H409.086V154.979H399.77ZM401.469 145.018C401.455 145.846 402.531 146.263 404.384 146.263C406.223 146.263 407.299 145.846 407.299 145.018C407.299 144.213 406.223 143.773 404.384 143.758C402.531 143.773 401.455 144.213 401.469 145.018ZM422.827 141.883V155.214H421.069V141.883H422.827ZM411.064 151.127C413.767 149.53 414.953 147.589 415.209 144.974H411.84V143.465H417.07C417.07 144.132 417.026 144.776 416.945 145.399H418.271V142.176H420.043V154.628H418.271V150.233H416.381V148.724H418.271V146.908H416.638C416.015 149.112 414.653 150.965 412.163 152.445L411.064 151.127ZM435.849 143.568V145.062H424.76V143.568H429.375V142.015H431.22V143.568H435.849ZM424.233 153.851V152.357H429.375V150.826C427.104 150.621 425.727 149.691 425.742 148.226C425.727 146.608 427.478 145.641 430.297 145.648C433.066 145.641 434.846 146.608 434.838 148.226C434.846 149.691 433.454 150.621 431.22 150.819V152.357H436.435V153.851H424.233ZM427.661 148.226C427.653 149.017 428.569 149.376 430.297 149.369C431.989 149.376 432.919 149.017 432.919 148.226C432.919 147.464 431.989 147.106 430.297 147.098C428.569 147.106 427.653 147.464 427.661 148.226ZM444.272 142.923C444.265 144.498 445.876 146.234 448.93 146.615L448.198 148.124C445.869 147.787 444.162 146.71 443.291 145.267C442.412 146.703 440.712 147.787 438.413 148.124L437.666 146.615C440.698 146.234 442.302 144.498 442.309 142.923V142.279H444.272V142.923ZM437.197 150.658V149.134H449.355V150.658H444.169V155.214H442.324V150.658H437.197ZM456.167 150.189C459.082 150.189 460.913 151.112 460.927 152.709C460.913 154.283 459.082 155.221 456.167 155.214C453.273 155.221 451.413 154.283 451.42 152.709C451.413 151.112 453.273 150.189 456.167 150.189ZM450.19 149.339V147.831H454.731V145.502H456.577V147.831H462.29V149.339H450.19ZM451.552 143.949V142.484H460.854V143.568C460.861 144.63 460.861 145.773 460.473 147.142L458.642 146.966C458.942 145.758 458.979 144.857 458.994 143.949H451.552ZM453.281 152.709C453.273 153.426 454.328 153.793 456.167 153.793C458.005 153.793 459.067 153.426 459.067 152.709C459.067 151.969 458.005 151.573 456.167 151.581C454.328 151.573 453.273 151.969 453.281 152.709ZM474.418 141.898V151.962H472.543V150.907H469.995V149.632H472.543V141.898H474.418ZM463.081 147.801C465.52 147.787 468.815 147.75 471.635 147.406L471.738 148.739C470.683 148.915 469.592 149.039 468.515 149.12V151.654H466.64V153.485H474.711V154.979H464.78V150.995H466.64V149.23C465.446 149.274 464.311 149.281 463.3 149.281L463.081 147.801ZM464.062 144.74C464.062 143.319 465.432 142.345 467.417 142.352C469.35 142.345 470.734 143.319 470.742 144.74C470.734 146.168 469.35 147.091 467.417 147.084C465.432 147.091 464.062 146.168 464.062 144.74ZM465.834 144.74C465.827 145.384 466.464 145.743 467.417 145.736C468.31 145.743 468.955 145.384 468.969 144.74C468.955 144.081 468.31 143.714 467.417 143.714C466.464 143.714 465.827 144.081 465.834 144.74Z" fill="#858585"/>
<path d="M157.757 297.989C160.687 297.981 162.599 298.999 162.606 300.669C162.599 302.141 161.083 303.101 158.68 303.299V304.273H163.836V305.752H151.678V304.273H156.805V303.299C154.403 303.094 152.894 302.141 152.894 300.669C152.894 298.999 154.806 297.981 157.757 297.989ZM153.026 308.155V306.69H162.357V311.055H160.497V308.155H153.026ZM154.842 300.669C154.828 301.438 155.89 301.87 157.757 301.87C159.596 301.87 160.672 301.438 160.672 300.669C160.672 299.856 159.596 299.461 157.757 299.453C155.89 299.461 154.828 299.856 154.842 300.669ZM175.379 298.501V299.702C175.372 300.948 175.372 302.302 175.035 304.17H176.8V305.679H171.6V311.07H169.725V305.679H164.642V304.17H173.138C173.482 302.456 173.512 301.145 173.519 299.995H166.034V298.501H175.379ZM183.612 306.031C186.527 306.031 188.358 306.953 188.373 308.55C188.358 310.125 186.527 311.062 183.612 311.055C180.719 311.062 178.858 310.125 178.866 308.55C178.858 306.953 180.719 306.031 183.612 306.031ZM177.635 305.181V303.672H182.176V301.343H184.022V303.672H189.735V305.181H177.635ZM178.998 299.79V298.325H188.299V299.409C188.307 300.471 188.307 301.614 187.918 302.984L186.087 302.808C186.388 301.599 186.424 300.698 186.439 299.79H178.998ZM180.726 308.55C180.719 309.268 181.773 309.634 183.612 309.634C185.45 309.634 186.512 309.268 186.512 308.55C186.512 307.81 185.45 307.415 183.612 307.422C181.773 307.415 180.719 307.81 180.726 308.55ZM201.864 297.74V307.803H199.989V306.748H197.44V305.474H199.989V297.74H201.864ZM190.526 303.643C192.965 303.628 196.261 303.592 199.081 303.247L199.183 304.58C198.128 304.756 197.037 304.881 195.96 304.961V307.495H194.085V309.326H202.157V310.821H192.225V306.836H194.085V305.071C192.892 305.115 191.756 305.122 190.746 305.122L190.526 303.643ZM191.507 300.581C191.507 299.16 192.877 298.186 194.862 298.194C196.795 298.186 198.18 299.16 198.187 300.581C198.18 302.01 196.795 302.932 194.862 302.925C192.877 302.932 191.507 302.01 191.507 300.581ZM193.28 300.581C193.272 301.226 193.91 301.585 194.862 301.577C195.755 301.585 196.4 301.226 196.415 300.581C196.4 299.922 195.755 299.556 194.862 299.556C193.91 299.556 193.272 299.922 193.28 300.581Z" fill="#858585"/>
<path d="M133.375 423.734C136.238 423.734 138.392 425.184 138.399 427.381C138.392 429.395 136.692 430.743 134.297 431.007V433.284H139.498V434.823H127.295V433.284H132.437V431.007C130.057 430.736 128.365 429.388 128.365 427.381C128.365 425.184 130.511 423.734 133.375 423.734ZM130.21 427.381C130.21 428.787 131.507 429.571 133.375 429.578C135.25 429.571 136.546 428.787 136.553 427.381C136.546 426.048 135.25 425.22 133.375 425.228C131.507 425.22 130.21 426.048 130.21 427.381ZM151.421 423.045V436.405H149.532V423.045H151.421ZM140.655 428.729C140.647 425.821 142.134 423.983 144.185 423.983C146.192 423.983 147.686 425.821 147.686 428.729C147.686 431.658 146.192 433.49 144.185 433.49C142.134 433.49 140.647 431.658 140.655 428.729ZM142.457 428.729C142.449 430.714 143.145 431.798 144.185 431.79C145.196 431.798 145.877 430.714 145.884 428.729C145.877 426.751 145.196 425.667 144.185 425.667C143.145 425.667 142.449 426.751 142.457 428.729ZM164.092 429.007V430.487H160.225V433.328H165.425V434.852H153.223V433.328H158.365V430.487H154.659V423.983H163.99V425.477H156.534V429.007H164.092ZM180.22 423.045V426.312H182.022V427.821H180.22V431.058H178.345V423.045H180.22ZM170.04 430.355V423.88H171.9V425.653H174.625V423.88H176.5V430.355H170.04ZM171.241 433.123V431.644H180.22V436.375H178.345V433.123H171.241ZM171.9 428.875H174.625V427.103H171.9V428.875ZM194.766 428.333V429.813H189.61V430.662H193.287V434.075H185.86V434.881H193.638V436.287H184.029V432.757H191.441V432.069H184.014V430.662H187.735V429.813H182.608V428.333H194.766ZM184.117 427.63V423.426H193.228V427.63H184.117ZM185.948 426.195H191.368V424.876H185.948V426.195ZM203.042 424.012V424.847C203.042 425.77 203.042 427.103 202.735 428.758L200.904 428.582C201.146 427.308 201.204 426.334 201.219 425.535H196.187V424.012H203.042ZM195.396 429.725C196.143 429.725 196.985 429.725 197.872 429.703V427.088H199.732V429.644C201.065 429.586 202.42 429.483 203.672 429.3L203.775 430.648C200.999 431.16 197.879 431.212 195.557 431.219L195.396 429.725ZM197.359 436.141V432.127H199.234V434.647H206.719V436.141H197.359ZM204.39 433.021V423.045H206.309V427.103H207.92V428.67H206.309V433.021H204.39Z" fill="#2F2F2F"/>
<path d="M82.7544 395.135C85.6182 395.135 87.7715 396.585 87.7788 398.782C87.7715 400.796 86.0723 402.144 83.6772 402.407V404.685H88.8774V406.223H76.6753V404.685H81.8169V402.407C79.4365 402.136 77.7446 400.789 77.7446 398.782C77.7446 396.585 79.8906 395.135 82.7544 395.135ZM79.5903 398.782C79.5903 400.188 80.8867 400.972 82.7544 400.979C84.6294 400.972 85.9258 400.188 85.9331 398.782C85.9258 397.449 84.6294 396.621 82.7544 396.629C80.8867 396.621 79.5903 397.449 79.5903 398.782ZM100.801 394.446V407.805H98.9116V394.446H100.801ZM90.0347 400.13C90.0273 397.222 91.5142 395.384 93.5649 395.384C95.5718 395.384 97.0659 397.222 97.0659 400.13C97.0659 403.059 95.5718 404.89 93.5649 404.89C91.5142 404.89 90.0273 403.059 90.0347 400.13ZM91.8364 400.13C91.8291 402.115 92.5249 403.198 93.5649 403.191C94.5757 403.198 95.2568 402.115 95.2642 400.13C95.2568 398.152 94.5757 397.068 93.5649 397.068C92.5249 397.068 91.8291 398.152 91.8364 400.13ZM113.472 400.408V401.887H109.605V404.729H114.805V406.253H102.603V404.729H107.745V401.887H104.039V395.384H113.37V396.878H105.914V400.408H113.472Z" fill="#2F2F2F"/>
<path d="M194.277 485.074C194.27 487.521 195.383 489.974 197.646 490.934L196.547 492.428C195.024 491.74 193.969 490.406 193.361 488.759C192.761 490.56 191.669 492.01 190.043 492.75L188.916 491.198C191.245 490.216 192.38 487.66 192.387 485.074V483.082H194.277V485.074ZM198.364 495.416V482.057H200.253V495.416H198.364ZM212.719 482.057V487.477H214.462V489.03H212.719V495.387H210.83V482.057H212.719ZM201.894 491.622C202.868 491.622 204.003 491.622 205.19 491.593V490.45C203.776 490.172 202.854 489.271 202.861 488.033C202.854 486.547 204.201 485.529 206.142 485.529C208.046 485.529 209.409 486.547 209.423 488.033C209.409 489.271 208.471 490.179 207.065 490.45V491.527C208.12 491.469 209.182 491.381 210.17 491.241L210.288 492.604C207.453 493.131 204.392 493.153 202.143 493.146L201.894 491.622ZM202.158 485.001V483.536H205.19V482.13H207.065V483.536H210.068V485.001H202.158ZM204.633 488.033C204.626 488.737 205.227 489.117 206.142 489.117C207.028 489.117 207.622 488.737 207.622 488.033C207.622 487.345 207.028 486.957 206.142 486.949C205.227 486.957 204.626 487.345 204.633 488.033ZM226.635 483.741V485.236H215.546V483.741H220.161V482.189H222.006V483.741H226.635ZM215.019 494.025V492.531H220.161V491C217.89 490.795 216.513 489.865 216.528 488.4C216.513 486.781 218.264 485.814 221.083 485.822C223.852 485.814 225.632 486.781 225.625 488.4C225.632 489.865 224.24 490.795 222.006 490.992V492.531H227.221V494.025H215.019ZM218.447 488.4C218.439 489.191 219.355 489.55 221.083 489.542C222.775 489.55 223.706 489.191 223.706 488.4C223.706 487.638 222.775 487.279 221.083 487.272C219.355 487.279 218.439 487.638 218.447 488.4ZM199.755 500.057V504.437H201.455V505.975H199.755V510.457H197.88V500.057H199.755ZM188.945 507.718C189.904 507.718 191.018 507.711 192.182 507.674V506.905C190.732 506.7 189.831 505.982 189.838 504.935C189.831 503.616 191.127 502.847 193.105 502.855C195.068 502.847 196.364 503.616 196.372 504.935C196.364 505.975 195.471 506.693 194.042 506.905V507.586C195.134 507.52 196.232 507.418 197.265 507.264L197.397 508.553C194.592 509.095 191.435 509.132 189.135 509.154L188.945 507.718ZM189.296 502.474V501.141H192.182V500.013H194.042V501.141H196.928V502.474H189.296ZM190.82 513.153V509.769H192.695V511.658H200.209V513.153H190.82ZM191.625 504.935C191.618 505.433 192.153 505.719 193.105 505.711C194.042 505.719 194.577 505.433 194.584 504.935C194.577 504.371 194.042 504.1 193.105 504.1C192.153 504.1 191.618 504.371 191.625 504.935ZM213.291 500.072V507.747H211.43V506.444H208.427V504.949H211.43V503.675H208.566C207.731 505.784 205.834 507.242 202.905 508.04L202.172 506.561C205.234 505.762 206.743 504.29 207.006 502.459H202.89V500.965H209.042C209.042 501.397 209.013 501.815 208.947 502.21H211.43V500.072H213.291ZM204.296 510.604C204.289 508.956 206.113 507.916 208.852 507.908C211.555 507.916 213.386 508.956 213.393 510.604C213.386 512.274 211.555 513.328 208.852 513.328C206.113 513.328 204.289 512.274 204.296 510.604ZM206.157 510.604C206.157 511.431 207.16 511.849 208.852 511.849C210.507 511.849 211.511 511.431 211.518 510.604C211.511 509.783 210.507 509.359 208.852 509.373C207.16 509.359 206.157 509.783 206.157 510.604ZM227.207 506.649V508.128H222.182V510.428H220.336V508.128H215.004V506.649H227.207ZM216.44 513.153V509.271H218.3V511.658H225.859V513.153H216.44ZM216.528 505.55V500.643H225.639V505.55H216.528ZM218.359 504.1H223.808V502.093H218.359V504.1ZM238.647 500.057V505.477H240.39V507.03H238.647V513.387H236.757V500.057H238.647ZM227.822 509.622C228.796 509.622 229.931 509.622 231.118 509.593V508.45C229.704 508.172 228.781 507.271 228.789 506.033C228.781 504.547 230.129 503.529 232.07 503.529C233.974 503.529 235.336 504.547 235.351 506.033C235.336 507.271 234.399 508.179 232.993 508.45V509.527C234.047 509.469 235.109 509.381 236.098 509.241L236.215 510.604C233.381 511.131 230.319 511.153 228.071 511.146L227.822 509.622ZM228.085 503.001V501.536H231.118V500.13H232.993V501.536H235.996V503.001H228.085ZM230.561 506.033C230.554 506.737 231.154 507.117 232.07 507.117C232.956 507.117 233.549 506.737 233.549 506.033C233.549 505.345 232.956 504.957 232.07 504.949C231.154 504.957 230.554 505.345 230.561 506.033ZM252.402 500.057V510.032H250.629V500.057H252.402ZM240.786 506.883C242.602 506.011 243.334 504.268 243.334 502.694V500.95H245.151V502.694C245.144 504.232 245.81 505.762 247.524 506.546L246.484 507.982C245.415 507.484 244.697 506.641 244.257 505.623C243.789 506.788 242.99 507.755 241.811 508.304L240.786 506.883ZM243.364 513.153V508.861H245.239V511.658H252.739V513.153H243.364ZM246.308 504.627V503.104H247.934V500.262H249.707V509.637H247.934V504.627H246.308ZM265.161 500.057V513.416H263.315V506.268H260.971V504.759H263.315V500.057H265.161ZM254.526 510.399V501.17H260.751V502.679H256.386V504.891H260.268V506.356H256.386V508.875C258.239 508.861 259.719 508.795 261.367 508.538L261.557 510.032C259.609 510.325 257.866 510.391 255.581 510.399H254.526Z" fill="#858585"/>
<path d="M74.0308 539.082V552.412H72.1704V545.732H69.519V544.209H72.1704V539.082H74.0308ZM62.6636 548.633C66.0327 546.97 67.4316 544.861 67.71 541.938H63.2935V540.473H69.5923C69.585 544.494 68.2812 547.79 63.6304 550.097L62.6636 548.633ZM87.9175 545.439V546.904H82.7466V548.061H86.438V552.412H84.5776V549.555H77.1069V548.061H80.9009V546.904H75.7593V545.439H87.9175ZM77.312 544.56V539.404H79.1577V540.62H84.5044V539.404H86.3647V544.56H77.312ZM79.1577 543.095H84.5044V541.997H79.1577V543.095ZM99.9585 539.082V546.699H98.0981V542.92H95.5933V541.411H98.0981V539.082H99.9585ZM88.6206 545.073C90.8618 544.385 91.8213 542.715 91.8286 540.957V539.682H93.7183V541.074C93.7109 542.656 94.6411 544.223 96.7505 544.853L95.7837 546.318C94.3335 545.842 93.3301 544.919 92.7588 543.755C92.1729 545.029 91.1255 546.032 89.5874 546.538L88.6206 545.073ZM90.9937 552.265V547.285H99.9585V552.265H90.9937ZM92.8687 550.771H98.1274V548.735H92.8687V550.771Z" fill="#858585"/>
<path d="M33.5916 474.308V477.721H30.9548V478.549C32.7493 478.541 33.5403 478.497 34.4412 478.278L34.6316 479.64C33.5183 479.933 32.6101 479.955 30.0027 479.948H29.1238V476.461H31.7898V475.714H29.0945V474.308H33.5916ZM28.2888 473.107V467.452H34.6902V473.107H28.2888ZM30.1345 471.627H32.8445V468.917H30.1345V471.627ZM34.1628 475.787V474.308H38.4695V479.977H36.6238V475.787H34.1628ZM36.5945 473.751V466.764H38.4695V469.415H40.2712V470.953H38.4695V473.751H36.5945ZM53.0154 473.575V475.07H40.8572V473.575H53.0154ZM42.073 469.899C42.073 468.199 43.9993 467.159 46.9363 467.174C49.8513 467.159 51.7776 468.199 51.7849 469.899C51.7776 471.605 49.8513 472.653 46.9363 472.653C43.9993 472.653 42.073 471.605 42.073 469.899ZM42.322 479.86V475.963H44.197V478.365H51.6384V479.86H42.322ZM44.0212 469.899C44.0066 470.726 45.0833 471.144 46.9363 471.144C48.7747 471.144 49.8513 470.726 49.8513 469.899C49.8513 469.093 48.7747 468.654 46.9363 468.639C45.0833 468.654 44.0066 469.093 44.0212 469.899ZM65.9792 472.052V473.531H60.823V474.381H64.4998V477.794H57.073V478.6H64.8513V480.006H55.2419V476.476H62.6541V475.787H55.2273V474.381H58.948V473.531H53.821V472.052H65.9792ZM55.3298 471.349V467.145H64.4412V471.349H55.3298ZM57.1609 469.913H62.5808V468.595H57.1609V469.913ZM26.2747 486.859C26.2673 488.477 27.2122 490.03 29.3215 490.682L28.3254 492.132C26.9119 491.663 25.9231 490.755 25.3518 489.591C24.7732 490.931 23.7405 491.986 22.217 492.498L21.2063 491.033C23.4329 490.294 24.385 488.521 24.3997 486.683V485.467H26.2747V486.859ZM23.052 495.516C23.0447 493.897 24.8098 492.938 27.6223 492.938C30.3835 492.938 32.1121 493.897 32.1194 495.516C32.1121 497.149 30.3835 498.101 27.6223 498.094C24.8098 498.101 23.0447 497.149 23.052 495.516ZM24.927 495.516C24.9124 496.27 25.8718 496.629 27.6223 496.629C29.3508 496.629 30.2737 496.27 30.2737 495.516C30.2737 494.791 29.3508 494.403 27.6223 494.403C25.8718 494.403 24.9124 494.791 24.927 495.516ZM30.1125 492.674V484.764H31.9875V487.884H33.7893V489.437H31.9875V492.674H30.1125ZM39.2385 486.859C39.2312 488.477 40.176 490.03 42.2854 490.682L41.2893 492.132C39.8757 491.663 38.887 490.755 38.3157 489.591C37.7371 490.931 36.7043 491.986 35.1809 492.498L34.1702 491.033C36.3967 490.294 37.3489 488.521 37.3635 486.683V485.467H39.2385V486.859ZM36.0159 495.516C36.0085 493.897 37.7737 492.938 40.5862 492.938C43.3474 492.938 45.0759 493.897 45.0833 495.516C45.0759 497.149 43.3474 498.101 40.5862 498.094C37.7737 498.101 36.0085 497.149 36.0159 495.516ZM37.8909 495.516C37.8762 496.27 38.8357 496.629 40.5862 496.629C42.3147 496.629 43.2375 496.27 43.2375 495.516C43.2375 494.791 42.3147 494.403 40.5862 494.403C38.8357 494.403 37.8762 494.791 37.8909 495.516ZM43.0764 492.674V484.764H44.9514V487.884H46.7532V489.437H44.9514V492.674H43.0764ZM58.2522 488.939V490.433H48.8479V485.365H50.7229V488.939H58.2522ZM47.3391 493.48V491.956H59.5413V493.48H54.3118V498.094H52.4368V493.48H47.3391ZM71.4797 484.764V498.123H69.6194V484.764H71.4797ZM61.0061 487.386V485.877H67.3489V491.019H62.9543V493.465C64.9905 493.45 66.7117 493.348 68.6672 493.026L68.8284 494.534C66.6384 494.923 64.6536 495.003 62.2219 495.003H61.0208V489.539H65.4446V487.386H61.0061Z" fill="#858585"/>
<path d="M280.015 300.267C280.015 303.665 278.529 306.038 275.064 307.518L274.112 306.155C276.624 305.13 277.825 303.687 278.096 301.746H274.757V300.267H280.015ZM275.782 310.96C278.631 310.579 280.111 309.041 280.118 307.591V307.181H281.964V307.591C281.956 309.041 283.436 310.579 286.285 310.96L285.567 312.41C283.421 312.095 281.854 311.15 281.033 309.861C280.206 311.15 278.653 312.095 276.514 312.41L275.782 310.96ZM280.894 306.58V299.388H282.652V302.376H283.853V299.153H285.626V307.825H283.853V303.899H282.652V306.58H280.894ZM297.828 299.637V300.428C297.821 301.226 297.821 302.288 297.594 303.606L295.748 303.46C295.902 302.508 295.946 301.753 295.96 301.102H288.526V299.637H297.828ZM287.164 305.599V304.148H291.705V302.186H293.551V304.148H299.263V305.599H287.164ZM288.511 307.913V306.434H297.828V309.993H290.386V310.931H298.194V312.366H288.526V308.733H295.982V307.913H288.511ZM265.469 319.512C265.469 320.955 266.217 322.375 267.989 323.057L266.993 324.478C265.85 324.045 265.067 323.254 264.591 322.273C264.107 323.423 263.272 324.382 262.027 324.902L261.016 323.467C262.899 322.639 263.653 320.999 263.653 319.512V317.944H265.469V319.512ZM263.492 327.979C263.485 326.418 265.279 325.481 268.106 325.488C270.919 325.481 272.72 326.418 272.735 327.979C272.72 329.524 270.919 330.476 268.106 330.469C265.279 330.476 263.485 329.524 263.492 327.979ZM265.367 327.979C265.352 328.696 266.356 329.062 268.106 329.062C269.842 329.062 270.845 328.696 270.845 327.979C270.845 327.253 269.842 326.88 268.106 326.88C266.356 326.88 265.352 327.253 265.367 327.979ZM268.033 324.888V317.388H269.776V320.405H270.889V317.153H272.662V325.298H270.889V321.914H269.776V324.888H268.033ZM280.059 318.53V320.01H276.412V322.017H279.796V323.452H276.412V325.854C277.913 325.84 279.012 325.789 280.308 325.605L280.44 327.129C278.902 327.371 277.591 327.422 275.562 327.422H274.625V318.53H280.059ZM281.026 329.854V317.329H282.784V322.31H283.941V317.139H285.728V330.469H283.941V323.804H282.784V329.854H281.026ZM293.14 325.444C296.055 325.444 297.886 326.367 297.901 327.964C297.886 329.539 296.055 330.476 293.14 330.469C290.247 330.476 288.387 329.539 288.394 327.964C288.387 326.367 290.247 325.444 293.14 325.444ZM287.164 324.595V323.086H291.705V320.757H293.551V323.086H299.263V324.595H287.164ZM288.526 319.204V317.739H297.828V318.823C297.835 319.885 297.835 321.028 297.447 322.397L295.616 322.222C295.916 321.013 295.953 320.112 295.968 319.204H288.526ZM290.255 327.964C290.247 328.682 291.302 329.048 293.14 329.048C294.979 329.048 296.041 328.682 296.041 327.964C296.041 327.224 294.979 326.829 293.14 326.836C291.302 326.829 290.247 327.224 290.255 327.964ZM311.392 317.153V327.217H309.517V326.162H306.969V324.888H309.517V317.153H311.392ZM300.054 323.057C302.493 323.042 305.789 323.005 308.609 322.661L308.712 323.994C307.657 324.17 306.566 324.294 305.489 324.375V326.909H303.614V328.74H311.685V330.234H301.754V326.25H303.614V324.485C302.42 324.529 301.285 324.536 300.274 324.536L300.054 323.057ZM301.036 319.995C301.036 318.574 302.406 317.6 304.39 317.607C306.324 317.6 307.708 318.574 307.716 319.995C307.708 321.423 306.324 322.346 304.39 322.339C302.406 322.346 301.036 321.423 301.036 319.995ZM302.808 319.995C302.801 320.64 303.438 320.999 304.39 320.991C305.284 320.999 305.928 320.64 305.943 319.995C305.928 319.336 305.284 318.97 304.39 318.97C303.438 318.97 302.801 319.336 302.808 319.995Z" fill="#2F2F2F"/>
<path d="M354.464 208.609V209.444C354.464 210.367 354.464 211.7 354.156 213.355L352.325 213.18C352.567 211.905 352.626 210.931 352.64 210.133H347.609V208.609H354.464ZM346.818 214.322C347.565 214.322 348.407 214.322 349.293 214.3V211.686H351.154V214.242C352.487 214.183 353.842 214.081 355.094 213.897L355.197 215.245C352.421 215.758 349.301 215.809 346.979 215.816L346.818 214.322ZM348.781 220.738V216.725H350.656V219.244H358.141V220.738H348.781ZM355.812 217.618V207.643H357.731V211.7H359.342V213.268H357.731V217.618H355.812ZM372.086 213.766V215.26H359.987V213.766H364.528V211.275H366.373V213.766H372.086ZM361.217 217.896V216.402H370.533V220.973H368.658V217.896H361.217ZM361.349 209.767V208.302H370.651V209.254C370.643 210.243 370.643 211.48 370.328 213.077L368.453 212.901C368.724 211.612 368.776 210.631 368.783 209.767H361.349ZM378.092 211.275C378.085 213.429 379.198 215.736 381.432 216.666L380.421 218.131C378.854 217.464 377.77 216.139 377.169 214.527C376.569 216.278 375.463 217.743 373.888 218.468L372.819 216.988C375.031 216 376.173 213.531 376.173 211.275V210.455H373.346V208.932H380.875V210.455H378.092V211.275ZM382.194 220.973V207.643H384.083V220.973H382.194ZM324.647 237.786C322.45 237.779 321.102 236.482 321.102 234.812C321.102 233.575 321.886 232.828 323.043 232.029C322.487 231.319 322.025 230.535 322.025 229.598C322.025 228.06 323.175 226.88 324.911 226.873C326.61 226.88 327.657 228.023 327.65 229.363C327.657 230.367 327.137 231.172 326.244 231.81L325.621 232.264L327.394 234.3C327.672 233.78 327.841 233.157 327.841 232.469H329.642C329.65 233.904 329.276 235.018 328.69 235.794L330.287 237.625H328.016L327.365 236.893C326.588 237.515 325.577 237.779 324.647 237.786ZM323.212 234.695C323.212 235.457 323.812 236.036 324.75 236.028C325.24 236.028 325.739 235.875 326.193 235.589L324.164 233.326L324.091 233.377C323.49 233.809 323.212 234.285 323.212 234.695ZM323.885 229.627C323.893 230.066 324.171 230.513 324.574 231.026L325.131 230.652C325.665 230.315 325.914 229.942 325.907 229.48C325.914 229.07 325.548 228.624 324.926 228.631C324.303 228.631 323.893 229.085 323.885 229.627ZM341.918 225.657V235.398H340.057V232.234H337.01C336.366 232.916 335.443 233.333 334.403 233.333C332.382 233.333 330.844 231.868 330.858 229.891C330.844 227.884 332.382 226.426 334.403 226.419C335.436 226.426 336.359 226.836 337.003 227.518H340.057V225.657H341.918ZM332.631 229.891C332.623 231.004 333.363 231.678 334.403 231.678C335.385 231.678 336.139 231.004 336.146 229.891C336.139 228.763 335.385 228.089 334.403 228.089C333.363 228.089 332.623 228.763 332.631 229.891ZM333.07 238.738V234.417H334.945V237.244H342.24V238.738H333.07ZM337.809 229.012C337.882 229.29 337.919 229.583 337.919 229.891C337.919 230.184 337.882 230.469 337.816 230.74H340.057V229.012H337.809ZM354.603 226.082V226.814C354.603 227.664 354.603 228.917 354.193 230.447L352.391 230.242C352.67 229.114 352.75 228.272 352.772 227.576H349.799V226.082H354.603ZM343.676 232.527V231.019H349.037V229.1H350.883V231.019H355.775V232.527H343.676ZM344.628 237.522C347.045 237.295 348.4 236.38 348.707 235.442H345.155V234.021H348.773V232.908H350.663V234.021H354.281V235.442H350.729C351.022 236.38 352.369 237.295 354.838 237.522L354.208 238.914C352.062 238.694 350.524 237.94 349.718 236.893C348.92 237.94 347.382 238.694 345.243 238.914L344.628 237.522ZM344.642 227.576V226.082H348.802V226.771C348.802 227.62 348.802 228.902 348.099 230.477L346.283 230.198C346.759 229.056 346.906 228.235 346.949 227.576H344.642ZM365.458 227.122V228.587H362.25V230.711H364.93V232.132H362.25V234.527C363.678 234.505 364.725 234.432 365.97 234.227L366.132 235.735C364.601 236.014 363.326 236.028 361.371 236.028H360.477V227.122H365.458ZM365.56 232V230.506H367.054V225.877H368.798V238.372H367.054V232H365.56ZM369.823 238.973V225.643H371.625V238.973H369.823ZM379.857 226.902V235.721H373.456V226.902H379.857ZM375.302 234.241H377.997V228.367H375.302V234.241ZM381.674 238.973V225.643H383.549V230.667H385.511V232.22H383.549V238.973H381.674ZM393.597 226.873V228.367H392.411V234.183C392.953 234.139 393.48 234.087 393.993 234.021L394.095 235.369C391.364 235.845 388.317 235.896 386.024 235.911L385.819 234.388C386.295 234.388 386.808 234.388 387.343 234.38V228.367H386.156V226.873H393.597ZM389.144 234.351C389.628 234.336 390.118 234.314 390.609 234.292V228.367H389.144V234.351ZM394.637 238.973V225.643H396.512V230.711H398.475V232.234H396.512V238.973H394.637ZM409.872 226.814V228.367C409.865 230.308 409.865 232.154 409.257 235.047L407.396 234.871C407.66 233.765 407.814 232.784 407.909 231.883L400.175 232.264L399.94 230.77L408.004 230.477C408.033 229.744 408.041 229.056 408.041 228.367V228.309H400.35V226.814H409.872ZM398.959 237.376V235.853H411.117V237.376H398.959Z" fill="#858585"/>
</svg>
