<svg width="486" height="179" viewBox="0 0 486 179" fill="none" xmlns="http://www.w3.org/2000/svg">
<path d="M105.401 63.0287V64.9787H63.201V63.0287H83.151V49.9787H66.451V26.7787H102.251V28.7287H68.551V48.0287H102.751V49.9787H85.251V63.0287H105.401ZM150.047 24.7787V67.4787H147.947V24.7787H150.047ZM129.097 26.0787C129.03 33.012 128.447 39.0287 127.347 44.1287L142.097 63.1287L140.447 64.3787L126.797 46.5787C125.463 51.8454 123.563 56.0287 121.097 59.1287C118.663 62.2287 115.763 64.012 112.397 64.4787V62.5287C115.563 61.9287 118.23 59.912 120.397 56.4787C122.597 53.012 124.23 48.6287 125.297 43.3287C126.397 38.0287 126.963 32.262 126.997 26.0287L129.097 26.0787ZM201.592 63.0287V64.9787H159.392V63.0287H179.292V52.2787H162.692V38.5287H196.392V28.7287H162.692V26.7787H198.492V40.4787H164.792V50.3287H199.242V52.2787H181.392V63.0287H201.592ZM263.702 48.5787V50.5287H221.502V48.5787H241.552V42.5787C236.585 42.4787 232.452 41.6787 229.152 40.1787C225.852 38.6454 224.202 36.4954 224.202 33.7287C224.202 31.7954 225.035 30.162 226.702 28.8287C228.402 27.4954 230.635 26.512 233.402 25.8787C236.202 25.212 239.268 24.8787 242.602 24.8787C245.935 24.8787 248.985 25.212 251.752 25.8787C254.552 26.512 256.785 27.4954 258.452 28.8287C260.152 30.162 261.002 31.7954 261.002 33.7287C261.002 36.4954 259.352 38.6454 256.052 40.1787C252.752 41.6787 248.618 42.4787 243.652 42.5787V48.5787H263.702ZM226.352 33.7287C226.352 35.1954 227.102 36.4454 228.602 37.4787C230.135 38.512 232.135 39.2954 234.602 39.8287C237.068 40.362 239.735 40.6287 242.602 40.6287C245.468 40.6287 248.135 40.362 250.602 39.8287C253.068 39.2954 255.052 38.512 256.552 37.4787C258.085 36.4454 258.852 35.1954 258.852 33.7287C258.852 32.262 258.085 31.012 256.552 29.9787C255.052 28.9454 253.068 28.162 250.602 27.6287C248.135 27.0954 245.468 26.8287 242.602 26.8287C239.735 26.8287 237.068 27.0954 234.602 27.6287C232.135 28.162 230.135 28.9454 228.602 29.9787C227.102 31.012 226.352 32.262 226.352 33.7287ZM227.002 64.5787H261.352V66.5287H224.902V54.9287H227.002V64.5787ZM327.911 45.4287H321.161V67.4787H319.061V24.7787H321.161V43.4787H327.911V45.4287ZM306.861 26.2787H308.961V64.4787H286.111V26.2787H288.211V42.7287H306.861V26.2787ZM306.861 62.5287V44.6787H288.211V62.5287H306.861ZM376.007 35.7287V37.6787H369.257V54.1287H367.157V24.7787H369.257V35.7287H376.007ZM363.107 45.1287C361.607 45.8287 359.407 46.3787 356.507 46.7787C353.607 47.1787 350.257 47.3787 346.457 47.3787H333.707V26.2787H359.607V28.2287H335.807V45.4287H346.757C350.424 45.4287 353.674 45.2287 356.507 44.8287C359.34 44.4287 361.54 43.862 363.107 43.1287V45.1287ZM355.007 50.6787C354.674 52.4787 354.007 54.2454 353.007 55.9787L371.157 65.3287L370.007 67.0287L351.907 57.6287C349.94 60.3287 347.374 62.462 344.207 64.0287C341.04 65.6287 337.79 66.4454 334.457 66.4787V64.4787C337.157 64.412 339.807 63.7954 342.407 62.6287C345.007 61.462 347.24 59.812 349.107 57.6787C351.007 55.5454 352.257 53.0787 352.857 50.2787L355.007 50.6787ZM418.553 45.8787H416.453V24.7787H418.553V45.8787ZM406.053 29.6787C406.053 34.8787 403.953 38.662 399.753 41.0287C395.553 43.362 389.536 44.5287 381.703 44.5287V42.5787C388.869 42.5787 394.369 41.5787 398.203 39.5787C402.036 37.5454 403.953 34.2454 403.953 29.6787V28.2287H381.703V26.2787H406.053V29.6787ZM418.553 58.6287H386.153V64.5287H420.053V66.4787H383.953V56.7287H416.403V50.8287H383.853V48.8787H418.553V58.6287Z" fill="black"/>
<circle cx="303.477" cy="5.66214" r="5.06766" fill="#ED6C00"/>
<circle cx="349.748" cy="5.66214" r="5.06766" fill="#ED6C00"/>
<circle cx="396.019" cy="5.66214" r="5.06766" fill="#ED6C00"/>
<path d="M70.251 96.2787V164.599H56.731V96.2787H70.251ZM37.291 98.1187C37.291 107.932 36.411 116.999 34.651 125.319L54.891 153.479L43.931 161.319L29.851 140.919C26.971 147.479 23.371 152.519 19.051 156.039C14.7843 159.559 10.0376 161.345 4.81098 161.399V147.479C8.43764 147.052 11.6643 144.705 14.491 140.439C17.3176 136.119 19.531 130.252 21.131 122.839C22.731 115.425 23.531 107.025 23.531 97.6387L37.291 98.1187ZM147.684 107.079H83.6841V98.0387H108.804V93.5587H122.564V98.0387H147.684V107.079ZM85.6041 118.599C85.6041 115.132 88.2708 112.625 93.6041 111.079C98.9908 109.479 106.351 108.679 115.684 108.679C125.017 108.679 132.351 109.479 137.684 111.079C143.071 112.625 145.764 115.132 145.764 118.599C145.764 122.065 143.071 124.599 137.684 126.199C132.351 127.745 125.017 128.519 115.684 128.519C106.351 128.519 98.9908 127.745 93.6041 126.199C88.2708 124.599 85.6041 122.065 85.6041 118.599ZM132.244 118.599C132.244 117.319 126.724 116.679 115.684 116.679C104.644 116.679 99.1241 117.319 99.1241 118.599C99.1241 119.879 104.644 120.519 115.684 120.519C126.724 120.519 132.244 119.879 132.244 118.599ZM150.244 130.679V140.039H81.1241V130.679H150.244ZM115.684 142.199C125.391 142.199 133.017 143.159 138.564 145.079C144.111 146.945 146.884 149.879 146.884 153.879C146.884 157.879 144.111 160.812 138.564 162.679C133.017 164.599 125.391 165.559 115.684 165.559C105.977 165.559 98.3508 164.599 92.8041 162.679C87.2574 160.812 84.4841 157.879 84.4841 153.879C84.4841 149.879 87.2574 146.945 92.8041 145.079C98.3508 143.159 105.977 142.199 115.684 142.199ZM115.684 156.599C120.964 156.599 125.097 156.385 128.084 155.959C131.124 155.479 132.644 154.785 132.644 153.879C132.644 152.972 131.097 152.305 128.004 151.879C124.964 151.399 120.857 151.159 115.684 151.159C110.511 151.159 106.377 151.399 103.284 151.879C100.244 152.305 98.7241 152.972 98.7241 153.879C98.7241 154.785 100.217 155.479 103.204 155.959C106.244 156.385 110.404 156.599 115.684 156.599ZM246.579 96.2787V164.599H233.059V96.2787H246.579ZM213.619 98.1187C213.619 107.932 212.739 116.999 210.979 125.319L231.219 153.479L220.259 161.319L206.179 140.919C203.299 147.479 199.699 152.519 195.379 156.039C191.112 159.559 186.366 161.345 181.139 161.399V147.479C184.766 147.052 187.992 144.705 190.819 140.439C193.646 136.119 195.859 130.252 197.459 122.839C199.059 115.425 199.859 107.025 199.859 97.6387L213.619 98.1187ZM323.532 96.2787V164.599H310.012V96.2787H323.532ZM288.652 148.999C291.906 148.999 295.132 148.705 298.332 148.119C301.586 147.532 304.252 146.732 306.332 145.719V158.119C304.306 159.132 301.692 159.932 298.492 160.519C295.292 161.105 292.012 161.399 288.652 161.399H260.492V97.8787H300.972V110.279H274.012V123.239H299.772V135.559H274.012V148.999H288.652ZM400.405 137.319H338.405V97.0787H399.605V108.119H351.765V112.039H398.485V122.359H351.765V126.279H400.405V137.319ZM403.525 153.719H375.925V166.199H362.005V153.719H334.405V141.559H403.525V153.719ZM477.758 96.2787V164.599H464.238V134.679H455.198C454.612 143.905 452.478 150.812 448.798 155.399C445.172 159.932 440.318 162.199 434.238 162.199C427.625 162.199 422.425 159.505 418.638 154.119C414.905 148.679 413.038 140.519 413.038 129.639C413.038 118.759 414.905 110.625 418.638 105.239C422.425 99.7987 427.625 97.0787 434.238 97.0787C439.998 97.0787 444.692 99.1587 448.318 103.319C451.945 107.425 454.185 113.665 455.038 122.039H464.238V96.2787H477.758ZM434.238 149.799C439.412 149.799 441.998 143.079 441.998 129.639C441.998 116.199 439.412 109.479 434.238 109.479C429.012 109.479 426.398 116.199 426.398 129.639C426.398 143.079 429.012 149.799 434.238 149.799Z" fill="#391FD8"/>
</svg>
