<svg width="641" height="571" viewBox="0 0 641 571" fill="none" xmlns="http://www.w3.org/2000/svg">
<path d="M350.008 3.54685C350.008 3.54685 353.316 4.64804 358.416 2.16293C363.516 -0.322191 367.728 -0.396596 367.728 3.79983C367.728 7.99625 374.943 6.88018 377.331 10.4814C379.72 14.0826 379.429 21.8355 383.044 22.3861C386.659 22.9367 406.769 22.6689 411.869 26.5379C416.969 30.407 421.471 35.9575 424.489 35.6748C427.507 35.3921 437.11 34.0379 439.499 35.6748C441.887 37.3117 445.809 43.4129 449.101 41.7611C452.394 40.1093 454.508 37.3266 459.317 40.3772C464.127 43.4278 474.036 47.5796 478.845 45.3623C483.655 43.145 496.873 39.4099 496.566 45.9873C496.259 52.5647 503.78 42.5944 506.169 41.7611C508.557 40.9278 511.575 39.8266 513.98 44.2462C516.385 48.6659 521.485 46.0766 521.791 48.2046C522.098 50.3325 523.292 66.6718 521.791 70.273C521.791 70.273 529.296 74.1569 526.004 76.642C522.711 79.1271 520.597 117.624 520.597 117.624C520.597 117.624 518.79 119.559 524.809 119.841C530.829 120.124 533.815 124.827 530.813 128.145C527.811 131.463 526.004 134.514 529.312 136.999C532.621 139.484 531.975 142.818 531.991 146.687C532.007 150.556 531.41 155.824 537.721 158.324C544.031 160.824 543.724 165.526 542.223 167.46C540.723 169.395 538.624 172.163 540.723 177.148C542.821 182.133 544.031 198.74 546.436 200.139C548.84 201.538 548.243 207.059 555.441 210.392C562.639 213.725 565.351 215.928 566.852 222.297C568.352 228.666 573.759 229.216 578.262 228.115C582.765 227.014 603.197 232.55 603.197 232.55C603.197 232.55 624.242 231.999 637.831 293.085C651.42 354.172 607.247 349.484 603.003 355.749C598.758 362.014 606.408 364.365 593.658 367.49C580.909 370.615 563.075 375.317 563.075 375.317C563.075 375.317 552.924 373.472 552.924 367.044C552.924 360.615 552.262 358.77 544.951 361.225C537.64 363.68 514.384 363.681 514.384 363.681C514.384 363.681 504.087 368.279 497.76 365.823C491.434 363.368 489.449 353.874 482.477 356.329C475.505 358.785 462.206 379.916 462.206 379.916C462.206 379.916 460.205 389.112 456.558 386.344C452.91 383.576 451.91 384.305 447.923 386.865C443.937 389.425 440.951 392.788 436.965 390.942C432.978 389.097 427.653 396.463 427.653 396.463C427.653 396.463 425.99 398.606 418.679 394.618C411.368 390.63 409.706 388.487 398.748 394.618C387.789 400.749 385.126 403.204 386.45 408.71C387.773 414.216 395.084 427.088 392.098 428.621C389.113 430.154 386.45 437.207 378.477 442.713C370.504 448.219 365.178 455.585 365.178 442.713C365.178 442.713 345.247 440.868 334.934 431.686C334.934 431.686 334.934 428.323 329.624 430.764C324.314 433.204 318.666 431.076 318.666 431.076C318.666 431.076 314.018 428.323 309.031 433.829C304.044 439.335 301.058 436.895 301.058 436.895C301.058 436.895 303.059 440.57 299.396 440.57C295.732 440.57 297.734 447.832 292.424 449.871C287.114 451.91 282.45 445.779 273.815 455.288C265.181 464.797 267.505 489.603 262.857 490.213C258.209 490.823 242.587 471.523 237.277 477.654C231.967 483.785 186.762 544.752 177.127 544.454C167.492 544.157 138.248 544.142 122.302 525.451C106.357 506.761 89.0722 508.904 89.0722 508.904C89.0722 508.904 75.4509 513.189 69.4633 508.904C63.4758 504.618 40.2194 476.418 47.1915 471.21C54.1635 466.002 80.7606 460.183 92.7196 452.207C104.679 444.231 91.3962 439.335 91.3962 439.335C91.3962 439.335 85.4087 435.05 88.4105 427.073C91.4124 419.097 91.3962 411.136 97.3838 413.591C103.371 416.047 103.032 407.46 103.032 407.46C103.032 407.46 101.031 404.097 115.33 405.615C129.63 407.133 126.289 396.419 126.289 396.419C126.289 396.419 166.491 339.127 194.073 310.63C221.654 282.133 221.654 283.056 225.318 285.809C228.981 288.561 231.967 290.094 236.276 292.237C240.585 294.38 244.911 296.835 245.249 293.457C245.588 290.079 235.276 287.029 235.614 281.508C235.953 275.987 230.966 284.261 226.302 280.288C221.638 276.314 233.274 258.844 240.262 251.181C247.251 243.517 251.899 237.088 256.886 240.451C261.873 243.815 270.184 248.413 271.508 242.594C272.831 236.776 259.21 237.073 263.535 229.112C267.86 221.151 276.156 217.773 277.818 207.356C279.48 196.94 280.481 194.187 283.467 190.198C286.452 186.21 275.494 173.651 278.819 168.443C282.143 163.234 292.44 158.338 292.44 158.338C292.44 158.338 298.75 148.532 304.076 149.142C309.402 149.752 310.725 154.35 318.036 149.142C325.347 143.934 330.657 136.27 328.01 127.074C325.364 117.877 329.334 117.267 328.349 108.071C327.365 98.8742 323.039 101.33 325.025 91.8355C327.01 82.3414 332.674 73.145 349.282 72.5349L354.236 71.3147V58.145C354.236 58.145 345.279 54.7819 347.619 46.5081C349.959 38.2343 350.944 34.2462 347.28 28.4278C343.617 22.6093 356.205 25.9724 354.236 17.6986C352.267 9.42483 341.664 4.87126 350.072 3.48733L350.008 3.54685Z" fill="#B6CCE7"/>
<circle cx="331.899" cy="110.44" r="10.7611" fill="#FF7676" stroke="#FF7676"/>
<circle cx="377.136" cy="132.962" r="10.7611" fill="#FF7676" stroke="#FF7676"/>
<circle cx="222.252" cy="300.988" r="10.7611" fill="#FF7676" stroke="#FF7676"/>
<path d="M377.261 132.602L330.985 110.262L223.475 300.658" stroke="#FF7676" stroke-width="3"/>
<circle cx="298.74" cy="274.367" r="11.2611" fill="#AFAFAF"/>
<circle cx="371.486" cy="261.187" r="11.2611" fill="#AFAFAF"/>
<circle cx="513.261" cy="296.889" r="11.2611" fill="#AFAFAF"/>
<path d="M371.165 262.162L514.05 296.923L299.78 276.333" stroke="#AFAFAF" stroke-width="3"/>
<circle cx="271.143" cy="278.466" r="10.7611" fill="#AFAFAF" stroke="#AFAFAF"/>
<circle cx="107.451" cy="432.124" r="10.7611" fill="#AFAFAF" stroke="#AFAFAF"/>
<path d="M271.212 278.9L109.293 430.662" stroke="#AFAFAF" stroke-width="3"/>
<circle cx="132.373" cy="497.995" r="44.96" stroke="#AFAFAF" stroke-width="3" stroke-dasharray="6 6"/>
<path d="M365.729 110.79V112.284H353.526V110.79H358.624V107.772H360.484V110.79H365.729ZM353.819 106.644C356.837 106.176 358.536 104.147 358.551 102.264V101.312H360.543V102.264C360.536 104.169 362.257 106.176 365.304 106.644L364.513 108.197C362.169 107.772 360.426 106.52 359.547 104.857C358.675 106.512 356.939 107.78 354.61 108.197L353.819 106.644ZM371.925 101.84V106.981H368.658V109.369C369.925 109.354 371.126 109.303 372.496 109.091L372.628 110.585C370.885 110.878 369.442 110.922 367.794 110.922H366.871V105.487H370.123V103.348H366.856V101.84H371.925ZM373.243 113.236V100.77H374.957V105.59H376.246V100.551H378.019V113.881H376.246V107.098H374.957V113.236H373.243ZM384.376 102.836C384.369 104.542 385.335 106.198 387.496 106.893L386.515 108.358C385.057 107.867 384.046 106.915 383.468 105.699C382.875 107.032 381.812 108.08 380.274 108.607L379.234 107.128C381.512 106.425 382.486 104.637 382.501 102.821V101.371H384.376V102.836ZM381.373 113.646V109.354H383.277V112.152H390.528V113.646H381.373ZM388.155 110.321V100.551H390.03V104.403H391.832V105.985H390.03V110.321H388.155Z" fill="#2F2F2F"/>
<path d="M547.292 293.964V295.443H542.136V296.293H545.812V299.706H538.386V300.512H546.164V301.918H536.555V298.388H543.967V297.699H536.54V296.293H540.261V295.443H535.134V293.964H547.292ZM536.643 293.261V289.057H545.754V293.261H536.643ZM538.474 291.825H543.894V290.507H538.474V291.825ZM558.762 288.69V292.074H560.461V293.627H558.762V297.055H556.887V288.69H558.762ZM548.068 295.062C548.999 295.062 550.075 295.055 551.203 295.026V294.103C549.724 293.832 548.75 292.895 548.757 291.62C548.75 290.111 550.134 289.071 552.111 289.071C554.067 289.071 555.458 290.111 555.466 291.62C555.458 292.873 554.506 293.803 553.078 294.088V294.953C554.125 294.894 555.166 294.813 556.14 294.682L556.301 295.971C553.562 296.454 550.515 296.498 548.259 296.498L548.068 295.062ZM549.709 299.633C549.709 298.102 551.452 297.216 554.265 297.216C557.077 297.216 558.806 298.102 558.806 299.633C558.806 301.105 557.077 302.013 554.265 302.006C551.452 302.013 549.709 301.105 549.709 299.633ZM550.5 291.62C550.485 292.382 551.13 292.821 552.111 292.821C553.071 292.821 553.708 292.382 553.708 291.62C553.708 290.873 553.063 290.463 552.111 290.463C551.13 290.463 550.485 290.873 550.5 291.62ZM551.555 299.633C551.54 300.255 552.5 300.585 554.265 300.585C555.993 300.585 556.953 300.255 556.96 299.633C556.953 298.959 555.993 298.637 554.265 298.622C552.5 298.637 551.54 298.959 551.555 299.633ZM572.678 290.36V291.854H561.589V290.36H566.203V288.808H568.049V290.36H572.678ZM561.062 300.644V299.149H566.203V297.619C563.933 297.414 562.556 296.483 562.57 295.019C562.556 293.4 564.306 292.433 567.126 292.44C569.895 292.433 571.674 293.4 571.667 295.019C571.674 296.483 570.283 297.414 568.049 297.611V299.149H573.264V300.644H561.062ZM564.489 295.019C564.482 295.81 565.397 296.168 567.126 296.161C568.818 296.168 569.748 295.81 569.748 295.019C569.748 294.257 568.818 293.898 567.126 293.891C565.397 293.898 564.482 294.257 564.489 295.019ZM581.101 289.716C581.093 291.291 582.705 293.026 585.759 293.407L585.026 294.916C582.697 294.579 580.991 293.502 580.119 292.06C579.24 293.495 577.541 294.579 575.241 294.916L574.494 293.407C577.526 293.026 579.13 291.291 579.138 289.716V289.071H581.101V289.716ZM574.025 297.45V295.927H586.184V297.45H580.998V302.006H579.152V297.45H574.025Z" fill="#858585"/>
<path d="M404.462 124.407C407.326 124.407 409.479 125.857 409.486 128.054C409.479 130.068 407.78 131.416 405.385 131.68V133.958H410.585V135.496H398.383V133.958H403.524V131.68C401.144 131.409 399.452 130.061 399.452 128.054C399.452 125.857 401.598 124.407 404.462 124.407ZM401.298 128.054C401.298 129.461 402.594 130.244 404.462 130.252C406.337 130.244 407.633 129.461 407.641 128.054C407.633 126.721 406.337 125.894 404.462 125.901C402.594 125.894 401.298 126.721 401.298 128.054ZM413.764 124.612V129.57C415.39 129.541 417.14 129.417 418.993 129.036L419.198 130.559C417.023 131.006 414.943 131.116 413.031 131.116H411.889V124.612H413.764ZM413.28 136.814V132.405H415.17V135.32H422.362V136.814H413.28ZM420.048 133.298V123.733H421.923V127.468H423.725V129.036H421.923V133.298H420.048ZM429.232 126.004C429.225 127.71 430.192 129.365 432.353 130.061L431.371 131.526C429.914 131.035 428.903 130.083 428.324 128.867C427.731 130.2 426.669 131.248 425.131 131.775L424.091 130.296C426.369 129.592 427.343 127.805 427.357 125.989V124.539H429.232V126.004ZM426.229 136.814V132.522H428.134V135.32H435.385V136.814H426.229ZM433.012 133.489V123.718H434.887V127.571H436.688V129.153H434.887V133.489H433.012ZM410.541 148.53V150.024H398.383V148.53H410.541ZM399.599 144.853C399.599 143.154 401.525 142.114 404.462 142.129C407.377 142.114 409.303 143.154 409.311 144.853C409.303 146.56 407.377 147.607 404.462 147.607C401.525 147.607 399.599 146.56 399.599 144.853ZM399.848 154.814V150.918H401.723V153.32H409.164V154.814H399.848ZM401.547 144.853C401.532 145.681 402.609 146.098 404.462 146.098C406.3 146.098 407.377 145.681 407.377 144.853C407.377 144.047 406.3 143.608 404.462 143.593C402.609 143.608 401.532 144.047 401.547 144.853ZM422.904 141.718V155.048H421.146V141.718H422.904ZM411.142 150.962C413.844 149.365 415.031 147.424 415.287 144.809H411.918V143.3H417.147C417.147 143.967 417.104 144.611 417.023 145.234H418.349V142.011H420.121V154.463H418.349V150.068H416.459V148.559H418.349V146.743H416.715C416.093 148.947 414.73 150.8 412.24 152.28L411.142 150.962ZM435.927 143.403V144.897H424.838V143.403H429.452V141.85H431.298V143.403H435.927ZM424.311 153.686V152.192H429.452V150.661C427.182 150.456 425.805 149.526 425.819 148.061C425.805 146.443 427.555 145.476 430.375 145.483C433.144 145.476 434.923 146.443 434.916 148.061C434.923 149.526 433.532 150.456 431.298 150.654V152.192H436.513V153.686H424.311ZM427.738 148.061C427.731 148.852 428.646 149.211 430.375 149.204C432.067 149.211 432.997 148.852 432.997 148.061C432.997 147.299 432.067 146.941 430.375 146.933C428.646 146.941 427.731 147.299 427.738 148.061ZM444.35 142.758C444.342 144.333 445.954 146.069 449.008 146.45L448.275 147.959C445.946 147.622 444.24 146.545 443.368 145.102C442.489 146.538 440.79 147.622 438.49 147.959L437.743 146.45C440.775 146.069 442.379 144.333 442.387 142.758V142.114H444.35V142.758ZM437.274 150.493V148.969H449.433V150.493H444.247V155.048H442.401V150.493H437.274ZM456.244 150.024C459.159 150.024 460.99 150.947 461.005 152.544C460.99 154.118 459.159 155.056 456.244 155.048C453.351 155.056 451.491 154.118 451.498 152.544C451.491 150.947 453.351 150.024 456.244 150.024ZM450.268 149.174V147.666H454.809V145.337H456.654V147.666H462.367V149.174H450.268ZM451.63 143.784V142.319H460.932V143.403C460.939 144.465 460.939 145.608 460.551 146.977L458.72 146.801C459.02 145.593 459.057 144.692 459.071 143.784H451.63ZM453.358 152.544C453.351 153.261 454.406 153.628 456.244 153.628C458.083 153.628 459.145 153.261 459.145 152.544C459.145 151.804 458.083 151.408 456.244 151.416C454.406 151.408 453.351 151.804 453.358 152.544ZM474.496 141.733V151.797H472.621V150.742H470.072V149.467H472.621V141.733H474.496ZM463.158 147.636C465.597 147.622 468.893 147.585 471.713 147.241L471.815 148.574C470.761 148.75 469.669 148.874 468.593 148.955V151.489H466.718V153.32H474.789V154.814H464.857V150.83H466.718V149.065C465.524 149.109 464.389 149.116 463.378 149.116L463.158 147.636ZM464.14 144.575C464.14 143.154 465.509 142.18 467.494 142.187C469.428 142.18 470.812 143.154 470.819 144.575C470.812 146.003 469.428 146.926 467.494 146.919C465.509 146.926 464.14 146.003 464.14 144.575ZM465.912 144.575C465.905 145.219 466.542 145.578 467.494 145.571C468.388 145.578 469.032 145.219 469.047 144.575C469.032 143.916 468.388 143.549 467.494 143.549C466.542 143.549 465.905 143.916 465.912 144.575Z" fill="#2F2F2F"/>
<path d="M157.835 297.823C160.765 297.816 162.676 298.834 162.684 300.504C162.676 301.976 161.16 302.936 158.758 303.134V304.108H163.914V305.587H151.756V304.108H156.883V303.134C154.48 302.928 152.972 301.976 152.972 300.504C152.972 298.834 154.883 297.816 157.835 297.823ZM153.104 307.99V306.525H162.435V310.89H160.574V307.99H153.104ZM154.92 300.504C154.905 301.273 155.967 301.705 157.835 301.705C159.673 301.705 160.75 301.273 160.75 300.504C160.75 299.691 159.673 299.296 157.835 299.288C155.967 299.296 154.905 299.691 154.92 300.504ZM175.457 298.336V299.537C175.45 300.782 175.45 302.137 175.113 304.005H176.878V305.514H171.678V310.905H169.803V305.514H164.72V304.005H173.216C173.56 302.291 173.589 300.98 173.597 299.83H166.111V298.336H175.457ZM183.689 305.865C186.604 305.865 188.436 306.788 188.45 308.385C188.436 309.96 186.604 310.897 183.689 310.89C180.796 310.897 178.936 309.96 178.943 308.385C178.936 306.788 180.796 305.865 183.689 305.865ZM177.713 305.016V303.507H182.254V301.178H184.1V303.507H189.812V305.016H177.713ZM179.075 299.625V298.16H188.377V299.244C188.384 300.306 188.384 301.449 187.996 302.819L186.165 302.643C186.465 301.434 186.502 300.533 186.517 299.625H179.075ZM180.804 308.385C180.796 309.103 181.851 309.469 183.689 309.469C185.528 309.469 186.59 309.103 186.59 308.385C186.59 307.645 185.528 307.25 183.689 307.257C181.851 307.25 180.796 307.645 180.804 308.385ZM201.941 297.574V307.638H200.066V306.583H197.518V305.309H200.066V297.574H201.941ZM190.604 303.478C193.042 303.463 196.338 303.427 199.158 303.082L199.261 304.415C198.206 304.591 197.115 304.716 196.038 304.796V307.33H194.163V309.161H202.234V310.656H192.303V306.671H194.163V304.906C192.969 304.95 191.834 304.957 190.823 304.957L190.604 303.478ZM191.585 300.416C191.585 298.995 192.955 298.021 194.939 298.029C196.873 298.021 198.257 298.995 198.265 300.416C198.257 301.844 196.873 302.767 194.939 302.76C192.955 302.767 191.585 301.844 191.585 300.416ZM193.357 300.416C193.35 301.061 193.987 301.42 194.939 301.412C195.833 301.42 196.478 301.061 196.492 300.416C196.478 299.757 195.833 299.391 194.939 299.391C193.987 299.391 193.35 299.757 193.357 300.416Z" fill="#2F2F2F"/>
<path d="M133.452 423.569C136.316 423.569 138.469 425.019 138.477 427.216C138.469 429.23 136.77 430.578 134.375 430.842V433.119H139.575V434.657H127.373V433.119H132.515V430.842C130.134 430.571 128.442 429.223 128.442 427.216C128.442 425.019 130.588 423.569 133.452 423.569ZM130.288 427.216C130.288 428.622 131.584 429.406 133.452 429.413C135.327 429.406 136.624 428.622 136.631 427.216C136.624 425.883 135.327 425.055 133.452 425.063C131.584 425.055 130.288 425.883 130.288 427.216ZM151.499 422.88V436.24H149.609V422.88H151.499ZM140.732 428.564C140.725 425.656 142.212 423.818 144.263 423.818C146.27 423.818 147.764 425.656 147.764 428.564C147.764 431.493 146.27 433.324 144.263 433.324C142.212 433.324 140.725 431.493 140.732 428.564ZM142.534 428.564C142.527 430.549 143.223 431.633 144.263 431.625C145.273 431.633 145.955 430.549 145.962 428.564C145.955 426.586 145.273 425.502 144.263 425.502C143.223 425.502 142.527 426.586 142.534 428.564ZM164.17 428.842V430.322H160.303V433.163H165.503V434.687H153.301V433.163H158.442V430.322H154.736V423.818H164.067V425.312H156.611V428.842H164.17ZM180.298 422.88V426.147H182.1V427.656H180.298V430.893H178.423V422.88H180.298ZM170.117 430.19V423.715H171.978V425.488H174.702V423.715H176.577V430.19H170.117ZM171.318 432.958V431.479H180.298V436.21H178.423V432.958H171.318ZM171.978 428.71H174.702V426.938H171.978V428.71ZM194.844 428.168V429.648H189.688V430.497H193.364V433.91H185.938V434.716H193.716V436.122H184.106V432.592H191.519V431.904H184.092V430.497H187.812V429.648H182.686V428.168H194.844ZM184.194 427.465V423.261H193.306V427.465H184.194ZM186.025 426.03H191.445V424.711H186.025V426.03ZM203.12 423.847V424.682C203.12 425.605 203.12 426.938 202.812 428.593L200.981 428.417C201.223 427.143 201.282 426.169 201.296 425.37H196.265V423.847H203.12ZM195.474 429.56C196.221 429.56 197.063 429.56 197.949 429.538V426.923H199.81V429.479C201.143 429.421 202.498 429.318 203.75 429.135L203.853 430.483C201.077 430.995 197.957 431.047 195.635 431.054L195.474 429.56ZM197.437 435.976V431.962H199.312V434.482H206.797V435.976H197.437ZM204.468 432.856V422.88H206.387V426.938H207.998V428.505H206.387V432.856H204.468Z" fill="#858585"/>
<path d="M82.832 394.969C85.6958 394.969 87.8491 396.42 87.8564 398.617C87.8491 400.631 86.1499 401.979 83.7549 402.242V404.52H88.9551V406.058H76.7529V404.52H81.8945V402.242C79.5142 401.971 77.8223 400.624 77.8223 398.617C77.8223 396.42 79.9683 394.969 82.832 394.969ZM79.668 398.617C79.668 400.023 80.9644 400.807 82.832 400.814C84.707 400.807 86.0034 400.023 86.0107 398.617C86.0034 397.284 84.707 396.456 82.832 396.464C80.9644 396.456 79.668 397.284 79.668 398.617ZM100.879 394.281V407.64H98.9893V394.281H100.879ZM90.1123 399.965C90.105 397.057 91.5918 395.219 93.6426 395.219C95.6494 395.219 97.1436 397.057 97.1436 399.965C97.1436 402.894 95.6494 404.725 93.6426 404.725C91.5918 404.725 90.105 402.894 90.1123 399.965ZM91.9141 399.965C91.9067 401.949 92.6025 403.033 93.6426 403.026C94.6533 403.033 95.3345 401.949 95.3418 399.965C95.3345 397.987 94.6533 396.903 93.6426 396.903C92.6025 396.903 91.9067 397.987 91.9141 399.965ZM113.55 400.243V401.722H109.683V404.564H114.883V406.088H102.681V404.564H107.822V401.722H104.116V395.219H113.447V396.713H105.991V400.243H113.55Z" fill="#858585"/>
<path d="M194.354 484.909C194.347 487.356 195.46 489.809 197.724 490.769L196.625 492.263C195.102 491.574 194.047 490.241 193.439 488.594C192.838 490.395 191.747 491.845 190.121 492.585L188.993 491.032C191.322 490.051 192.458 487.495 192.465 484.909V482.917H194.354V484.909ZM198.441 495.251V481.892H200.331V495.251H198.441ZM212.797 481.892V487.312H214.54V488.865H212.797V495.222H210.907V481.892H212.797ZM201.972 491.457C202.946 491.457 204.081 491.457 205.268 491.428V490.285C203.854 490.007 202.931 489.106 202.938 487.868C202.931 486.382 204.279 485.364 206.22 485.364C208.124 485.364 209.486 486.382 209.501 487.868C209.486 489.106 208.549 490.014 207.143 490.285V491.362C208.197 491.303 209.259 491.216 210.248 491.076L210.365 492.439C207.531 492.966 204.469 492.988 202.221 492.981L201.972 491.457ZM202.235 484.836V483.371H205.268V481.965H207.143V483.371H210.146V484.836H202.235ZM204.711 487.868C204.704 488.572 205.304 488.952 206.22 488.952C207.106 488.952 207.699 488.572 207.699 487.868C207.699 487.18 207.106 486.792 206.22 486.784C205.304 486.792 204.704 487.18 204.711 487.868ZM226.713 483.576V485.071H215.624V483.576H220.238V482.024H222.084V483.576H226.713ZM215.097 493.86V492.365H220.238V490.835C217.968 490.63 216.591 489.699 216.605 488.235C216.591 486.616 218.341 485.649 221.161 485.656C223.93 485.649 225.709 486.616 225.702 488.235C225.709 489.699 224.318 490.63 222.084 490.827V492.365H227.299V493.86H215.097ZM218.524 488.235C218.517 489.026 219.433 489.385 221.161 489.377C222.853 489.385 223.783 489.026 223.783 488.235C223.783 487.473 222.853 487.114 221.161 487.107C219.433 487.114 218.517 487.473 218.524 488.235ZM199.833 499.892V504.272H201.532V505.81H199.833V510.292H197.958V499.892H199.833ZM189.022 507.553C189.982 507.553 191.095 507.546 192.26 507.509V506.74C190.81 506.535 189.909 505.817 189.916 504.77C189.909 503.451 191.205 502.682 193.183 502.69C195.146 502.682 196.442 503.451 196.449 504.77C196.442 505.81 195.548 506.528 194.12 506.74V507.421C195.211 507.355 196.31 507.253 197.343 507.099L197.475 508.388C194.669 508.93 191.513 508.967 189.213 508.989L189.022 507.553ZM189.374 502.309V500.976H192.26V499.848H194.12V500.976H197.006V502.309H189.374ZM190.897 512.988V509.604H192.772V511.493H200.287V512.988H190.897ZM191.703 504.77C191.696 505.268 192.23 505.553 193.183 505.546C194.12 505.553 194.655 505.268 194.662 504.77C194.655 504.206 194.12 503.935 193.183 503.935C192.23 503.935 191.696 504.206 191.703 504.77ZM213.368 499.906V507.582H211.508V506.279H208.505V504.784H211.508V503.51H208.644C207.809 505.619 205.912 507.077 202.982 507.875L202.25 506.396C205.312 505.597 206.82 504.125 207.084 502.294H202.968V500.8H209.12C209.12 501.232 209.091 501.65 209.025 502.045H211.508V499.906H213.368ZM204.374 510.439C204.367 508.791 206.19 507.751 208.93 507.743C211.632 507.751 213.463 508.791 213.471 510.439C213.463 512.109 211.632 513.163 208.93 513.163C206.19 513.163 204.367 512.109 204.374 510.439ZM206.234 510.439C206.234 511.266 207.238 511.684 208.93 511.684C210.585 511.684 211.588 511.266 211.596 510.439C211.588 509.618 210.585 509.194 208.93 509.208C207.238 509.194 206.234 509.618 206.234 510.439ZM227.284 506.484V507.963H222.26V510.263H220.414V507.963H215.082V506.484H227.284ZM216.518 512.988V509.106H218.378V511.493H225.937V512.988H216.518ZM216.605 505.385V500.478H225.717V505.385H216.605ZM218.437 503.935H223.886V501.928H218.437V503.935ZM238.725 499.892V505.312H240.468V506.865H238.725V513.222H236.835V499.892H238.725ZM227.899 509.457C228.874 509.457 230.009 509.457 231.195 509.428V508.285C229.782 508.007 228.859 507.106 228.866 505.868C228.859 504.382 230.207 503.364 232.147 503.364C234.052 503.364 235.414 504.382 235.429 505.868C235.414 507.106 234.477 508.014 233.07 508.285V509.362C234.125 509.303 235.187 509.216 236.176 509.076L236.293 510.439C233.458 510.966 230.397 510.988 228.148 510.981L227.899 509.457ZM228.163 502.836V501.371H231.195V499.965H233.07V501.371H236.073V502.836H228.163ZM230.639 505.868C230.631 506.572 231.232 506.952 232.147 506.952C233.034 506.952 233.627 506.572 233.627 505.868C233.627 505.18 233.034 504.792 232.147 504.784C231.232 504.792 230.631 505.18 230.639 505.868ZM252.479 499.892V509.867H250.707V499.892H252.479ZM240.863 506.718C242.68 505.846 243.412 504.103 243.412 502.529V500.785H245.229V502.529C245.221 504.067 245.888 505.597 247.602 506.381L246.562 507.817C245.492 507.319 244.774 506.476 244.335 505.458C243.866 506.623 243.068 507.59 241.889 508.139L240.863 506.718ZM243.441 512.988V508.696H245.316V511.493H252.816V512.988H243.441ZM246.386 504.462V502.939H248.012V500.097H249.784V509.472H248.012V504.462H246.386ZM265.238 499.892V513.251H263.393V506.103H261.049V504.594H263.393V499.892H265.238ZM254.604 510.234V501.005H260.829V502.514H256.464V504.726H260.346V506.191H256.464V508.71C258.317 508.696 259.796 508.63 261.444 508.373L261.635 509.867C259.687 510.16 257.943 510.226 255.658 510.234H254.604Z" fill="#858585"/>
<path d="M74.1084 538.917V552.247H72.248V545.567H69.5967V544.044H72.248V538.917H74.1084ZM62.7412 548.468C66.1104 546.805 67.5093 544.696 67.7876 541.773H63.3711V540.308H69.6699C69.6626 544.329 68.3589 547.625 63.708 549.932L62.7412 548.468ZM87.9951 545.274V546.739H82.8242V547.896H86.5156V552.247H84.6553V549.39H77.1846V547.896H80.9785V546.739H75.8369V545.274H87.9951ZM77.3896 544.395V539.239H79.2354V540.455H84.582V539.239H86.4424V544.395H77.3896ZM79.2354 542.93H84.582V541.832H79.2354V542.93ZM100.036 538.917V546.534H98.1758V542.755H95.6709V541.246H98.1758V538.917H100.036ZM88.6982 544.908C90.9395 544.219 91.8989 542.55 91.9062 540.792V539.517H93.7959V540.909C93.7886 542.491 94.7188 544.058 96.8281 544.688L95.8613 546.153C94.4111 545.677 93.4077 544.754 92.8364 543.59C92.2505 544.864 91.2031 545.867 89.665 546.373L88.6982 544.908ZM91.0713 552.1V547.12H100.036V552.1H91.0713ZM92.9463 550.606H98.2051V548.57H92.9463V550.606Z" fill="#858585"/>
<path d="M33.6692 474.143V477.556H31.0325V478.384C32.8269 478.376 33.6179 478.332 34.5188 478.113L34.7092 479.475C33.5959 479.768 32.6877 479.79 30.0803 479.782H29.2014V476.296H31.8674V475.549H29.1721V474.143H33.6692ZM28.3665 472.942V467.287H34.7678V472.942H28.3665ZM30.2122 471.462H32.9221V468.752H30.2122V471.462ZM34.2405 475.622V474.143H38.5471V479.812H36.7014V475.622H34.2405ZM36.6721 473.586V466.599H38.5471V469.25H40.3489V470.788H38.5471V473.586H36.6721ZM53.093 473.41V474.905H40.9348V473.41H53.093ZM42.1506 469.734C42.1506 468.034 44.0769 466.994 47.0139 467.009C49.929 466.994 51.8552 468.034 51.8625 469.734C51.8552 471.44 49.929 472.488 47.0139 472.488C44.0769 472.488 42.1506 471.44 42.1506 469.734ZM42.3997 479.695V475.798H44.2747V478.2H51.7161V479.695H42.3997ZM44.0989 469.734C44.0842 470.561 45.1609 470.979 47.0139 470.979C48.8523 470.979 49.929 470.561 49.929 469.734C49.929 468.928 48.8523 468.489 47.0139 468.474C45.1609 468.489 44.0842 468.928 44.0989 469.734ZM66.0569 471.887V473.366H60.9006V474.216H64.5774V477.629H57.1506V478.435H64.929V479.841H55.3196V476.311H62.7317V475.622H55.3049V474.216H59.0256V473.366H53.8987V471.887H66.0569ZM55.4075 471.184V466.98H64.5188V471.184H55.4075ZM57.2385 469.748H62.6584V468.43H57.2385V469.748ZM26.3523 486.694C26.345 488.312 27.2898 489.865 29.3992 490.517L28.4031 491.967C26.9895 491.498 26.0007 490.59 25.4294 489.426C24.8508 490.766 23.8181 491.821 22.2947 492.333L21.2839 490.868C23.5105 490.129 24.4626 488.356 24.4773 486.518V485.302H26.3523V486.694ZM23.1296 495.351C23.1223 493.732 24.8875 492.773 27.7 492.773C30.4612 492.773 32.1897 493.732 32.197 495.351C32.1897 496.984 30.4612 497.936 27.7 497.929C24.8875 497.936 23.1223 496.984 23.1296 495.351ZM25.0046 495.351C24.99 496.105 25.9495 496.464 27.7 496.464C29.4285 496.464 30.3513 496.105 30.3513 495.351C30.3513 494.626 29.4285 494.238 27.7 494.238C25.9495 494.238 24.99 494.626 25.0046 495.351ZM30.1902 492.509V484.599H32.0652V487.719H33.8669V489.272H32.0652V492.509H30.1902ZM39.3162 486.694C39.3088 488.312 40.2537 489.865 42.363 490.517L41.3669 491.967C39.9534 491.498 38.9646 490.59 38.3933 489.426C37.8147 490.766 36.782 491.821 35.2585 492.333L34.2478 490.868C36.4744 490.129 37.4265 488.356 37.4412 486.518V485.302H39.3162V486.694ZM36.0935 495.351C36.0862 493.732 37.8513 492.773 40.6638 492.773C43.425 492.773 45.1536 493.732 45.1609 495.351C45.1536 496.984 43.425 497.936 40.6638 497.929C37.8513 497.936 36.0862 496.984 36.0935 495.351ZM37.9685 495.351C37.9539 496.105 38.9133 496.464 40.6638 496.464C42.3923 496.464 43.3152 496.105 43.3152 495.351C43.3152 494.626 42.3923 494.238 40.6638 494.238C38.9133 494.238 37.9539 494.626 37.9685 495.351ZM43.1541 492.509V484.599H45.0291V487.719H46.8308V489.272H45.0291V492.509H43.1541ZM58.3298 488.774V490.268H48.9255V485.199H50.8005V488.774H58.3298ZM47.4167 493.315V491.791H59.6189V493.315H54.3894V497.929H52.5144V493.315H47.4167ZM71.5574 484.599V497.958H69.697V484.599H71.5574ZM61.0837 487.221V485.712H67.4265V490.854H63.032V493.3C65.0681 493.285 66.7893 493.183 68.7449 492.861L68.906 494.369C66.7161 494.758 64.7312 494.838 62.2996 494.838H61.0984V489.374H65.5222V487.221H61.0837Z" fill="#858585"/>
<path d="M280.093 300.102C280.093 303.5 278.606 305.873 275.142 307.353L274.19 305.99C276.702 304.965 277.903 303.522 278.174 301.581H274.834V300.102H280.093ZM275.86 310.795C278.709 310.414 280.188 308.876 280.196 307.426V307.016H282.041V307.426C282.034 308.876 283.513 310.414 286.363 310.795L285.645 312.245C283.499 311.93 281.931 310.985 281.111 309.696C280.283 310.985 278.731 311.93 276.592 312.245L275.86 310.795ZM280.972 306.415V299.223H282.73V302.211H283.931V298.988H285.703V307.66H283.931V303.734H282.73V306.415H280.972ZM297.906 299.472V300.263C297.898 301.061 297.898 302.123 297.671 303.441L295.825 303.295C295.979 302.343 296.023 301.588 296.038 300.937H288.604V299.472H297.906ZM287.241 305.434V303.983H291.782V302.021H293.628V303.983H299.341V305.434H287.241ZM288.589 307.748V306.269H297.906V309.828H290.464V310.766H298.272V312.201H288.604V308.568H296.06V307.748H288.589ZM265.547 319.347C265.547 320.79 266.294 322.21 268.067 322.892L267.071 324.312C265.928 323.88 265.144 323.089 264.668 322.108C264.185 323.258 263.35 324.217 262.105 324.737L261.094 323.302C262.976 322.474 263.731 320.833 263.731 319.347V317.779H265.547V319.347ZM263.57 327.813C263.562 326.253 265.357 325.316 268.184 325.323C270.996 325.316 272.798 326.253 272.813 327.813C272.798 329.359 270.996 330.311 268.184 330.304C265.357 330.311 263.562 329.359 263.57 327.813ZM265.445 327.813C265.43 328.531 266.433 328.897 268.184 328.897C269.92 328.897 270.923 328.531 270.923 327.813C270.923 327.088 269.92 326.715 268.184 326.715C266.433 326.715 265.43 327.088 265.445 327.813ZM268.111 324.723V317.223H269.854V320.24H270.967V316.988H272.74V325.133H270.967V321.749H269.854V324.723H268.111ZM280.137 318.365V319.845H276.49V321.852H279.873V323.287H276.49V325.689C277.991 325.675 279.09 325.624 280.386 325.44L280.518 326.964C278.98 327.206 277.669 327.257 275.64 327.257H274.702V318.365H280.137ZM281.104 329.688V317.164H282.862V322.145H284.019V316.974H285.806V330.304H284.019V323.639H282.862V329.688H281.104ZM293.218 325.279C296.133 325.279 297.964 326.202 297.979 327.799C297.964 329.374 296.133 330.311 293.218 330.304C290.325 330.311 288.465 329.374 288.472 327.799C288.465 326.202 290.325 325.279 293.218 325.279ZM287.241 324.43V322.921H291.782V320.592H293.628V322.921H299.341V324.43H287.241ZM288.604 319.039V317.574H297.906V318.658C297.913 319.72 297.913 320.863 297.525 322.232L295.694 322.057C295.994 320.848 296.031 319.947 296.045 319.039H288.604ZM290.332 327.799C290.325 328.517 291.38 328.883 293.218 328.883C295.056 328.883 296.118 328.517 296.118 327.799C296.118 327.059 295.056 326.664 293.218 326.671C291.38 326.664 290.325 327.059 290.332 327.799ZM311.47 316.988V327.052H309.595V325.997H307.046V324.723H309.595V316.988H311.47ZM300.132 322.892C302.571 322.877 305.867 322.84 308.687 322.496L308.789 323.829C307.735 324.005 306.643 324.129 305.567 324.21V326.744H303.692V328.575H311.763V330.069H301.831V326.085H303.692V324.32C302.498 324.364 301.363 324.371 300.352 324.371L300.132 322.892ZM301.114 319.83C301.114 318.409 302.483 317.435 304.468 317.442C306.402 317.435 307.786 318.409 307.793 319.83C307.786 321.258 306.402 322.181 304.468 322.174C302.483 322.181 301.114 321.258 301.114 319.83ZM302.886 319.83C302.879 320.475 303.516 320.833 304.468 320.826C305.362 320.833 306.006 320.475 306.021 319.83C306.006 319.171 305.362 318.805 304.468 318.805C303.516 318.805 302.879 319.171 302.886 319.83Z" fill="#858585"/>
<path d="M354.542 208.444V209.279C354.542 210.202 354.542 211.535 354.234 213.19L352.403 213.015C352.645 211.74 352.703 210.766 352.718 209.968H347.686V208.444H354.542ZM346.895 214.157C347.642 214.157 348.485 214.157 349.371 214.135V211.521H351.231V214.077C352.564 214.018 353.919 213.916 355.172 213.732L355.274 215.08C352.498 215.593 349.378 215.644 347.056 215.651L346.895 214.157ZM348.858 220.573V216.56H350.733V219.079H358.219V220.573H348.858ZM355.889 217.453V207.478H357.808V211.535H359.42V213.103H357.808V217.453H355.889ZM372.164 213.601V215.095H360.064V213.601H364.605V211.11H366.451V213.601H372.164ZM361.295 217.731V216.237H370.611V220.808H368.736V217.731H361.295ZM361.427 209.602V208.137H370.728V209.089C370.721 210.078 370.721 211.315 370.406 212.912L368.531 212.736C368.802 211.447 368.853 210.466 368.861 209.602H361.427ZM378.17 211.11C378.162 213.264 379.276 215.571 381.51 216.501L380.499 217.966C378.931 217.299 377.847 215.974 377.247 214.362C376.646 216.113 375.54 217.578 373.966 218.303L372.896 216.823C375.108 215.834 376.251 213.366 376.251 211.11V210.29H373.424V208.767H380.953V210.29H378.17V211.11ZM382.271 220.808V207.478H384.161V220.808H382.271ZM324.725 237.621C322.528 237.614 321.18 236.317 321.18 234.647C321.18 233.41 321.964 232.663 323.121 231.864C322.564 231.154 322.103 230.37 322.103 229.433C322.103 227.895 323.253 226.715 324.989 226.708C326.688 226.715 327.735 227.858 327.728 229.198C327.735 230.202 327.215 231.007 326.322 231.645L325.699 232.099L327.471 234.135C327.75 233.615 327.918 232.992 327.918 232.304H329.72C329.727 233.739 329.354 234.853 328.768 235.629L330.365 237.46H328.094L327.442 236.728C326.666 237.35 325.655 237.614 324.725 237.621ZM323.289 234.53C323.289 235.292 323.89 235.871 324.827 235.863C325.318 235.863 325.816 235.709 326.27 235.424L324.241 233.161L324.168 233.212C323.568 233.644 323.289 234.12 323.289 234.53ZM323.963 229.462C323.97 229.901 324.249 230.348 324.652 230.861L325.208 230.487C325.743 230.15 325.992 229.777 325.985 229.315C325.992 228.905 325.626 228.458 325.003 228.466C324.381 228.466 323.97 228.92 323.963 229.462ZM341.995 225.492V235.233H340.135V232.069H337.088C336.444 232.75 335.521 233.168 334.481 233.168C332.459 233.168 330.921 231.703 330.936 229.726C330.921 227.719 332.459 226.261 334.481 226.254C335.513 226.261 336.436 226.671 337.081 227.353H340.135V225.492H341.995ZM332.708 229.726C332.701 230.839 333.441 231.513 334.481 231.513C335.462 231.513 336.217 230.839 336.224 229.726C336.217 228.598 335.462 227.924 334.481 227.924C333.441 227.924 332.701 228.598 332.708 229.726ZM333.148 238.573V234.252H335.023V237.079H342.318V238.573H333.148ZM337.886 228.847C337.96 229.125 337.996 229.418 337.996 229.726C337.996 230.019 337.96 230.304 337.894 230.575H340.135V228.847H337.886ZM354.681 225.917V226.649C354.681 227.499 354.681 228.751 354.271 230.282L352.469 230.077C352.747 228.949 352.828 228.107 352.85 227.411H349.876V225.917H354.681ZM343.753 232.362V230.854H349.115V228.935H350.96V230.854H355.853V232.362H343.753ZM344.705 237.357C347.122 237.13 348.477 236.215 348.785 235.277H345.233V233.856H348.851V232.743H350.74V233.856H354.359V235.277H350.806C351.099 236.215 352.447 237.13 354.915 237.357L354.285 238.749C352.139 238.529 350.601 237.775 349.796 236.728C348.997 237.775 347.459 238.529 345.321 238.749L344.705 237.357ZM344.72 227.411V225.917H348.88V226.605C348.88 227.455 348.88 228.737 348.177 230.312L346.361 230.033C346.837 228.891 346.983 228.07 347.027 227.411H344.72ZM365.535 226.957V228.422H362.327V230.546H365.008V231.967H362.327V234.362C363.756 234.34 364.803 234.267 366.048 234.062L366.209 235.57C364.678 235.849 363.404 235.863 361.448 235.863H360.555V226.957H365.535ZM365.638 231.835V230.341H367.132V225.712H368.875V238.207H367.132V231.835H365.638ZM369.901 238.808V225.478H371.702V238.808H369.901ZM379.935 226.737V235.556H373.533V226.737H379.935ZM375.379 234.076H378.074V228.202H375.379V234.076ZM381.751 238.808V225.478H383.626V230.502H385.589V232.055H383.626V238.808H381.751ZM393.675 226.708V228.202H392.489V234.018C393.031 233.974 393.558 233.922 394.071 233.856L394.173 235.204C391.441 235.68 388.394 235.731 386.102 235.746L385.897 234.223C386.373 234.223 386.885 234.223 387.42 234.215V228.202H386.234V226.708H393.675ZM389.222 234.186C389.705 234.171 390.196 234.149 390.687 234.127V228.202H389.222V234.186ZM394.715 238.808V225.478H396.59V230.546H398.553V232.069H396.59V238.808H394.715ZM409.949 226.649V228.202C409.942 230.143 409.942 231.989 409.334 234.882L407.474 234.706C407.738 233.6 407.891 232.619 407.987 231.718L400.252 232.099L400.018 230.604L408.082 230.312C408.111 229.579 408.118 228.891 408.118 228.202V228.144H400.428V226.649H409.949ZM399.036 237.211V235.688H411.195V237.211H399.036Z" fill="#858585"/>
</svg>
