<svg width="165" height="47" viewBox="0 0 165 47" fill="none" xmlns="http://www.w3.org/2000/svg">
<ellipse cx="24.695" cy="23.9468" rx="24.2906" ry="23.0415" fill="#29CA78"/>
<ellipse cx="53.466" cy="23.9468" rx="24.2906" ry="23.0415" fill="#29CA78"/>
<ellipse cx="82.2371" cy="23.9468" rx="24.2906" ry="23.0415" fill="#29CA78"/>
<ellipse cx="111.008" cy="23.9468" rx="24.2906" ry="23.0415" fill="#29CA78"/>
<ellipse cx="139.779" cy="23.9468" rx="24.2906" ry="23.0415" fill="#29CA78"/>
<path d="M29.7354 18.3068V19.6828H17.1274V18.3068H22.5994V16.6108H24.2314V18.3068H29.7354ZM17.7674 23.1388C17.7674 21.3628 20.1994 20.5628 23.4314 20.5628C26.6634 20.5628 29.0954 21.3628 29.0954 23.1388C29.0954 24.8988 26.6634 25.6988 23.4314 25.6988C20.1994 25.6988 17.7674 24.8988 17.7674 23.1388ZM27.4794 23.1388C27.4794 22.2748 25.7514 21.8748 23.4314 21.8748C21.1274 21.8748 19.3834 22.2748 19.3834 23.1388C19.3834 23.9868 21.1274 24.3868 23.4314 24.3868C25.7514 24.3868 27.4794 23.9868 27.4794 23.1388ZM30.2634 26.6428V28.0508H24.2314V30.9308H22.6154V28.0508H16.6154V26.6428H30.2634ZM43.174 30.6108V16.9468H44.758V30.6108H43.174ZM32.646 29.7628V28.2588C36.374 28.2428 38.614 25.3468 38.614 20.7708V18.8988H32.646V17.4428H40.23V20.7388C40.23 26.2108 37.318 29.7628 32.646 29.7628ZM66.169 19.4268V20.9628H64.249V24.2108H62.665V16.9468H64.249V19.4268H66.169ZM61.673 22.9468C60.841 23.3148 59.209 23.5548 57.273 23.5548H52.361V17.2028H53.961V22.1788H57.369C59.225 22.1788 60.793 21.9548 61.673 21.5708V22.9468ZM52.825 30.4348V25.0428H64.249V30.4348H52.825ZM54.409 26.4028V29.0908H62.665V26.4028H54.409ZM78.4396 30.6108V16.9468H80.0236V30.6108H78.4396ZM67.9116 29.7628V28.2588C71.6396 28.2428 73.8796 25.3468 73.8796 20.7708V18.8988H67.9116V17.4428H75.4956V20.7388C75.4956 26.2108 72.5836 29.7628 67.9116 29.7628ZM93.9262 16.9468H95.5262V30.6108H93.9262V24.0188H91.3022V22.4828H93.9262V16.9468ZM84.9502 28.3388H88.6142C89.9102 28.3388 91.3182 28.0828 92.1502 27.6988V29.1388C91.3182 29.5548 89.8622 29.7948 88.5342 29.7948H83.3822V22.8348H88.8062V18.8988H83.3502V17.4428H90.3742V24.2908H84.9502V28.3388ZM112.341 22.4828V24.0028H110.421V30.6108H108.837V16.9468H110.421V22.4828H112.341ZM98.5489 18.8988V17.4428H105.989V20.7388C105.989 26.1788 103.189 29.7628 98.5489 29.7628V28.2588C102.261 28.2428 104.373 25.3468 104.373 20.7708V18.8988H98.5489ZM124.611 30.6108V16.9468H126.195V30.6108H124.611ZM114.083 29.7628V28.2588C117.811 28.2428 120.051 25.3468 120.051 20.7708V18.8988H114.083V17.4428H121.667V20.7388C121.667 26.2108 118.755 29.7628 114.083 29.7628Z" fill="white"/>
<path d="M151.969 24.4418C152.242 24.1684 152.242 23.7252 151.969 23.4518L147.514 18.997C147.24 18.7237 146.797 18.7237 146.524 18.997C146.25 19.2704 146.25 19.7136 146.524 19.987L150.484 23.9468L146.524 27.9066C146.25 28.1799 146.25 28.6232 146.524 28.8965C146.797 29.1699 147.24 29.1699 147.514 28.8965L151.969 24.4418ZM135.299 24.6468L151.474 24.6468L151.474 23.2468L135.299 23.2468L135.299 24.6468Z" fill="white"/>
</svg>
